<?xml version="1.0" standalone="no"?>
<!DOCTYPE svg PUBLIC "-//W3C//DTD SVG 1.1//EN" "http://www.w3.org/Graphics/SVG/1.1/DTD/svg11.dtd" >
<svg>
<metadata>
Created by FontForge 20090914 at Fri Feb 10 01:51:06 2017
 By www-data
Copyright
</metadata>
<defs>
<font id="YiSunShinDotumL" horiz-adv-x="840" >
  <font-face 
    font-family="YiSunShin Dotum L"
    font-weight="400"
    font-stretch="normal"
    units-per-em="1000"
    panose-1="2 2 6 3 2 1 1 2 1 1"
    ascent="800"
    descent="-200"
    x-height="444.999"
    cap-height="650"
    bbox="-30 -205.002 1059 803"
    underline-thickness="25"
    underline-position="-188"
    unicode-range="U+000D-U+FFE6"
  />
<missing-glyph horiz-adv-x="1000" 
d="M100 -100v800h800v-800h-800zM150 -50h700v700h-700v-700z" />
    <glyph glyph-name=".notdef" horiz-adv-x="1000" 
d="M100 -100v800h800v-800h-800zM150 -50h700v700h-700v-700z" />
    <glyph glyph-name="glyph3434" horiz-adv-x="0" 
 />
    <glyph glyph-name="glyph3434" horiz-adv-x="0" 
 />
    <glyph glyph-name="uni000D" unicode="&#xd;" horiz-adv-x="250" 
 />
    <glyph glyph-name="space" unicode=" " horiz-adv-x="250" 
 />
    <glyph glyph-name="exclam" unicode="!" horiz-adv-x="350" 
d="M246 645l-73 -495h-37l48 495h62zM103 -40l10 75h59c-1.33301 -6.66699 -2.33301 -13.167 -3 -19.5l-2 -18.5l-2 -18.5l-2 -18.5h-60z" />
    <glyph glyph-name="quotedbl" unicode="&#x22;" horiz-adv-x="400" 
d="M120 500l-16 240h62l-16 -240h-30zM250 500l-16 240h62l-16 -240h-30z" />
    <glyph glyph-name="numbersign" unicode="#" horiz-adv-x="600" 
d="M410 445l28 195h37l-12.5 -93l-13.5 -102h106v-36h-111l-28 -198h109v-36h-115l-27 -195h-38l27 195h-181l-24 -164c-0.666992 -3.33301 -1.16699 -6.5 -1.5 -9.5s-0.5 -5.5 -0.5 -7.5c-0.666992 -2.66699 -1.16699 -5.16699 -1.5 -7.5s-0.5 -4.5 -0.5 -6.5h-38l27 195
h-107v36h112l28 198h-110v36h115l28 195h37l-26 -195h181zM224 409l-28 -198h181l28 198h-181z" />
    <glyph glyph-name="dollar" unicode="$" horiz-adv-x="556" 
d="M270 638l-0.000976562 102.001h30v-100h5c22.667 0 46.834 -1.66699 72.501 -5s51.5 -8.33301 77.5 -15l-8 -45c-24 6.66699 -47.5 12.167 -70.5 16.5s-48.5 6.5 -76.5 6.5v-261c20 -9.33301 41 -20 63 -32s42.667 -25.667 62 -41
c18.667 -15.333 34.167 -32.833 46.5 -52.5s18.5 -41.834 18.5 -66.501c0 -56 -18.167 -98.333 -54.5 -127s-81.5 -46.667 -135.5 -54v-104h-30v101c-6 -0.666992 -11.833 -1 -17.5 -1h-17.5c-22.667 0 -46 2.5 -70 7.5s-47 10.833 -69 17.5l4 45
c19.333 -6.66699 42.833 -13 70.5 -19s55.834 -9 84.501 -9h15v295c-19.333 8 -39.833 17.667 -61.5 29s-41.834 24.333 -60.501 39c-18 14 -33 29.833 -45 47.5s-18 36.834 -18 57.501c0 49.333 17.5 88.166 52.5 116.499s79.167 45.5 132.5 51.5zM439.999 140.001
c0 30 -14.333 57 -43 81s-61 45 -97 63v-278c16.667 2.66699 33.334 7.5 50.001 14.5s31.667 16.167 45 27.5c13.333 10.667 24.166 23.667 32.499 39s12.5 33 12.5 53zM133.999 480.001c0 -15.333 3.83301 -29.166 11.5 -41.499s18.167 -23.833 31.5 -34.5
c12.667 -10.667 27.167 -20.334 43.5 -29.001s32.833 -16.667 49.5 -24v245c-36 -4 -67.667 -14.833 -95 -32.5s-41 -45.5 -41 -83.5z" />
    <glyph glyph-name="percent" unicode="%" horiz-adv-x="750" 
d="M125 -30l435 660h45l-110 -166.5l-108 -164.5l-108 -164l-109 -165h-45zM65 490c0 32 10.5 59.167 31.5 81.5s48.833 33.5 83.5 33.5c34 0 61.667 -11.167 83 -33.5s32 -49.5 32 -81.5c0 -31.333 -10.667 -58.333 -32 -81s-49 -34 -83 -34
c-34.667 0 -62.5 11.333 -83.5 34s-31.5 49.667 -31.5 81zM106 490c0 -20 5.83301 -38.333 17.5 -55s30.5 -25 56.5 -25c24.667 0 43 8.33301 55 25s18 35 18 55c0 20.667 -6.33301 39.167 -19 55.5s-30.667 24.5 -54 24.5s-41.5 -8.16699 -54.5 -24.5
s-19.5 -34.833 -19.5 -55.5zM435 110c0 32 10.5 59.167 31.5 81.5s48.833 33.5 83.5 33.5c34 0 61.667 -11.167 83 -33.5s32 -49.5 32 -81.5c0 -31.333 -10.667 -58.333 -32 -81s-49 -34 -83 -34c-34.667 0 -62.5 11.333 -83.5 34s-31.5 49.667 -31.5 81zM476 110
c0 -20 5.83301 -38.333 17.5 -55s30.5 -25 56.5 -25c24.667 0 43 8.33301 55 25s18 35 18 55c0 20.667 -6.33301 39.167 -19 55.5s-30.667 24.5 -54 24.5s-41.5 -8.16699 -54.5 -24.5s-19.5 -34.833 -19.5 -55.5z" />
    <glyph glyph-name="ampersand" unicode="&#x26;" horiz-adv-x="690" 
d="M559 316l42.0029 0.00195312c-6 -44.667 -16.333 -85.5 -31 -122.5s-31.334 -69.5 -50.001 -97.5l100 -116h-60l-70 80c-28.667 -28.667 -59.667 -50.834 -93 -66.501s-69 -23.5 -107 -23.5c-62.667 0 -111.667 16.167 -147 48.5s-53 74.5 -53 126.5
c0 46.667 15.167 85.167 45.5 115.5s71.166 56.166 122.499 77.499c-22 26 -41.667 53.167 -59 81.5s-26 57.5 -26 87.5c0 48.667 15.167 84.667 45.5 108s67.5 35 111.5 35c39.333 0 73.833 -10.833 103.5 -32.5s44.5 -56.5 44.5 -104.5
c0 -19.333 -4.83301 -37.833 -14.5 -55.5s-22.167 -33.834 -37.5 -48.501c-15.333 -15.333 -32.666 -29.166 -51.999 -41.499s-39 -22.833 -59 -31.5l43.5 -52l45.5 -55l46 -55c15.333 -18 30.666 -34.333 45.999 -49c18 29.333 32.167 59.5 42.5 90.5
s17.166 64.5 20.499 100.5zM140.003 150.002c0 -50 16.3359 -86.6689 49.0029 -110.002s72.334 -35 119.001 -35c18.667 0 36.167 2.83301 52.5 8.5s31.5 12.834 45.5 21.501c13.333 8 25.166 17 35.499 27s19.166 19.333 26.499 28l-95.5 111l-56.5 66l-28.5 32.5
c-5.66699 6.33301 -9.83398 11.5 -12.501 15.5l-49.5 -35c-16.333 -11.333 -30.833 -23.666 -43.5 -36.999c-12.667 -12.667 -22.834 -26.667 -30.501 -42s-11.5 -32.333 -11.5 -51zM217.006 505c0 -26.667 8.50098 -52.8301 25.501 -78.4971s35.5 -48.5 55.5 -68.5
c13.333 6 27.833 14.167 43.5 24.5s30.5 22.166 44.5 35.499c13.333 13.333 24.666 27.666 33.999 42.999s14 31.333 14 48c0 40 -10.5 67.833 -31.5 83.5s-46.5 23.5 -76.5 23.5s-55.667 -9.33301 -77 -28s-32 -46.334 -32 -83.001z" />
    <glyph glyph-name="quotesingle" unicode="'" horiz-adv-x="278" 
d="M125 500l-16 240h62l-16 -240h-30z" />
    <glyph glyph-name="parenleft" unicode="(" horiz-adv-x="380" 
d="M280 -130l-33 -0.000976562c-43.333 64.667 -77.833 132.167 -103.5 202.5s-38.5 146.166 -38.5 227.499c0 80.667 12.833 155.834 38.5 225.501s60.167 137.834 103.5 204.501h33c-34.667 -65.333 -64.167 -135 -88.5 -209s-36.5 -147.667 -36.5 -221
c0 -76 11.5 -150.167 34.5 -222.5s53.167 -141.5 90.5 -207.5z" />
    <glyph glyph-name="parenright" unicode=")" horiz-adv-x="380" 
d="M133 -130l-33 0.000976562c36.667 66 66.667 135.167 90 207.5s35 146.5 35 222.5c0 73.333 -12.333 147 -37 221s-54 143.667 -88 209h33c42.667 -66.667 77 -134.834 103 -204.501s39 -144.834 39 -225.501c0 -81.333 -13 -157.166 -39 -227.499
s-60.333 -137.833 -103 -202.5z" />
    <glyph glyph-name="asterisk" unicode="*" horiz-adv-x="550" 
d="M357 374l-82.002 137.997l-82 -138l-45 29l109 123c-12 2.66699 -24.833 5.33398 -38.5 8.00098l-40.5 8c-14 3.33301 -27.667 6.33301 -41 9s-25.666 5.33398 -36.999 8.00098l4 13.5l4 12.5l4 12l4 12l149 -61c-1.33301 10.667 -2.66602 22.834 -3.99902 36.501
l-4 41.5l-4 41.5c-1.33301 13.667 -2.33301 26.167 -3 37.5h55l-16 -158l145 62l16 -51l-156 -31l26.5 -31.5l27.5 -30.5c8.66699 -10.667 17.5 -21 26.5 -31l26.5 -30z" />
    <glyph glyph-name="plus" unicode="+" horiz-adv-x="620" 
d="M75 265v50h208v210h54v-210h208v-50h-208v-210h-54v210h-208z" />
    <glyph glyph-name="comma" unicode="," horiz-adv-x="280" 
d="M12 -150l60.001 210h70l-60 -126l-10.5 -21l-10.5 -21l-11.5 -22c-3.66699 -7.33301 -6.83398 -14 -9.50098 -20h-28z" />
    <glyph glyph-name="hyphen" unicode="-" horiz-adv-x="600" 
d="M75 265v50h450v-50h-450z" />
    <glyph glyph-name="period" unicode="." horiz-adv-x="280" 
d="M55 -50v80h80v-80h-80z" />
    <glyph glyph-name="slash" unicode="/" horiz-adv-x="350" 
d="M35 -80l237 760h43l-59.5 -190l-59.5 -190l-60 -190l-58 -190h-43z" />
    <glyph glyph-name="zero" unicode="0" horiz-adv-x="620" 
d="M60 300c0 38 3.66699 77.833 11 119.5s20.333 79.834 39 114.501s44.167 63.5 76.5 86.5s73.5 34.5 123.5 34.5c49.333 0 90.166 -11.5 122.499 -34.5s57.833 -51.833 76.5 -86.5s31.834 -72.834 39.501 -114.501s11.5 -81.5 11.5 -119.5s-3.83301 -78 -11.5 -120
s-20.834 -80.333 -39.501 -115s-44.167 -63.334 -76.5 -86.001s-73.166 -34 -122.499 -34c-50 0 -91.167 11.333 -123.5 34s-57.833 51.334 -76.5 86.001s-31.667 73 -39 115s-11 82 -11 120zM110 300c0 -24 2.16895 -53.833 6.50195 -89.5s13.5 -70.167 27.5 -103.5
s34.167 -61.833 60.5 -85.5s61.5 -35.5 105.5 -35.5c43.333 0 78.166 11.833 104.499 35.5s46.5 52.167 60.5 85.5s23.333 67.833 28 103.5s7 65.5 7 89.5c0 23.333 -2.66699 52.833 -8 88.5s-15 70.167 -29 103.5c-14.667 33.333 -35 62 -61 86s-60 36 -102 36
c-42.667 0 -77 -12 -103 -36s-46.333 -52.667 -61 -86s-24.334 -67.833 -29.001 -103.5s-7 -65.167 -7 -88.5z" />
    <glyph glyph-name="one" unicode="1" horiz-adv-x="480" 
d="M236 605l-93 -84.999c-7.33301 -6 -13.833 -12 -19.5 -18s-10.5 -12 -14.5 -18l-12 16c-4 6 -6.5 11.667 -7.5 17s0.5 9.66602 4.5 12.999l34 29.5l34 29.5l34 28l34 28h56v-690h-50v650z" />
    <glyph glyph-name="two" unicode="2" horiz-adv-x="550" 
d="M245 655c30 0 58.5039 -4.66699 85.5039 -14s50.833 -22.333 71.5 -39c20.667 -17.333 37.167 -38 49.5 -62s18.5 -50.667 18.5 -80c0 -20.667 -4.5 -41.5 -13.5 -62.5s-20.5 -41.833 -34.5 -62.5s-29.667 -40.834 -47 -60.501s-34.333 -37.834 -51 -54.501
c-38 -38 -80.333 -76 -127 -114l-139 -110h424c-0.666992 -10 -2.83398 -19.333 -6.50098 -28s-9.5 -13 -17.5 -13h-418v79l35 27.5l36 26.5l34.5 27.5c11.667 9 23.167 18.833 34.5 29.5l72.5 67.5c27.667 25.667 53.834 52.834 78.501 81.501s45.667 58.167 63 88.5
s26 59.5 26 87.5c0 18.667 -5.16699 36.667 -15.5 54s-23.833 33 -40.5 47c-16.667 13.333 -35.834 24 -57.501 32s-43.834 12 -66.501 12c-32 0 -62.333 -3.83301 -91 -11.5s-55.334 -18.167 -80.001 -31.5c-1.33301 4 -2.33301 7.66699 -3 11s-1 7.33301 -1 12
c-0.666992 6 -0.333984 11.5 0.999023 16.5s4.33301 8.5 9 10.5c27.333 10.667 55.5 18.834 84.5 24.501s57.5 8.5 85.5 8.5z" />
    <glyph glyph-name="three" unicode="3" horiz-adv-x="550" 
d="M161 609c-17.333 -2 -33 -5.16699 -47 -9.5s-27.333 -9.5 -40 -15.5l-2 21c-0.666992 6 -0.333984 11.167 0.999023 15.5s3.66602 7.5 6.99902 9.5c26 8 53.333 14.167 82 18.5s56.334 6.5 83.001 6.5c29.333 0 57.833 -3.66699 85.5 -11s52.167 -18.333 73.5 -33
s38.5 -33 51.5 -55s19.5 -47.333 19.5 -76c0 -18 -4.5 -35.167 -13.5 -51.5s-20.833 -31.166 -35.5 -44.499c-14 -13.333 -30 -24.833 -48 -34.5s-36 -16.834 -54 -21.501l-39 -13l41 -10c22.667 -4 43.667 -11.167 63 -21.5s36 -23.5 50 -39.5
c14 -15.333 25.167 -32.833 33.5 -52.5s12.5 -40.167 12.5 -61.5c0 -34 -8 -62.833 -24 -86.5s-37 -42.834 -63 -57.501s-55.5 -25.167 -88.5 -31.5s-66.167 -9.5 -99.5 -9.5c-28 0 -55.667 2 -83 6s-53 10.333 -77 19c-4 1.33301 -6.5 4.5 -7.5 9.5
s-1.16699 10.5 -0.5 16.5c0 2.66699 0.166992 6 0.5 10s0.833008 8 1.5 12c10.667 -5.33301 22.834 -10.333 36.501 -15s27.5 -8 41.5 -10c12 -2 25.167 -3.83301 39.5 -5.5s28.833 -2.5 43.5 -2.5c33.333 0 64.166 3.5 92.499 10.5s52.5 16.833 72.5 29.5
c20.667 12.667 36.667 28 48 46s17 37.667 17 59c0 28.667 -7.33301 53.334 -22 74.001s-33.667 37.667 -57 51c-22.667 13.333 -47.834 23.166 -75.501 29.499s-54.5 9.5 -80.5 9.5h-60v40h60c20.667 0 44.167 3.16699 70.5 9.5s50.833 15.833 73.5 28.5
s41.834 28 57.501 46s23.5 38.667 23.5 62s-5.66699 43.5 -17 60.5s-25.666 31.167 -42.999 42.5c-17.333 10.667 -37 18.667 -59 24s-44 8 -66 8c-14 0 -27.667 -0.666992 -41 -2s-26 -2.66602 -38 -3.99902z" />
    <glyph glyph-name="four" unicode="4" horiz-adv-x="600" 
d="M410 -45l0.000976562 167h-375v56l162.5 232l162.5 235h50l-335 -482h335v482h50v-482h105c-0.666992 -10 -2.83398 -19.333 -6.50098 -28s-9.5 -13 -17.5 -13h-81v-167h-50z" />
    <glyph glyph-name="five" unicode="5" horiz-adv-x="540" 
d="M210 -15c24.667 0 50.0029 4.1709 76.0029 12.5039s49.667 20.166 71 35.499s38.833 33.666 52.5 54.999s20.5 45.333 20.5 72c0 30 -6.16699 56.167 -18.5 78.5s-28.833 41.166 -49.5 56.499c-20.667 14.667 -44.5 25.834 -71.5 33.501s-55.5 11.5 -85.5 11.5
c-26.667 0 -50.834 -2 -72.501 -6s-40.834 -8.66699 -57.501 -14l2 79.5c0.666992 27 1.66699 54.167 3 81.5c0.666992 27.333 1.5 54.666 2.5 81.999s1.83301 54.666 2.5 81.999h375c-0.666992 -10 -3 -19.333 -7 -28s-10 -13 -18 -13h-303
c-1.33301 -18.667 -2.33301 -38.167 -3 -58.5l-2 -61.5l-2 -61.5c-0.666992 -20.333 -1.33398 -39.5 -2.00098 -57.5c19.333 5.33301 38.833 9.16602 58.5 11.499s39.167 3.5 58.5 3.5c29.333 0 58.333 -5.5 87 -16.5s54.334 -25.833 77.001 -44.5
c22.667 -18 41 -39.5 55 -64.5s21 -51.5 21 -79.5c0 -35.333 -7.5 -67.166 -22.5 -95.499s-35.167 -52.5 -60.5 -72.5c-24.667 -20 -53.334 -35.333 -86.001 -46s-66.334 -16 -101.001 -16c-26 0 -50.333 2 -73 6s-44 9 -64 15
c-3.33301 0.666992 -5.66602 2.66699 -6.99902 6s-2 7.33301 -2 12v2.5v4.5c0 2 0.166992 4.83301 0.5 8.5s0.5 8.5 0.5 14.5c24 -10.667 47.833 -18.167 71.5 -22.5s48.167 -6.5 73.5 -6.5z" />
    <glyph glyph-name="six" unicode="6" horiz-adv-x="590" 
d="M490 170c0 18 -3.50098 37.334 -10.501 58.001s-17.833 39.667 -32.5 57c-14 17.333 -32 31.666 -54 42.999s-48 17 -78 17c-28 0 -53.833 -4.5 -77.5 -13.5s-44.167 -21.167 -61.5 -36.5c-17.333 -16 -30.833 -34.667 -40.5 -56s-14.167 -44.333 -13.5 -69
c0 -19.333 4.33301 -39.833 13 -61.5s21 -41.5 37 -59.5c16 -18.667 35.5 -34 58.5 -46s49.5 -18 79.5 -18c29.333 0 55.333 5.66699 78 17s41.334 26 56.001 44c15.333 17.333 26.833 37 34.5 59s11.5 43.667 11.5 65zM354.999 615.001
c-49.333 0 -89.999 -10.502 -121.999 -31.502s-57.333 -47.833 -76 -80.5c-18.667 -32 -31.834 -67.833 -39.501 -107.5s-11.5 -78.167 -11.5 -115.5c30.667 40 64 67.5 100 82.5s74 22.5 114 22.5c31.333 0 60.333 -5.83301 87 -17.5s50 -27.167 70 -46.5
c19.333 -19.333 34.666 -41.666 45.999 -66.999s17 -51.666 17 -78.999c0 -32.667 -6 -63 -18 -91s-28.333 -52.333 -49 -73s-45 -36.834 -73 -48.501s-58 -17.5 -90 -17.5c-48.667 0 -89.167 10.167 -121.5 30.5s-57.833 46.833 -76.5 79.5
c-19.333 32 -32.833 68.333 -40.5 109s-11.5 81 -11.5 121c0 44.667 4.5 89 13.5 133s24.833 83.667 47.5 119c22 34.667 51.667 63 89 85s84 33 140 33c20.667 0 43.5 -2 68.5 -6s47.167 -9 66.5 -15c2.66699 -2 4.66699 -5.33301 6 -10s2 -10 2 -16
c0 -4 -0.333008 -7.66699 -1 -11s-1 -6.66602 -1 -9.99902c-21.333 8 -43.666 14.667 -66.999 20s-46.333 8 -69 8z" />
    <glyph glyph-name="seven" unicode="7" horiz-adv-x="540" 
d="M490 645v-57l-68 -157.5l-68 -159.5l-67.5 -158.5l-66.5 -157.5h-55l280 650h-395v40h440z" />
    <glyph glyph-name="eight" unicode="8" horiz-adv-x="590" 
d="M298 -55c-28.667 0 -57.165 3.99902 -85.498 11.999s-53.833 19.667 -76.5 35s-41 34.166 -55 56.499s-21 47.833 -21 76.5c0 20 5.16699 39.5 15.5 58.5s24.5 36.833 42.5 53.5s39.167 32 63.5 46s50.5 26.333 78.5 37c-35.333 11.333 -64.5 24.5 -87.5 39.5
s-41.5 30.833 -55.5 47.5s-23.667 33.334 -29 50.001s-8 32.667 -8 48c0 18.667 5.16699 37 15.5 55s25.166 34 44.499 48s42.666 25.333 69.999 34s58 13 92 13c32.667 0 62.167 -4.33301 88.5 -13s48.833 -19.667 67.5 -33c18 -13.333 32.167 -28.333 42.5 -45
s15.5 -33 15.5 -49c0 -36 -12.667 -69.667 -38 -101s-68 -62.666 -128 -93.999c53.333 -20.667 98.333 -47 135 -79s55 -69 55 -111c0 -31.333 -6.83301 -58.5 -20.5 -81.5s-31.5 -42.167 -53.5 -57.5c-22.667 -16 -48.5 -27.667 -77.5 -35s-59.167 -11 -90.5 -11z
M488.002 118.999l-0.00585938 1.00098c-2 30 -9.83301 54.333 -23.5 73s-30.167 34.334 -49.5 47.001c-19.333 13.333 -40.666 24.666 -63.999 33.999s-45.333 20 -66 32c-17.333 -11.333 -36.166 -22.333 -56.499 -33s-39.166 -22.667 -56.499 -36
c-17.333 -14 -31.666 -29.5 -42.999 -46.5s-17 -37.167 -17 -60.5c0 -22.667 5.83301 -43 17.5 -61s26.834 -33 45.501 -45c18.667 -12.667 39.667 -22.334 63 -29.001s46.333 -10 69 -10c22 0 43.5 3 64.5 9s40.167 14.667 57.5 26c16.667 11.333 30.334 25.333 41.001 42
s16.667 35.667 18 57zM131.996 490c0 -30.667 16.335 -58.3291 49.002 -82.9961s80.667 -48.667 144 -72c26.667 18 49 34.167 67 48.5s32.333 27.833 43 40.5s18.167 25.167 22.5 37.5s6.5 25.166 6.5 38.499c0 19.333 -5.66699 36.166 -17 50.499
s-25.333 26.166 -42 35.499c-16.667 10 -34.834 17.333 -54.501 22s-37.5 7 -53.5 7c-17.333 0 -35.5 -2.83301 -54.5 -8.5s-36.833 -13.834 -53.5 -24.501c-16.667 -10 -30.334 -22.833 -41.001 -38.5s-16 -33.5 -16 -53.5z" />
    <glyph glyph-name="nine" unicode="9" horiz-adv-x="590" 
d="M100 430c0 -18.667 3.33301 -38.333 10 -59s17.334 -39.667 32.001 -57c14 -17.333 32 -31.5 54 -42.5s48.333 -16.5 79 -16.5c27.333 0 52.833 4.33301 76.5 13s44.167 21 61.5 37c17.333 15.333 30.833 33.666 40.5 54.999s14.5 44.666 14.5 69.999
c-0.666992 18.667 -5.33398 38.834 -14.001 60.501s-21 41.834 -37 60.501c-16 18 -35.5 33.167 -58.5 45.5s-49.167 18.5 -78.5 18.5c-30 0 -56.333 -5.83301 -79 -17.5s-41.334 -26.167 -56.001 -43.5c-15.333 -18 -26.666 -38 -33.999 -60s-11 -43.333 -11 -64z
M235 -14.999c48.667 0 88.9961 10.335 120.996 31.002s57.333 47.334 76 80.001s31.834 68.667 39.501 108s11.834 78 12.501 116c-31.333 -40 -64.833 -67.5 -100.5 -82.5s-73.5 -22.5 -113.5 -22.5c-32 0 -61.333 5.66699 -88 17s-50 26.666 -70 45.999
c-19.333 19.333 -34.5 41.666 -45.5 66.999s-16.5 52 -16.5 80c0 32 5.83301 62 17.5 90s27.834 52.333 48.501 73s45 37 73 49s58.333 18 91 18c48 0 88.167 -10.333 120.5 -31s57.833 -47 76.5 -79c19.333 -32.667 33 -69.167 41 -109.5s12 -80.5 12 -120.5
c0 -45.333 -4.66699 -90 -14 -134s-25 -83.667 -47 -119c-22.667 -34.667 -52.5 -62.834 -89.5 -84.501s-83.5 -32.5 -139.5 -32.5c-21.333 0 -44.5 2 -69.5 6s-46.833 9 -65.5 15c-3.33301 1.33301 -5.66602 4.33301 -6.99902 9s-1.66602 10.334 -0.999023 17.001
c0 3.33301 0.166992 6.66602 0.5 9.99902s0.833008 7 1.5 11c20.667 -8.66699 42.667 -15.5 66 -20.5s46.666 -7.5 69.999 -7.5z" />
    <glyph glyph-name="colon" unicode=":" horiz-adv-x="280" 
d="M180 510v-80h-80v80h80zM100 100v80h80v-80h-80z" />
    <glyph glyph-name="semicolon" unicode=";" horiz-adv-x="280" 
d="M55 -20l47 200h72l-88 -200h-31zM180 510v-80h-80v80h80z" />
    <glyph glyph-name="less" unicode="&#x3c;" horiz-adv-x="600" 
d="M535 537v-45l-427 -192l106.5 -48.5l107.5 -48.5l106.5 -48l106.5 -47v-45l-118.5 51.5l-116.5 53.5l-117.5 53l-117.5 54v50l117 51.5l118 53.5l117 53.5z" />
    <glyph glyph-name="equal" unicode="=" horiz-adv-x="620" 
d="M80 385v50h460v-50h-460zM80 155v50h460v-50h-460z" />
    <glyph glyph-name="greater" unicode="&#x3e;" horiz-adv-x="600" 
d="M65 492v45l116.5 -53l117.5 -53l117 -54l119 -52v-50l-118.5 -53.5l-116.5 -53.5l-117.5 -52.5l-117.5 -52.5v45l105.5 47l106.5 48l107.5 48.5l107.5 48.5l-104.5 46l-109.5 49l-109 49.5z" />
    <glyph glyph-name="question" unicode="?" horiz-adv-x="520" 
d="M210 -40v78h75v-78h-75zM235 655c26 0 51.502 -3.66602 76.502 -10.999s47.5 -18 67.5 -32c19.333 -14.667 35.166 -32.5 47.499 -53.5s18.5 -45.167 18.5 -72.5c0 -30.667 -8.33301 -58.334 -25 -83.001s-37 -50.667 -61 -78
c-26.667 -30.667 -48.167 -58.167 -64.5 -82.5s-24.5 -50.166 -24.5 -77.499v-15h-48v18c0.666992 20.667 4 38.667 10 54s13.667 29.333 23 42c9.33301 13.333 19.666 26 30.999 38s22.666 25.333 33.999 40l24 31l23 32c6.66699 11.333 12.167 23.166 16.5 35.499
s6.5 25.5 6.5 39.5c0 44 -16.5 76.667 -49.5 98s-71.5 32 -115.5 32c-27.333 0 -51.333 -3.16699 -72 -9.5s-40 -13.833 -58 -22.5l-5 26c-1.33301 6.66699 -1.16602 12.5 0.500977 17.5s5.5 8.5 11.5 10.5c23.333 8.66699 45.833 14.667 67.5 18s43.5 5 65.5 5z" />
    <glyph glyph-name="at" unicode="@" horiz-adv-x="810" 
d="M365 140c20.667 0 40.165 5.66992 58.498 17.0029s34.166 26 47.499 44s24 37.667 32 59s12 41.666 12 60.999c0 28 -9.16699 52 -27.5 72s-40.166 30 -65.499 30c-22.667 0 -43.167 -5.5 -61.5 -16.5s-34.166 -25.167 -47.499 -42.5
c-13.333 -16.667 -23.666 -35.334 -30.999 -56.001s-11 -40.334 -11 -59.001c0 -30.667 8.16699 -56.5 24.5 -77.5s39.5 -31.5 69.5 -31.5zM599.998 458.003l-68.998 -284.007c-2.66699 -11.333 -2.16699 -20.666 1.5 -27.999s12.834 -11 27.501 -11
c16 0 32.667 6.16699 50 18.5s33 28.166 47 47.499c14 20 25.5 42.167 34.5 66.5s13.5 48.5 13.5 72.5c0 41.333 -7.66699 78.166 -23 110.499s-35.666 59.5 -60.999 81.5c-26 22 -56.333 38.833 -91 50.5s-71.334 17.5 -110.001 17.5c-45.333 0 -86.666 -8 -123.999 -24
s-69.333 -38 -96 -66c-27.333 -28 -48.333 -60.833 -63 -98.5s-22 -78.167 -22 -121.5c0 -50 7.83301 -94.833 23.5 -134.5s37.834 -73.167 66.501 -100.5c28 -27.333 61.167 -48.333 99.5 -63s80.166 -22 125.499 -22c47.333 0 88.833 8.33301 124.5 25
s67.5 38.667 95.5 66h46c-33.333 -42 -73.333 -74.333 -120 -97s-96.667 -34 -150 -34c-50 0 -97 8.33301 -141 25s-82.333 40.667 -115 72c-32.667 30.667 -58.334 68.334 -77.001 113.001s-28 94.667 -28 150c0 52 9.33301 99.5 28 142.5s44.334 79.833 77.001 110.5
c32 30.667 69.667 54.5 113 71.5s89.333 25.5 138 25.5c42 0 82.5 -7 121.5 -21s73.5 -33.667 103.5 -59c30 -24.667 54 -54.5 72 -89.5s27 -73.5 27 -115.5c0 -46 -7.83301 -85.667 -23.5 -119s-34.834 -60.666 -57.501 -81.999s-47.167 -37.166 -73.5 -47.499
s-49.833 -15.166 -70.5 -14.499c-12.667 0 -24.167 5.5 -34.5 16.5s-15.5 28.5 -15.5 52.5c-14 -21.333 -33 -38.166 -57 -50.499s-45 -18.5 -63 -18.5c-38 0 -70 13.833 -96 41.5s-39 61.834 -39 102.501c0 28.667 4.66699 57.167 14 85.5s22.666 53.5 39.999 75.5
c17.333 22.667 38.333 40.834 63 54.501s52.667 20.5 84 20.5c20.667 0 43.167 -7.5 67.5 -22.5s43.166 -36.5 56.499 -64.5c6 28 10.167 46.333 12.5 55s4.16602 14.334 5.49902 17.001l1 1h41z" />
    <glyph glyph-name="A" unicode="A" horiz-adv-x="750" 
d="M90 -55l-50 -0.000976562l72.5 176.5l72.5 178.5l72 177.5l73 177.5h36c11.333 0 21.833 -2.16699 31.5 -6.5s17.167 -12.166 22.5 -23.499l71 -168.5l73 -171.5l72 -172.5l72 -167.5h-53l-86 207h-395l-20.5 -50.5l-21.5 -53.5l-22 -53
c-7.33301 -17.333 -14 -34 -20 -50zM549 197.999l-150 359l-30 78l-31 -79l-144 -358h355z" />
    <glyph glyph-name="B" unicode="B" horiz-adv-x="650" 
d="M75 -55l-0.00195312 710.002h260c32.667 0 63.334 -3.33301 92.001 -10s53.667 -16.667 75 -30c20.667 -13.333 37.167 -30.333 49.5 -51s18.5 -45.334 18.5 -74.001c0 -42 -10.667 -77.667 -32 -107s-54.666 -51 -99.999 -65l-33 -9l36 -7
c23.333 -4 44.833 -12 64.5 -24s36.5 -26.667 50.5 -44c14 -16.667 24.833 -35.334 32.5 -56.001s11.5 -41.667 11.5 -63c0 -34 -7.5 -62 -22.5 -84s-34.5 -39.333 -58.5 -52c-24.667 -12.667 -52.5 -21.5 -83.5 -26.5s-62.833 -7.5 -95.5 -7.5h-265zM126.998 287.002
l-0.000976562 -295.998h211c25.333 0 50.5 1.66699 75.5 5s47.5 9.66602 67.5 18.999s36.167 22.666 48.5 39.999s18.5 40 18.5 68s-7.66699 52.333 -23 73s-34.666 37.667 -57.999 51s-48.5 23.333 -75.5 30s-52.5 10 -76.5 10h-188zM126.997 609.004l0.00195312 -276h173
c26.667 0 53 2.33301 79 7s49.333 12.667 70 24c20 12 36.5 27.333 49.5 46s19.5 42 19.5 70c0 24.667 -5.66699 45.334 -17 62.001s-25.333 30 -42 40c-16.667 9.33301 -34.834 16.166 -54.501 20.499s-37.834 6.5 -54.501 6.5h-223z" />
    <glyph glyph-name="C" unicode="C" horiz-adv-x="610" 
d="M410 617c-48.667 0 -91.832 -8.66797 -129.499 -26.001s-69.5 -40.666 -95.5 -69.999c-25.333 -28.667 -44.666 -62.167 -57.999 -100.5s-20 -78.5 -20 -120.5c0 -45.333 6.83301 -87.333 20.5 -126s33.5 -72 59.5 -100c26 -28.667 57.833 -51 95.5 -67
s80.167 -24 127.5 -24c23.333 0 47.666 2 72.999 6s48.666 10 69.999 18v0l2 1c2 -14 3.16699 -22.833 3.5 -26.5s0.5 -6.16699 0.5 -7.5c0 -3.33301 -0.5 -6 -1.5 -8s-3.5 -4 -7.5 -6c-20 -9.33301 -44.333 -15 -73 -17s-52.667 -3 -72 -3
c-53.333 0 -101.5 8.83301 -144.5 26.5s-79.833 42.5 -110.5 74.5c-30 32 -53.333 70 -70 114s-25 92.333 -25 145c0 50.667 8.33301 98 25 142s40 82 70 114c30.667 32.667 67.5 58.167 110.5 76.5s91.167 27.5 144.5 27.5c22 0 44.333 -2.16699 67 -6.5s45 -10.5 67 -18.5
c4 -2 6.5 -5.66699 7.5 -11s1.5 -11 1.5 -17l-3 -24c-18.667 8.66699 -39.5 16.5 -62.5 23.5s-47.167 10.5 -72.5 10.5z" />
    <glyph glyph-name="D" unicode="D" horiz-adv-x="680" 
d="M75 -55l-0.000976562 710.001h190c48.667 0 94.667 -8.66699 138 -26s81.666 -41.333 114.999 -72c32.667 -31.333 58.667 -68.833 78 -112.5s29 -91.834 29 -144.501c0 -58 -8.66699 -109.167 -26 -153.5s-41.666 -81.5 -72.999 -111.5s-69.166 -52.5 -113.499 -67.5
s-93.5 -22.5 -147.5 -22.5h-190zM126.999 609.001v-618.002h148c93.333 0 166.333 25.833 219 77.5s79 128.834 79 231.501c0 47.333 -8.16699 90 -24.5 128s-38.5 70.333 -66.5 97c-27.333 26.667 -59 47.334 -95 62.001s-73.333 22 -112 22h-148z" />
    <glyph glyph-name="E" unicode="E" horiz-adv-x="590" 
d="M500 335l0.00195312 -46h-373v-298h404c-0.666992 -10.667 -2.83398 -21 -6.50098 -31s-9.5 -15 -17.5 -15h-432v710h451c-0.666992 -10.667 -2.83398 -21 -6.50098 -31s-9.5 -15 -17.5 -15h-375v-274h373z" />
    <glyph glyph-name="F" unicode="F" horiz-adv-x="570" 
d="M505 335l0.000976562 -46h-378v-344h-52v710h441c-0.666992 -10.667 -2.83398 -21 -6.50098 -31s-9.5 -15 -17.5 -15h-365v-274h378z" />
    <glyph glyph-name="G" unicode="G" horiz-adv-x="690" 
d="M594 627c4 -2 6.50098 -5.66699 7.50098 -11s1.5 -11 1.5 -17l-3 -24c-29.333 13.333 -59.5 23.666 -90.5 30.999s-62.5 11 -94.5 11c-45.333 0 -86.833 -8.66699 -124.5 -26s-70.167 -40.333 -97.5 -69c-27.333 -29.333 -48.5 -63.166 -63.5 -101.499
s-22.5 -78.5 -22.5 -120.5c0 -45.333 7.33301 -87.333 22 -126s35.334 -72 62.001 -100c26.667 -28.667 58.667 -51 96 -67s78.333 -24 123 -24c22 0 47 0.666992 75 2s54 7 78 17v280h-163v46h215v-364c-21.333 -6 -49.333 -11.5 -84 -16.5s-75 -7.5 -121 -7.5
c-53.333 0 -101.833 9 -145.5 27s-80.834 43 -111.501 75c-31.333 32 -55.5 70 -72.5 114s-25.5 92 -25.5 144c0 51.333 9 99 27 143s43 82 75 114c31.333 32 68.666 57.167 111.999 75.5s90.333 27.5 141 27.5c32 0 63.333 -3 94 -9s60.667 -14 90 -24z" />
    <glyph glyph-name="H" unicode="H" horiz-adv-x="700" 
d="M75 -55v710.002c12.667 0 24.5 -2.83301 35.5 -8.5s16.5 -15.834 16.5 -30.501v-281h446v320c12.667 0 24.5 -2.83301 35.5 -8.5s16.5 -15.834 16.5 -30.501v-671h-52v344h-446v-344h-52z" />
    <glyph glyph-name="I" unicode="I" horiz-adv-x="240" 
d="M146 616v-670.999h-52v710c12.667 0 24.5 -2.83301 35.5 -8.5s16.5 -15.834 16.5 -30.501z" />
    <glyph glyph-name="J" unicode="J" horiz-adv-x="340" 
d="M80 -14c25.333 0 46.332 3.66699 62.999 11s29.667 18 39 32c9.33301 13.333 16 29.5 20 48.5s6 39.833 6 62.5v515c12.667 0 24.5 -2.83301 35.5 -8.5s16.5 -15.834 16.5 -30.501v-496c0 -22 -2.5 -43.833 -7.5 -65.5s-13.5 -40.834 -25.5 -57.501
c-12.667 -17.333 -29.667 -31.166 -51 -41.499s-48.333 -15.5 -81 -15.5c-12 0 -24 0.5 -36 1.5s-20 3.16699 -24 6.5c-4 2 -7 5.5 -9 10.5s-3.33301 10.833 -4 17.5l-2 16c6 -1.33301 14.833 -2.66602 26.5 -3.99902s22.834 -2 33.501 -2z" />
    <glyph glyph-name="K" unicode="K" horiz-adv-x="620" 
d="M582 -55l-58.999 0.000976562l-87 92l-90 95l-91 94c-30 31.333 -58.333 62.666 -85 93.999l72.5 76l78.5 79l77.5 78l73.5 77c5.33301 5.33301 12.166 10.333 20.499 15s15.833 8 22.5 10h41l-328 -335l88.5 -90l91.5 -95l89 -97zM127.001 616.001v-670.999h-52v710
c12.667 0 24.5 -2.83301 35.5 -8.5s16.5 -15.834 16.5 -30.501z" />
    <glyph glyph-name="L" unicode="L" horiz-adv-x="560" 
d="M127 616l0.000976562 -624.999h388c-0.666992 -10.667 -2.83398 -21 -6.50098 -31s-9.5 -15 -17.5 -15h-416v710c12.667 0 24.5 -2.83301 35.5 -8.5s16.5 -15.834 16.5 -30.501z" />
    <glyph glyph-name="M" unicode="M" 
d="M455 170l197 451c4 8.66699 7.83301 15.334 11.5 20.001s8.16699 8 13.5 10c4.66699 2 10.5 3.16699 17.5 3.5s15.5 0.5 25.5 0.5h45v-710h-51l1 665h-18l-244 -555h-65l-218 500l-25 55h-20l1 -665h-51v710h50c14 0 26.5 -2 37.5 -6s20.833 -13.333 29.5 -28l198 -451
l32 -75c6 12 10.833 22.167 14.5 30.5s6.5 15.5 8.5 21.5c2.66699 5.33301 4.66699 9.66602 6 12.999z" />
    <glyph glyph-name="N" unicode="N" horiz-adv-x="700" 
d="M185 615l357.001 -574.999l32 -55v670c12 -0.666992 23.5 -3.83398 34.5 -9.50098s16.5 -15.5 16.5 -29.5v-671h-80l-387 625l-32 45v-670h-51v710h40c14.667 0 27.667 -2.83301 39 -8.5s21.666 -16.167 30.999 -31.5z" />
    <glyph glyph-name="O" unicode="O" horiz-adv-x="740" 
d="M107 300c0 -39.333 5.16699 -78 15.5 -116s26.5 -72 48.5 -102c21.333 -30 48.5 -54.333 81.5 -73s72.167 -28 117.5 -28c44.667 0 83.5 9.33301 116.5 28s60.5 43 82.5 73c21.333 30 37.333 64 48 102s16 76.667 16 116s-5.66699 78 -17 116s-28 72 -50 102
s-49.333 54.333 -82 73s-70.667 28 -114 28c-44 0 -82.333 -9.33301 -115 -28s-60 -43 -82 -73s-38.5 -64 -49.5 -102s-16.5 -76.667 -16.5 -116zM55 300c0 51.333 7.00098 99.166 21.001 143.499s34.667 82.833 62 115.5c26.667 32.667 59.5 58.5 98.5 77.5
s83.5 28.5 133.5 28.5c49.333 0 93.5 -9.5 132.5 -28.5s71.833 -44.833 98.5 -77.5c27.333 -32.667 48.166 -71.167 62.499 -115.5s21.5 -92.166 21.5 -143.499c0 -53.333 -7.16699 -102.166 -21.5 -146.499s-34.833 -82.833 -61.5 -115.5
c-27.333 -32.667 -60.5 -58 -99.5 -76s-83.167 -27 -132.5 -27c-50 0 -94.5 9 -133.5 27s-72.167 43.333 -99.5 76c-26.667 32.667 -47 71.167 -61 115.5s-21 93.166 -21 146.499z" />
    <glyph glyph-name="P" unicode="P" horiz-adv-x="615" 
d="M127 609l0.000976562 -322.999h208c20.667 0 42 3.16699 64 9.5s41.667 16.166 59 29.499s31.666 29.833 42.999 49.5s17 43.167 17 70.5c0 26 -5 49.167 -15 69.5s-23.667 37.5 -41 51.5c-16.667 14 -36 24.667 -58 32s-45 11 -69 11h-208zM75.001 -54.999
l-0.000976562 710.001h250c32 0 62.667 -4.33301 92 -13s55.333 -21.334 78 -38.001c22.667 -17.333 40.834 -39.166 54.501 -65.499s20.5 -57.5 20.5 -93.5c0 -35.333 -7.5 -65.833 -22.5 -91.5s-34.167 -46.834 -57.5 -63.501c-23.333 -17.333 -49.5 -30 -78.5 -38
s-57.833 -12 -86.5 -12h-198v-295h-52z" />
    <glyph glyph-name="Q" unicode="Q" horiz-adv-x="740" 
d="M55 300c0 51.333 7.00098 99.168 21.001 143.501s34.667 82.833 62 115.5c26.667 32.667 59.5 58.5 98.5 77.5s83.5 28.5 133.5 28.5c49.333 0 93.5 -9.5 132.5 -28.5s71.833 -44.833 98.5 -77.5c27.333 -32.667 48.166 -71.167 62.499 -115.5
s21.5 -92.166 21.5 -143.499c0 -52.667 -7.16699 -101.167 -21.5 -145.5s-34.5 -82.5 -60.5 -114.5l56.5 -54.5l55.5 -50.5h-65c-6.66699 5.33301 -13.167 11 -19.5 17l-19.5 18l-20 18c-6.66699 6 -13 12.333 -19 19c-26 -22.667 -56 -40.334 -90 -53.001
s-71.333 -19 -112 -19c-50 0 -94.5 9 -133.5 27s-72.167 43.333 -99.5 76c-26.667 32.667 -47 71.167 -61 115.5s-21 93.166 -21 146.499zM107.001 300.002c0 -39.333 5.16797 -78 15.501 -116s26.5 -72 48.5 -102c21.333 -30 48.5 -54.333 81.5 -73s72.167 -28 117.5 -28
c34 0 64.667 5.5 92 16.5s51.666 26.167 72.999 45.5l-42.5 40l-41.5 40l-41.5 39.5l-39.5 37.5h65l63 -60l67 -63c22.667 30 39.667 64.667 51 104s17 79 17 119c0 39.333 -5.66699 78 -17 116s-28 72 -50 102s-49.333 54.333 -82 73s-70.667 28 -114 28
c-44 0 -82.333 -9.33301 -115 -28s-60 -43 -82 -73s-38.5 -64 -49.5 -102s-16.5 -76.667 -16.5 -116z" />
    <glyph glyph-name="R" unicode="R" horiz-adv-x="645" 
d="M75 -55v710.001h235c34 0 66.333 -3.16699 97 -9.5s57.667 -16.833 81 -31.5s42 -33.834 56 -57.501s21 -52.5 21 -86.5c0 -19.333 -5.33301 -38.833 -16 -58.5s-25 -37.167 -43 -52.5s-39 -27.833 -63 -37.5s-49.667 -14.167 -77 -13.5c32 -8 56.833 -19 74.5 -33
s32.5 -32 44.5 -54l30.5 -69l30.5 -68l30.5 -69.5l28.5 -69.5h-57l-108 253c-16.667 36 -38 59 -64 69s-54.667 15 -86 15h-163v-337h-52zM127 609.001l0.000976562 -280.999h183c25.333 0 50.166 3.66699 74.499 11s46.166 17.666 65.499 30.999
c18.667 13.333 33.834 28.833 45.501 46.5s17.5 36.5 17.5 56.5c0 38 -16 70.167 -48 96.5s-75.333 39.5 -130 39.5h-208z" />
    <glyph glyph-name="S" unicode="S" horiz-adv-x="590" 
d="M74 -30l-0.999023 0.993164c-4 0 -6.33301 2.33301 -7 7s-0.333984 10 0.999023 16l8 30c29.333 -12 58.833 -21 88.5 -27s60.167 -9 91.5 -9c30 0 58.667 3.16699 86 9.5s51.666 15.833 72.999 28.5s38.333 28.5 51 47.5s19 41.167 19 66.5
c0 24.667 -8.16699 45.834 -24.5 63.501s-35.5 32.5 -57.5 44.5s-44.5 21.833 -67.5 29.5s-41.167 14.167 -54.5 19.5c-24 8.66699 -49.167 18.334 -75.5 29.001s-50.5 23 -72.5 37c-22.667 14 -41.167 30.167 -55.5 48.5s-21.5 39.5 -21.5 63.5
c0 27.333 6.83301 52 20.5 74s32.834 41 57.501 57c24 15.333 52.5 27.333 85.5 36s68.5 13 106.5 13c14 0 28 -0.833008 42 -2.5s28 -3.5 42 -5.5l41.5 -8l41.5 -8h-1c3.33301 -1.33301 5.66602 -4.16602 6.99902 -8.49902s1.33301 -9.16602 0 -14.499l-8 -29
c-28 10 -56.667 18 -86 24s-59 9 -89 9c-24 0 -48.5 -3.16699 -73.5 -9.5s-47.5 -15.166 -67.5 -26.499s-36.333 -25.166 -49 -41.499s-19 -34.5 -19 -54.5c0 -16 5.33301 -30.5 16 -43.5s24.667 -24.833 42 -35.5c16.667 -10.667 35.334 -20.5 56.001 -29.5
s40.667 -16.833 60 -23.5c20.667 -8.66699 45.5 -18.167 74.5 -28.5s56.833 -23.166 83.5 -38.499c26.667 -16 49.5 -35 68.5 -57s28.5 -48.333 28.5 -79c0 -34 -7.5 -63.5 -22.5 -88.5s-35.5 -45.833 -61.5 -62.5c-26.667 -16.667 -58 -29 -94 -37s-75 -12 -117 -12
c-30 0 -58.667 2.5 -86 7.5s-54 10.833 -80 17.5z" />
    <glyph glyph-name="T" unicode="T" horiz-adv-x="650" 
d="M30 655h591.001c-0.666992 -10.667 -2.83398 -21 -6.50098 -31s-9.5 -15 -17.5 -15h-246v-664h-52v664h-269v46z" />
    <glyph glyph-name="U" unicode="U" horiz-adv-x="700" 
d="M127 616l0.000976562 -375.998c0 -36.667 4.83301 -70.667 14.5 -102s23.834 -58.666 42.501 -81.999c19.333 -23.333 42.833 -41.666 70.5 -54.999s59.5 -20 95.5 -20c35.333 0 66.833 6.66699 94.5 20s51.167 31.666 70.5 54.999c18.667 23.333 33 50.666 43 81.999
s15 65.333 15 102v415c12.667 0 24.5 -2.83301 35.5 -8.5s16.5 -15.834 16.5 -30.501v-389c0 -46 -6.83301 -87.167 -20.5 -123.5s-32.834 -66.833 -57.501 -91.5c-24.667 -25.333 -53.667 -44.5 -87 -57.5s-70 -19.5 -110 -19.5s-76.833 6.5 -110.5 19.5
s-62.834 32.167 -87.501 57.5c-24.667 24.667 -43.667 55.167 -57 91.5s-20 77.5 -20 123.5v428c12.667 0 24.5 -2.83301 35.5 -8.5s16.5 -15.834 16.5 -30.501z" />
    <glyph glyph-name="V" unicode="V" horiz-adv-x="690" 
d="M358 16c0 0.666992 0.328125 2 0.995117 4s2.33398 6 5.00098 12s6.33398 14.833 11.001 26.5s10.667 27.5 18 47.5l29 73.5l40 107.5l55.5 147l72.5 194c6 10.667 12.5 17.834 19.5 21.501s15.5 5.5 25.5 5.5h20l-135.5 -356.5l-139.5 -353.5h-70l-140 353.5l-135 356.5
h20c9.33301 0 17.5 -1.83301 24.5 -5.5s13.833 -10.834 20.5 -21.501l71.5 -194l55.5 -147l40 -107.5l29 -73.5c7.33301 -20 13.333 -35.833 18 -47.5s8.33398 -20.5 11.001 -26.5s4.33398 -10 5.00098 -12s1.33398 -3.33301 2.00098 -4c0 -2.66699 1.33301 -8.66699 4 -18
s5.66699 -18.666 9 -27.999c2 9.33301 4.33301 18.666 7 27.999s4.66699 15.333 6 18z" />
    <glyph glyph-name="W" unicode="W" horiz-adv-x="950" 
d="M660 26l190.002 602.003c6 10.667 12.5 17.834 19.5 21.501s15.5 5.5 25.5 5.5h20l-235 -710h-70l-133 400l-132 -400h-70l-235 710h20c9.33301 0 17.5 -1.83301 24.5 -5.5s13.833 -10.834 20.5 -21.501l190 -602l15 -46c2 9.33301 4.66699 18.666 8 27.999
s5.66602 15.333 6.99902 18l126 399l-76 230h20c9.33301 0 17.5 -1.83301 24.5 -5.5s13.833 -10.834 20.5 -21.501l190 -602l15 -46c2 9.33301 4.66699 18.666 8 27.999s5.66602 15.333 6.99902 18z" />
    <glyph glyph-name="X" unicode="X" horiz-adv-x="661" 
d="M45 -55l259 370.001l-60 83l-61 87l-60 86l-58 84h32c9.33301 0 17.833 -2.5 25.5 -7.5s15.5 -12.5 23.5 -22.5l185 -270c6.66699 8 19.167 24.5 37.5 49.5l58.5 81.5l58.5 84.5l39.5 57.5c6 9.33301 13.667 16.166 23 20.499s19.333 6.5 30 6.5h22l-240 -335l260 -375
h-60l-230 335l-57.5 -82.5l-58.5 -86.5l-58 -85.5l-56 -80.5h-55z" />
    <glyph glyph-name="Y" unicode="Y" horiz-adv-x="670" 
d="M309 -55l0.000976562 311.999l-65.5 95l-67.5 102l-67.5 102l-63.5 99h30c10 0 18.333 -2.16699 25 -6.5s14 -12.5 22 -24.5l42.5 -69l47.5 -71l49 -73.5l51 -75.5l26 -45l24 45l186 290c7.33301 10.667 15.166 18.334 23.499 23.001s17.833 7 28.5 7h25l-264 -399v-311
h-52z" />
    <glyph glyph-name="Z" unicode="Z" horiz-adv-x="580" 
d="M126 52l-45.999 -61h461c-0.666992 -10.667 -2.83398 -21 -6.50098 -31s-9.5 -15 -17.5 -15h-477v63l96.5 128.5l98.5 135.5l99 137l96 131l50 69h-425v46h470v-61l-96.5 -133l-102.5 -140l-103 -140z" />
    <glyph glyph-name="bracketleft" unicode="[" horiz-adv-x="350" 
d="M130 -135v880h150v-35h-110v-810h110v-35h-150z" />
    <glyph glyph-name="backslash" unicode="\" horiz-adv-x="1080" 
d="M214 350h-124v35h114l-64 235h50l63 -235h189l58 235h80l58 -235h188l31 114.5l33 120.5h50l-64 -235h114v-35h-124l-25.5 -93l-25.5 -92l-25 -92.5l-25 -92.5h-75l-91 370h-119l-90 -370h-75zM262 350l73 -270l17 -70l13 60l68 280h-171zM646 350l69 -280l13 -60l17 70
l18 69.5l18 68.5l18 66l18 66h-171zM553 540l-13 50l-13 -50l-38 -155h102z" />
    <glyph glyph-name="bracketright" unicode="]" horiz-adv-x="350" 
d="M220 745v-880h-150v35h110v810h-110v35h150z" />
    <glyph glyph-name="asciicircum" unicode="^" horiz-adv-x="550" 
d="M98 460l148 280h58l36.5 -71l36.5 -69l36.5 -70l37.5 -70h-51l-125 250l-126 -250h-51z" />
    <glyph glyph-name="underscore" unicode="_" horiz-adv-x="500" 
d="M-1 -140v30h502v-30h-502z" />
    <glyph glyph-name="grave" unicode="`" horiz-adv-x="220" 
d="M95 750l85 -180h-30l-125 180h70z" />
    <glyph glyph-name="a" unicode="a" horiz-adv-x="550" 
d="M440 130l0.00195312 77.002c-5.33301 0 -13.333 0.166992 -24 0.5s-22.334 0.5 -35.001 0.5c-13.333 0.666992 -26.333 1.16699 -39 1.5s-23.334 0.5 -32.001 0.5c-20 0 -43 -1.33301 -69 -4s-50.667 -8 -74 -16c-22.667 -8 -42 -20 -58 -36s-24 -37.333 -24 -64
c0 -32 14.5 -58.333 43.5 -79s66.167 -31 111.5 -31c26 0 51 3.66699 75 11s45.333 17.666 64 30.999c18 13.333 32.667 29.166 44 47.499s17 38.5 17 60.5zM240.002 410.002c-30 -0.666992 -58 -5.66699 -84 -15s-51 -21 -75 -35l-1 27
c-1.33301 4.66699 -1.5 9.16699 -0.5 13.5s3.5 7.5 7.5 9.5c26 12 52.333 21.667 79 29s56.334 11 89.001 11c74 0 131.667 -17.167 173 -51.5s62 -83.5 62 -147.5v-241c0 -17.333 0.333008 -31 1 -41s2 -18 4 -24h-9c-10 0 -18.833 1.33301 -26.5 4s-11.5 8 -11.5 16v65
c-20 -27.333 -49.5 -49.166 -88.5 -65.499s-82.167 -24.5 -129.5 -24.5c-58 0 -105 13 -141 39s-54 63 -54 111c0 28 6.66699 51.833 20 71.5s31 35.834 53 48.501c22 12 47.167 20.833 75.5 26.5s57.166 8.5 86.499 8.5l170 -2c-2 63.333 -20.333 107.166 -55 131.499
s-83 36.166 -145 35.499z" />
    <glyph glyph-name="b" unicode="b" horiz-adv-x="575" 
d="M113 50l-0.000976562 -80.001c0 -11.333 -4.83301 -18.666 -14.5 -21.999s-20.834 -4.33301 -33.501 -3v740c12 0 23.333 -3 34 -9s16 -16.333 16 -31v-305c24.667 44.667 55 74.167 91 88.5s74 21.5 114 21.5c32.667 0 62.334 -7 89.001 -21s49.334 -32.667 68.001 -56
c18.667 -22.667 33 -49.167 43 -79.5s15 -61.5 15 -93.5s-4.66699 -63.667 -14 -95s-23 -59 -41 -83c-18 -24.667 -40.5 -44.5 -67.5 -59.5s-57.833 -22.5 -92.5 -22.5c-45.333 0 -85.333 8.33301 -120 25s-63.667 45 -87 85zM484.999 194.999
c0 28.667 -4.16406 56 -12.4971 82s-20.166 48.667 -35.499 68c-15.333 20 -34.5 35.833 -57.5 47.5s-49.5 17.5 -79.5 17.5s-56.5 -6.33301 -79.5 -19s-42.5 -29.334 -58.5 -50.001c-15.333 -20 -27 -42.833 -35 -68.5s-12 -51.5 -12 -77.5c0 -24 3.66699 -48.667 11 -74
s18.666 -48.333 33.999 -69c15.333 -21.333 34.666 -38.666 57.999 -51.999s50.666 -20 81.999 -20c30.667 0 57.667 6 81 18s42.666 28 57.999 48s26.833 42.833 34.5 68.5s11.5 52.5 11.5 80.5z" />
    <glyph glyph-name="c" unicode="c" horiz-adv-x="490" 
d="M95 195c0 -62.667 19.833 -114.164 59.5 -154.497s99.834 -60.5 180.501 -60.5c21.333 0 43 2.33301 65 7s40.333 10 55 16c0.666992 -6 1.16699 -10.667 1.5 -14s0.833008 -6 1.5 -8c0 -2 0.166992 -3.33301 0.5 -4l0.5 -1c0 -4.66699 -0.833008 -8.33398 -2.5 -11.001
s-3.83398 -4.33398 -6.50098 -5.00098c-18.667 -8 -39.334 -13.333 -62.001 -16s-43.667 -4 -63 -4c-43.333 0 -82.166 6 -116.499 18s-63.833 29.333 -88.5 52c-24 22 -42.5 48.667 -55.5 80s-19.5 66.333 -19.5 105c0 81.333 25.167 144.166 75.5 188.499
s120.166 66.5 209.499 66.5c16 0 33.5 -1.83301 52.5 -5.5s36.833 -8.5 53.5 -14.5c4 -2 6.5 -4.83301 7.5 -8.5s1.5 -8.16699 1.5 -13.5l-4 -23c-15.333 6.66699 -34 12.5 -56 17.5s-43.667 7.5 -65 7.5c-71.333 -2 -126.666 -21.5 -165.999 -58.5s-59 -89.167 -59 -156.5z
" />
    <glyph glyph-name="d" unicode="d" horiz-adv-x="575" 
d="M510 645v-645v-21.5c0 -5.66699 0.333008 -10.5 1 -14.5s1.16699 -7.5 1.5 -10.5s1.16602 -5.83301 2.49902 -8.5h-10c-10.667 0 -20.5 1.33301 -29.5 4s-13.5 8 -13.5 16v85c-21.333 -40 -50 -68.333 -86 -85s-76.333 -25 -121 -25c-35.333 0 -66.333 7.5 -93 22.5
s-49 34.833 -67 59.5c-18.667 24 -32.5 51.667 -41.5 83s-13.5 63 -13.5 95s5 63.167 15 93.5s24.333 56.833 43 79.5c18.667 23.333 41.5 42 68.5 56s57.167 21 90.5 21c38.667 0 75.834 -7.16699 111.501 -21.5s66.167 -43.833 91.5 -88.5v345c12 0 23.333 -3 34 -9
s16 -16.333 16 -31zM90 195c0 -28 4.00098 -54.833 12.001 -80.5s19.667 -48.5 35 -68.5s34.666 -36 57.999 -48s50 -18 80 -18c30.667 0 57.667 6.66699 81 20s42.666 30.666 57.999 51.999c15.333 20.667 26.833 43.667 34.5 69s11.5 50 11.5 74
c0 26 -4.16699 51.833 -12.5 77.5s-20.166 48.5 -35.499 68.5c-16 20.667 -35.5 37.334 -58.5 50.001s-49.167 19 -78.5 19c-30 0 -56.5 -5.83301 -79.5 -17.5s-42.167 -27.5 -57.5 -47.5c-16 -19.333 -28 -42 -36 -68s-12 -53.333 -12 -82z" />
    <glyph glyph-name="e" unicode="e" horiz-adv-x="555" 
d="M95 224h368.999c0 24 -4 47.167 -12 69.5s-19.667 42.166 -35 59.499c-15.333 16.667 -34 30.334 -56 41.001s-47.333 16 -76 16c-29.333 0 -55.333 -5.66699 -78 -17s-42 -26 -58 -44s-28.667 -38 -38 -60s-14.666 -43.667 -15.999 -65zM459.999 20l3.00098 -20.001
c0.666992 -8 0.666992 -13.833 0 -17.5s-3.33398 -6.5 -8.00098 -8.5c-22 -12 -45.5 -20.667 -70.5 -26s-49.833 -8 -74.5 -8c-41.333 0 -78.5 6.16699 -111.5 18.5s-60.833 29.833 -83.5 52.5c-22.667 23.333 -40 50.833 -52 82.5s-18 67.167 -18 106.5
c0 34.667 5.83301 67.334 17.5 98.001s28.167 57 49.5 79c20.667 22.667 45.834 40.5 75.501 53.5s62.167 19.5 97.5 19.5c39.333 0 73.166 -7 101.499 -21s51.833 -33 70.5 -57s32.667 -52 42 -84s14.666 -66 15.999 -102h-420c0.666992 -66 21 -116.833 61 -152.5
s91.333 -53.5 154 -53.5c30 0 56.833 3.83301 80.5 11.5s46.834 17.167 69.501 28.5z" />
    <glyph glyph-name="f" unicode="f" horiz-adv-x="390" 
d="M372 662c0 -1.33301 -0.166016 -3 -0.499023 -5s-0.5 -4 -0.5 -6c-0.666992 -2 -1 -4 -1 -6v-5c-8 2 -15.667 3.33301 -23 4s-14.666 1 -21.999 1c-25.333 0 -45.333 -3.66699 -60 -11s-25.667 -17.333 -33 -30c-8 -12.667 -12.833 -27.5 -14.5 -44.5
s-2.5 -35.167 -2.5 -54.5v-70h160c-0.666992 -10 -2.83398 -19.333 -6.50098 -28s-9.83398 -13 -18.501 -13h-135v-449h-50v449h-145v41h145v60c0 28 1.83301 53.667 5.5 77s10.834 43.333 21.501 60c10 16.667 24.5 29.667 43.5 39s43.833 14 74.5 14
c8 0 16.833 -0.5 26.5 -1.5l23.5 -2.5c5.33301 0 8.66602 -2.16699 9.99902 -6.5s2 -8.5 2 -12.5z" />
    <glyph glyph-name="g" unicode="g" horiz-adv-x="575" 
d="M90 220c0 -58 16.332 -104.167 48.999 -138.5s78 -51.5 136 -51.5c28.667 0 54.5 4.83301 77.5 14.5s42.5 23.167 58.5 40.5c15.333 16.667 27.333 36.667 36 60s13 48.333 13 75c0 26 -4 50.833 -12 74.5s-19.667 44.167 -35 61.5c-15.333 18 -34.666 32.333 -57.999 43
s-50 16 -80 16c-29.333 0 -55.5 -5.5 -78.5 -16.5s-42.167 -25.5 -57.5 -43.5c-16 -18.667 -28.167 -39.667 -36.5 -63s-12.5 -47.333 -12.5 -72zM269.999 -160c64.667 0 112.501 16.5029 143.501 49.5029s46.5 79.833 46.5 140.5l-1 55c-20 -36 -48.333 -60.833 -85 -74.5
s-75.667 -20.5 -117 -20.5c-33.333 0 -63.5 5.66699 -90.5 17s-49.833 27 -68.5 47s-33 43.667 -43 71s-15 57.333 -15 90c0 31.333 4.83301 61.5 14.5 90.5s23.834 54.5 42.501 76.5s41.667 39.667 69 53s58.666 20 93.999 20c50 0 91 -8.5 123 -25.5s58 -40.167 78 -69.5
l-1 60c0 10.667 4.83301 17.667 14.5 21s21.5 4.66602 35.5 3.99902v-415c0 -72 -20.833 -128.333 -62.5 -169s-104.167 -61 -187.5 -61c-28.667 0 -58 3.33301 -88 10s-57.333 15 -82 25c-2 1.33301 -3.5 3.66602 -4.5 6.99902s-0.833008 7 0.5 11c0 2 0.166992 4 0.5 6
s0.833008 4.33301 1.5 7c0 2 0.166992 4.16699 0.5 6.5s0.833008 5.16602 1.5 8.49902c28 -11.333 57.167 -21 87.5 -29s61.166 -12 92.499 -12z" />
    <glyph glyph-name="h" unicode="h" horiz-adv-x="570" 
d="M65 -55l-0.00390625 740c12 0 23.333 -3 34 -9s16 -16.333 16 -31v-320c8.66699 24.667 20.334 45 35.001 61s31.334 29 50.001 39c18.667 9.33301 38.334 15.833 59.001 19.5s41 5.5 61 5.5c58 0 105 -17.667 141 -53s54 -84.333 54 -147v-305h-50v265
c0 66 -13.333 115.833 -40 149.5s-65 50.5 -115 50.5c-29.333 0 -55.833 -5.83301 -79.5 -17.5s-44.167 -27.5 -61.5 -47.5c-17.333 -20.667 -30.666 -45 -39.999 -73s-14 -58.667 -14 -92v-235h-50z" />
    <glyph glyph-name="i" unicode="i" horiz-adv-x="220" 
d="M135 405v-460h-50v500c12 0 23.333 -3 34 -9s16 -16.333 16 -31zM70 610c0 12 3.83301 22 11.5 30s17.167 12 28.5 12c10.667 0 20 -4 28 -12s12 -18 12 -30s-4 -22 -12 -30s-17.333 -12 -28 -12c-11.333 0 -20.833 4 -28.5 12s-11.5 18 -11.5 30z" />
    <glyph glyph-name="j" unicode="j" horiz-adv-x="220" 
d="M6 -149c38.667 0 63.167 11.6689 73.5 35.002s15.5 58 15.5 104v455c12 -0.666992 23.333 -3.83398 34 -9.50098s16 -15.834 16 -30.501v-435c0 -21.333 -1.5 -41.666 -4.5 -60.999s-8.83301 -36.333 -17.5 -51c-9.33301 -14.667 -22 -26.334 -38 -35.001
s-37.333 -13 -64 -13c-11.333 0 -19.666 0.166992 -24.999 0.5s-10.333 2.16602 -15 5.49902c-3.33301 2 -5.83301 7.33301 -7.5 16s-2.83398 16 -3.50098 22c6 -1.33301 12 -2.16602 18 -2.49902s12 -0.5 18 -0.5zM80 610.002c0 12 3.83301 22 11.5 30s17.167 12 28.5 12
c10.667 0 20 -4 28 -12s12 -18 12 -30s-4 -22 -12 -30s-17.333 -12 -28 -12c-11.333 0 -20.833 4 -28.5 12s-11.5 18 -11.5 30z" />
    <glyph glyph-name="k" unicode="k" horiz-adv-x="510" 
d="M120 645v-700h-50v740c12 0 23.333 -3 34 -9s16 -16.333 16 -31zM500 -55l-63.999 -0.00195312l-67.5 67.5l-71.5 69.5l-71 69.5c-23.333 23 -45.333 45.833 -66 68.5l214 200c6.66699 6.66699 13.667 12.334 21 17.001s15.666 7.33398 24.999 8.00098h50l-246 -225z" />
    <glyph glyph-name="l" unicode="l" horiz-adv-x="200" 
d="M126 645v-700h-51v740c12 0 23.5 -3 34.5 -9s16.5 -16.333 16.5 -31z" />
    <glyph glyph-name="m" unicode="m" 
d="M65 -55v500c13.333 0.666992 24.833 -0.666016 34.5 -3.99902s14.5 -10.333 14.5 -21l-1 -70c26 44.667 53.5 73.334 82.5 86.001s60.5 19 94.5 19c25.333 0 52.833 -8.5 82.5 -25.5s52.167 -45.167 67.5 -84.5c12 25.333 25.833 45.333 41.5 60s31.5 25.667 47.5 33
c15.333 7.33301 30.166 12 44.499 14s26.5 3 36.5 3c28 0 53 -5 75 -15s40.333 -23.333 55 -40s25.834 -36.334 33.501 -59.001s11.5 -46.334 11.5 -71.001v-325h-50v305c0 20 -2.5 39.833 -7.5 59.5s-12.5 37.167 -22.5 52.5c-10.667 15.333 -24.667 28 -42 38
s-38.333 15 -63 15c-28.667 0 -52.5 -7 -71.5 -21s-34.5 -31.667 -46.5 -53c-11.333 -21.333 -19.5 -45.333 -24.5 -72s-7.5 -53 -7.5 -79v-245h-50v305c0 18 -2.16699 36.667 -6.5 56s-11.5 37 -21.5 53c-9.33301 16 -22 29.333 -38 40s-35.667 16 -59 16
c-28 0 -52.167 -7 -72.5 -21s-36.833 -31.667 -49.5 -53c-13.333 -21.333 -23 -45.333 -29 -72s-9 -53 -9 -79v-245h-50z" />
    <glyph glyph-name="n" unicode="n" horiz-adv-x="570" 
d="M114 420l-0.999023 -70.0029c28.667 42 60.667 70 96 84s70.666 21 105.999 21c29.333 0 56.333 -5.33301 81 -16s45.667 -25.667 63 -45c17.333 -18.667 31 -41.167 41 -67.5s15 -55.166 15 -86.499v-295h-50v265c0 67.333 -13.667 118.333 -41 153s-67 52 -119 52
c-31.333 0 -58.833 -6.16699 -82.5 -18.5s-43.5 -29.166 -59.5 -50.499c-16 -20.667 -28 -45 -36 -73s-12 -57.333 -12 -88v-240h-50v500c13.333 0.666992 24.833 -0.666016 34.5 -3.99902s14.5 -10.333 14.5 -21z" />
    <glyph glyph-name="o" unicode="o" horiz-adv-x="580" 
d="M45 195c0 34.667 6.33301 67.5 19 98.5s30 58.167 52 81.5c22.667 22.667 48.834 40.834 78.501 54.501s61.5 20.5 95.5 20.5c33.333 0 64.833 -6.83301 94.5 -20.5s55.834 -31.834 78.501 -54.501c22 -23.333 39.5 -50.5 52.5 -81.5s19.5 -63.833 19.5 -98.5
c0 -35.333 -6.5 -68.5 -19.5 -99.5s-30.5 -57.833 -52.5 -80.5c-22.667 -23.333 -48.834 -41.666 -78.501 -54.999s-61.167 -20 -94.5 -20c-34 0 -65.833 6.66699 -95.5 20s-55.834 31.666 -78.501 54.999c-22 22.667 -39.333 49.5 -52 80.5s-19 64.167 -19 99.5zM95 195
c0 -30 5 -58 15 -84s24 -48.667 42 -68c17.333 -19.333 37.833 -34.666 61.5 -45.999s49.167 -17 76.5 -17c26.667 0 51.834 5.66699 75.501 17s44.5 26.666 62.5 45.999c17.333 19.333 31.166 42 41.499 68s15.5 54 15.5 84c0 29.333 -5.16699 57 -15.5 83
s-24.166 48.667 -41.499 68c-18 20 -38.833 35.667 -62.5 47s-48.834 17 -75.501 17c-27.333 0 -52.833 -5.66699 -76.5 -17s-44.167 -27 -61.5 -47c-18 -19.333 -32 -42 -42 -68s-15 -53.667 -15 -83z" />
    <glyph glyph-name="p" unicode="p" horiz-adv-x="575" 
d="M65 -200v644.999c13.333 0.666992 24.833 -0.666016 34.5 -3.99902s14.5 -10.333 14.5 -21l-1 -70c21.333 32 49 57.5 83 76.5s73.667 28.5 119 28.5c34.667 0 65.667 -7.16699 93 -21.5s50.333 -32.833 69 -55.5c18.667 -23.333 33 -50 43 -80s15 -61 15 -93
c0 -32.667 -5.33301 -63.5 -16 -92.5s-25.667 -54.5 -45 -76.5c-18.667 -22 -41.667 -39.333 -69 -52s-57.333 -19 -90 -19c-42.667 0 -81.167 8 -115.5 24s-62.5 43 -84.5 81v-270h-50zM485 209.999c0 27.333 -3.83691 53.333 -11.5039 78s-19.167 46.334 -34.5 65.001
s-34.666 33.667 -57.999 45s-50.333 17 -81 17c-31.333 0 -58.666 -6 -81.999 -18s-42.666 -27.667 -57.999 -47c-15.333 -20 -26.666 -42.167 -33.999 -66.5s-11 -48.833 -11 -73.5c0 -28 4 -54.333 12 -79s19.667 -46.334 35 -65.001c16 -18.667 35.5 -33.5 58.5 -44.5
s49.5 -16.5 79.5 -16.5c62 0 108.333 19.167 139 57.5s46 87.5 46 147.5z" />
    <glyph glyph-name="q" unicode="q" horiz-adv-x="575" 
d="M505 445l-0.00195312 -644.999h-50v270c-22.667 -38 -51.167 -65 -85.5 -81s-72.5 -24 -114.5 -24c-33.333 0 -63.666 6.33301 -90.999 19s-50.333 30 -69 52c-19.333 22 -34.166 47.5 -44.499 76.5s-15.5 59.833 -15.5 92.5c0 32 4.83301 63 14.5 93
s23.834 56.667 42.501 80c18.667 22.667 41.667 41.167 69 55.5s58.666 21.5 93.999 21.5c44.667 0 84 -9.5 118 -28.5s62 -44.5 84 -76.5l-1 70c0 10.667 4.66699 17.667 14 21s21 4.66602 35 3.99902zM84.998 210.001c0 -60 15.1641 -109.167 45.4971 -147.5
s76.833 -57.5 139.5 -57.5c29.333 0 55.5 5.5 78.5 16.5s42.5 25.833 58.5 44.5c15.333 18.667 27.166 40.334 35.499 65.001s12.5 51 12.5 79c0 24.667 -3.83301 49.167 -11.5 73.5s-19.167 46.5 -34.5 66.5c-15.333 19.333 -34.666 35 -57.999 47s-50.333 18 -81 18
c-31.333 0 -58.666 -5.66699 -81.999 -17s-42.666 -26.333 -57.999 -45s-26.666 -40.334 -33.999 -65.001s-11 -50.667 -11 -78z" />
    <glyph glyph-name="r" unicode="r" horiz-adv-x="420" 
d="M65 -55l-0.000976562 499.999c13.333 0.666992 24.833 -0.666016 34.5 -3.99902s14.5 -10.333 14.5 -21l-1 -110c8 22.667 19.333 43 34 61s31.334 33.333 50.001 46c18 12 37.333 21.333 58 28s40.667 10 60 10c12 0 26.333 -1.16699 43 -3.5s30.667 -4.5 42 -6.5
l-8 -45c-10 2 -22.167 4.16699 -36.5 6.5s-26.166 3.5 -35.499 3.5c-27.333 -0.666992 -53.333 -6.5 -78 -17.5s-46.334 -26.5 -65.001 -46.5c-19.333 -20 -34.5 -44 -45.5 -72s-16.5 -59.333 -16.5 -94v-235h-50z" />
    <glyph glyph-name="s" unicode="s" horiz-adv-x="435" 
d="M371 418l-3.00391 -26.0029c-19.333 6 -39 10.5 -59 13.5s-44.667 4.5 -74 4.5c-18.667 0 -36.667 -2.16699 -54 -6.5s-32.666 -10.166 -45.999 -17.499c-14 -7.33301 -25 -16.333 -33 -27s-12 -22 -12 -34c0 -13.333 4.16699 -25.166 12.5 -35.499
s19.166 -19.5 32.499 -27.5c12.667 -8 27 -15.167 43 -21.5s31.667 -12.166 47 -17.499l21 -8c15.333 -6 31.833 -13 49.5 -21s33.834 -17 48.501 -27c14.667 -10.667 26.834 -23.167 36.501 -37.5s14.5 -30.833 14.5 -49.5c0 -24.667 -5.5 -45.834 -16.5 -63.501
s-25.5 -32.167 -43.5 -43.5s-38.333 -19.666 -61 -24.999s-45.667 -8 -69 -8c-34.667 0 -64.667 2.16699 -90 6.5s-46 8.83301 -62 13.5c-4 0.666992 -6.5 2.66699 -7.5 6s-1.16699 7.66602 -0.5 12.999l3 27c24.667 -8 49.667 -14.333 75 -19s49.333 -7 72 -7
c17.333 0 34.833 1.5 52.5 4.5s33.834 8.16699 48.501 15.5c14 8 25.667 18 35 30s14 27 14 45c0 12.667 -4.16699 24.167 -12.5 34.5s-18.833 19.833 -31.5 28.5c-13.333 8.66699 -28.166 16.834 -44.499 24.501l-49.5 22.5l-18 5c-16 6 -32.667 12.833 -50 20.5
s-33.333 16.167 -48 25.5c-14.667 10 -26.834 21 -36.501 33s-14.5 25.667 -14.5 41c0 23.333 5.33301 43.833 16 61.5s25.334 32.167 44.001 43.5s40 20 64 26s49.333 9 76 9c22 0 43.5 -1.66699 64.5 -5l55.5 -9c4.66699 -1.33301 7.66699 -3.33301 9 -6s2 -6.66699 2 -12
z" />
    <glyph glyph-name="t" unicode="t" horiz-adv-x="390" 
d="M310 -13c4.66699 0 9.33203 0.333984 13.999 1.00098l14 2c4.66699 0.666992 8.83398 1.5 12.501 2.5l9.50098 2.5l2 -27c0 -4.66699 -0.5 -8.5 -1.5 -11.5s-3.16699 -4.83301 -6.5 -5.5c-8 -2 -17.667 -3.5 -29 -4.5s-21.333 -1.5 -30 -1.5
c-42.667 0 -78.334 11 -107.001 33s-43 56 -43 102v313h-125v42h125v160h50v-160h155c-0.666992 -10 -3 -19.5 -7 -28.5s-10.333 -13.5 -19 -13.5h-129v-293c0 -45.333 9.66699 -75.833 29 -91.5s48 -22.834 86 -21.501z" />
    <glyph glyph-name="u" unicode="u" horiz-adv-x="570" 
d="M505 405v-413.999c0 -10.667 0.333008 -19.834 1 -27.501s1.66699 -13.834 3 -18.501c-8 -2 -18.167 -1.83301 -30.5 0.5s-18.5 8.83301 -18.5 19.5v75c-14 -21.333 -29.5 -38.666 -46.5 -51.999s-34.5 -23.333 -52.5 -30c-18 -7.33301 -36.167 -12.166 -54.5 -14.499
s-35.5 -3.5 -51.5 -3.5c-60 0 -108.333 18.667 -145 56s-55 88.666 -55 153.999v295c12 0 23.333 -3 34 -9s16 -16.333 16 -31v-225c0 -70 13.5 -120.833 40.5 -152.5s66.833 -47.5 119.5 -47.5c62 0 109.167 19.833 141.5 59.5s48.5 93.167 48.5 160.5v245
c12 0 23.333 -3 34 -9s16 -16.333 16 -31z" />
    <glyph glyph-name="v" unicode="v" horiz-adv-x="540" 
d="M275 -25l160.001 430c5.33301 15.333 13.166 25.833 23.499 31.5s22.5 8.5 36.5 8.5h10l-50 -125.5l-48 -125.5l-48.5 -125.5l-48.5 -123.5h-75l-50 123l-50 127l-51 126l-49 124h17c10 0 19 -2 27 -6s15.667 -12 23 -24z" />
    <glyph glyph-name="w" unicode="w" horiz-adv-x="770" 
d="M363 410l154.999 -430.001c10 31.333 21.833 65.833 35.5 103.5l42.5 115.5l41.5 115.5l37.5 105.5c6 12 12.5 19.167 19.5 21.5s16.167 3.5 27.5 3.5h18l-186 -500h-72l-24 63.5l-24 65.5l-24.5 65.5l-24.5 66.5l-25.5 -66.5l-24.5 -65.5l-24 -65.5l-23 -63.5h-72
l-186 500h18c10.667 0 19.5 -1.16699 26.5 -3.5s13.833 -9.5 20.5 -21.5l36.5 -105.5l41.5 -115.5l42.5 -115.5l36.5 -103.5l107 296c-11.333 28 -22.166 56.167 -32.499 84.5l-29.5 84.5h11c13.333 0 24.333 -2.16699 33 -6.5s16 -14.166 22 -29.499v1z" />
    <glyph glyph-name="x" unicode="x" horiz-adv-x="510" 
d="M254 237l144 185c5.33301 6.66699 12.5 12.167 21.5 16.5s18.833 6.5 29.5 6.5h18l-53 -70.5l-46 -60.5l-43 -56l-43 -56l56 -73.5l49 -62.5l46.5 -59l48.5 -62h-60l-168 221l-51.5 -66.5l-42.5 -53.5l-39.5 -48.5l-40.5 -52.5h-52l199 257l-184 243h28
c10 0 18.5 -1.5 25.5 -4.5s13.5 -7.83301 19.5 -14.5l37.5 -53.5l35.5 -48.5l33.5 -45.5z" />
    <glyph glyph-name="y" unicode="y" horiz-adv-x="540" 
d="M245 -20c1.33301 2.66699 1.49902 6.66895 0.499023 12.002s-2.83301 11 -5.5 17c-2 6.66699 -4.5 13 -7.5 19s-5.5 11.667 -7.5 17l-47 97.5l-49 102.5l-49 101.5l-46 98.5h16c10.667 0 20.167 -1.83301 28.5 -5.5s15.5 -11.834 21.5 -24.501l175 -379l37 86.5l44 99.5
l43.5 100l38.5 88c6.66699 14 15 23.333 25 28s21.667 7 35 7h8l-206 -450l-30.5 -63c-11 -22 -23.5 -42.667 -37.5 -62c-14.667 -18.667 -30.667 -34.5 -48 -47.5s-37 -20.5 -59 -22.5c-6 0 -13.333 0.333008 -22 1s-15.667 2 -21 4
c-2.66699 0.666992 -4.16699 2.33398 -4.5 5.00098s-0.166016 6.33398 0.500977 11.001c0 4 0.166992 8.5 0.5 13.5s0.833008 9.5 1.5 13.5l4 -2c1.33301 -0.666992 3 -1 5 -1c1.33301 -0.666992 3.33301 -1.33398 6 -2.00098s6 -1 10 -1
c23.333 -0.666992 42.833 4.16602 58.5 14.499s28.834 23.166 39.501 38.499c10 14.667 18.167 30 24.5 46s12.166 29 17.499 39z" />
    <glyph glyph-name="z" unicode="z" horiz-adv-x="500" 
d="M445 385l-362 -398h377c-0.666992 -10 -3 -19.5 -7 -28.5s-10.333 -13.5 -19 -13.5h-389v60l357 398h-342v42h385v-60z" />
    <glyph glyph-name="braceleft" unicode="{" horiz-adv-x="370" 
d="M305 745v-38.0029h-30c-28.667 0 -47.5 -9.83301 -56.5 -29.5s-13.5 -40.5 -13.5 -62.5v-195c0 -18.667 -3.16699 -34.667 -9.5 -48s-14.166 -24.666 -23.499 -33.999c-8.66699 -9.33301 -18 -16.666 -28 -21.999s-18.333 -9 -25 -11l25 -12.5
c10 -5 19.333 -11.833 28 -20.5c9.33301 -8.66699 17.166 -19.667 23.499 -33s9.5 -29.666 9.5 -48.999v-195c0 -22.667 4.5 -43.667 13.5 -63s27.833 -29 56.5 -29h30v-38h-55c-20 0 -40 9.16699 -60 27.5s-30 45.833 -30 82.5v199c0 32 -10.5 57.833 -31.5 77.5
s-42.167 32.5 -63.5 38.5v30c22 4 43.333 16 64 36s31 46 31 78v201c0 36 10 63.333 30 82s40 28 60 28h55z" />
    <glyph glyph-name="bar" unicode="|" horiz-adv-x="300" 
d="M132 -140v890h36v-890h-36z" />
    <glyph glyph-name="braceright" unicode="}" horiz-adv-x="370" 
d="M65 707v38.0029h55c19.333 0 39.166 -9.33301 59.499 -28s30.5 -46 30.5 -82v-201c0 -32 10.167 -58 30.5 -78s41.833 -32 64.5 -36v-30c-22 -6 -43.333 -18.833 -64 -38.5s-31 -45.5 -31 -77.5v-199c0 -36.667 -10.167 -64.167 -30.5 -82.5s-40.166 -27.5 -59.499 -27.5
h-55v38h30c28 0 46.667 9.66699 56 29s14 40.333 14 63v195c0 19.333 3.16699 35.666 9.5 48.999s13.833 24.333 22.5 33c9.33301 8.66699 18.833 15.5 28.5 20.5s18.167 9.16699 25.5 12.5c-7.33301 2 -15.833 5.66699 -25.5 11s-19.167 12.666 -28.5 21.999
c-8.66699 9.33301 -16.167 20.666 -22.5 33.999s-9.5 29.333 -9.5 48v195c0 22 -4.66699 42.833 -14 62.5s-28 29.5 -56 29.5h-30z" />
    <glyph glyph-name="asciitilde" unicode="~" horiz-adv-x="600" 
d="M409 288c20.667 0 37.667 5.66699 51 17s26 24.333 38 39l22 -38c-10 -18.667 -24.167 -35 -42.5 -49s-41.5 -21 -69.5 -21c-21.333 0 -42.333 3.33301 -63 10s-39.334 14.334 -56.001 23.001c-9.33301 3.33301 -18.166 6.83301 -26.499 10.5l-24.5 10.5
c-8 2.66699 -16 5 -24 7s-15.667 3 -23 3c-21.333 0 -38.666 -5.83301 -51.999 -17.5s-25.333 -24.5 -36 -38.5c-2 2.66699 -4 5.66699 -6 9l-6 10c-2 2.66699 -4 5.66699 -6 9s-3.66699 6.66602 -5 9.99902c10 18 24.167 34.167 42.5 48.5s41.5 21.5 69.5 21.5
c16 0 33.333 -3.16699 52 -9.5s40.667 -14.5 66 -24.5l24 -10l24 -10c8 -2.66699 16.167 -5 24.5 -7s17.166 -3 26.499 -3z" />
    <glyph glyph-name="uni00A0" unicode="&#xa0;" horiz-adv-x="300" 
 />
    <glyph glyph-name="exclamdown" unicode="&#xa1;" horiz-adv-x="400" 
d="M165 -50l15 520h40l15 -520h-70zM230 662v-62h-60v62h60z" />
    <glyph glyph-name="cent" unicode="&#xa2;" horiz-adv-x="679" 
d="M160 -100l37.9971 114.998c-38 30.667 -67.167 71 -87.5 121s-30.5 107.667 -30.5 173c0 56.667 8.16699 107.667 24.5 153s38.5 83.666 66.5 114.999c28.667 32 62.334 56.333 101.001 73s80.334 25 125.001 25c2.66699 0 5.5 -0.166992 8.5 -0.5s6.16699 -0.5 9.5 -0.5
l22 66h82l-27 -82c16 -6 31.5 -13.167 46.5 -21.5s29.167 -17.166 42.5 -26.499c4.66699 -4 8.83398 -8.5 12.501 -13.5s5.5 -10.5 5.5 -16.5s-2.66699 -12.5 -8 -19.5s-14 -17.167 -26 -30.5c-14 12 -28.833 23.5 -44.5 34.5s-32.5 20.167 -50.5 27.5l-180 -546
c16 -11.333 33.333 -19.666 52 -24.999s38.334 -8 59.001 -8c30 0 60 8 90 24s55 34 75 54l27 -37c2 -2.66699 3.5 -5.16699 4.5 -7.5s1.5 -4.5 1.5 -6.5c0 -6.66699 -2.5 -12.667 -7.5 -18s-10.5 -10 -16.5 -14c-22.667 -18 -49 -32.833 -79 -44.5s-62 -17.5 -96 -17.5
c-24.667 0 -48.167 2.33301 -70.5 7s-43.5 11.334 -63.5 20.001l-12 -38c-4 -11.333 -10.833 -20 -20.5 -26s-20.834 -9 -33.501 -9h-40zM178.997 308.998c0 -40 4.33301 -76.833 13 -110.5s21 -63.167 37 -88.5l164 497c-32.667 -1.33301 -62.167 -9.33301 -88.5 -24
s-48.833 -35 -67.5 -61s-33 -57 -43 -93s-15 -76 -15 -120z" />
    <glyph glyph-name="sterling" unicode="&#xa3;" horiz-adv-x="725" 
d="M423 -40l-371.999 0.000976562v84h78c1.33301 2.66699 4 9.83398 8 21.501s8 26.167 12 43.5c4 16.667 7.5 35.167 10.5 55.5s4.5 40.5 4.5 60.5c0 12 -0.833008 24.167 -2.5 36.5s-3.5 24.5 -5.5 36.5h-66v56h60c-0.666992 5.33301 -1.33398 11 -2.00098 17l-2 18
c-0.666992 6.66699 -1.16699 13.5 -1.5 20.5s-0.5 14.167 -0.5 21.5c0 84 21.667 149.167 65 195.5s102 69.5 176 69.5c26 0 52.833 -4.5 80.5 -13.5s52.834 -21.5 75.501 -37.5c22 -16.667 40.333 -37.167 55 -61.5s22.667 -51.833 24 -82.5h-98
c0 9.33301 -2.66699 20.333 -8 33s-13.333 24.667 -24 36s-24.167 21 -40.5 29s-35.833 12 -58.5 12c-32.667 0 -61 -8.66699 -85 -26s-39.667 -39 -47 -65c-2 -5.33301 -4 -18.166 -6 -38.499s-3 -43.5 -3 -69.5c0 -10.667 0.166992 -20.834 0.5 -30.501
s1.16602 -18.834 2.49902 -27.501h260v-56h-252l2 -35.5c0.666992 -11.667 1 -23.167 1 -34.5c0 -38.667 -3.33301 -75.334 -10 -110.001s-13.667 -59.667 -21 -75h223c12 0 24.333 0.166992 37 0.5s25.334 1.5 38.001 3.5c14 1.33301 25.167 6.33301 33.5 15
s14.833 18 19.5 28c4 10.667 6.66699 21.167 8 31.5s2 18.5 2 24.5h81c0 -45.333 -6.83301 -80.5 -20.5 -105.5s-32.167 -43.5 -55.5 -55.5c-22.667 -12 -49.334 -19.167 -80.001 -21.5s-62.667 -3.5 -96 -3.5z" />
    <glyph glyph-name="currency" unicode="&#xa4;" horiz-adv-x="900" 
d="M151 305c0 36 6.49902 71.332 19.499 105.999s31.5 66.334 55.5 95.001l-64 64l-46 47l21 22l110 -113c28 24 59.5 43.167 94.5 57.5s71.167 21.5 108.5 21.5c36.667 0 72.334 -7 107.001 -21s66.334 -32.667 95.001 -56l30 31l33 33l46 47l21 -22l-110 -110
c23.333 -28.667 42.166 -60.5 56.499 -95.5s21.5 -70.5 21.5 -106.5c0 -38 -7 -74.167 -21 -108.5s-33 -65.5 -57 -93.5l110 -110l-21 -22l-109 111c-29.333 -24 -61.333 -42.667 -96 -56s-70 -20 -106 -20c-38 0 -74.333 6.83301 -109 20.5s-66 32.5 -94 56.5l-64 -65
l-46 -47l-21 22l111 112c-24 28 -42.667 59.167 -56 93.5s-20 69.833 -20 106.5zM185.999 304.999c0 -37.333 6.83301 -72 20.5 -104s32.167 -60 55.5 -84c24 -23.333 52 -41.833 84 -55.5s66.667 -20.5 104 -20.5c36.667 0 71 6.83301 103 20.5s60 32.167 84 55.5
c24 24 43 52 57 84s21 66.667 21 104c0 36.667 -7 71 -21 103s-33 60 -57 84s-52 43 -84 57s-66.333 21 -103 21c-37.333 0 -72 -7 -104 -21s-60 -33 -84 -57c-23.333 -24 -41.833 -52 -55.5 -84s-20.5 -66.333 -20.5 -103z" />
    <glyph glyph-name="yen" unicode="&#xa5;" horiz-adv-x="708" 
d="M576 216v-67h-175v-158c0 -9.33301 -4.5 -16.833 -13.5 -22.5s-20.5 -8.5 -34.5 -8.5h-46v189h-176v28c0 12 4.33301 21.5 13 28.5s20.667 10.5 36 10.5h127v29l-30 54h-146v28c0 12 4.33301 21.5 13 28.5s20.667 10.5 36 10.5h61l-161 294h100l157 -294h36l132 249
c13.333 22 29.333 35 48 39s43.667 6 75 6l-162 -294h110v-67h-147l-28 -52v-31h175z" />
    <glyph glyph-name="section" unicode="&#xa7;" horiz-adv-x="600" 
d="M296 691c22 0 41.6699 -3.83301 59.0029 -11.5s32 -18.5 44 -32.5c5.33301 -8 9.83301 -15.667 13.5 -23s5.5 -14 5.5 -20s-1.16699 -10.833 -3.5 -14.5s-5.5 -6.83398 -9.5 -9.50098c-8 -5.33301 -15.5 -7 -22.5 -5s-13.5 7.33301 -19.5 16
c-8 13.333 -12.667 24.5 -14 33.5s-3.33301 16.5 -6 22.5c-2.66699 5.33301 -7.83398 9.33301 -15.501 12s-20.834 4.66699 -39.501 6c-21.333 0 -37.333 -6.5 -48 -19.5s-16 -31.5 -16 -55.5c0 -26.667 9.83301 -53.667 29.5 -81s47.5 -54.333 83.5 -81
c31.333 -24 56.666 -52.167 75.999 -84.5s28 -63.166 26 -92.499c-1.33301 -15.333 -7 -29.666 -17 -42.999s-27.667 -23.666 -53 -30.999c14.667 -18.667 28 -37.834 40 -57.501s18 -39.167 18 -58.5c0 -18 -3.5 -35.333 -10.5 -52s-16.5 -31.334 -28.5 -44.001
s-25.833 -22.667 -41.5 -30s-32.167 -10.666 -49.5 -9.99902c-22.667 0 -43 3.83301 -61 11.5s-33.667 18.834 -47 33.501c-10 11.333 -16.5 22.166 -19.5 32.499s-2.16699 19.5 2.5 27.5c4 7.33301 9.16699 12 15.5 14s13.166 2 20.499 0
c8 -5.33301 13.667 -11.666 17 -18.999s5.66602 -14.666 6.99902 -21.999c2 -6.66699 3.5 -13 4.5 -19s3.5 -10 7.5 -12c16 -12 34.333 -17.5 55 -16.5s37.667 9.83301 51 26.5c8.66699 12 14.334 25.333 17.001 40s2 29 -2 43c-6 16 -15.5 32.167 -28.5 48.5
s-27.167 31.166 -42.5 44.499c-18 14 -36.167 29.833 -54.5 47.5s-35.5 36.5 -51.5 56.5c-10 11.333 -17.167 23.166 -21.5 35.499s-7.16602 25.166 -8.49902 38.499c-2.66699 20 0.833008 38.333 10.5 55s22.167 27 37.5 31c6 1.33301 11.333 2.33301 16 3s8.66699 1 12 1
c3.33301 0.666992 6.5 1 9.5 1h9.5l-32 40c-10 12.667 -18.167 27.5 -24.5 44.5s-10.5 35.5 -12.5 55.5c-4 36 5.33301 65.667 28 89s50.667 35 84 35zM263.003 398c-15.333 2.66699 -29.335 1.49902 -42.002 -3.50098s-19 -15.167 -19 -30.5c0 -14.667 3 -29 9 -43
s14 -26.667 24 -38c20.667 -26 42.334 -44.667 65.001 -56s39.667 -17 51 -17c20 0 33.833 4.33301 41.5 13s10.834 19 9.50098 31c-2 16.667 -7 30.834 -15 42.501s-17 23.5 -27 35.5c-7.33301 6.66699 -14.333 13.5 -21 20.5s-14 13.5 -22 19.5
c-7.33301 6 -15.5 11.167 -24.5 15.5s-18.833 7.83301 -29.5 10.5z" />
    <glyph glyph-name="dieresis" unicode="&#xa8;" horiz-adv-x="940" 
d="M195 245v80h80v-80h-80zM665 245v80h80v-80h-80z" />
    <glyph glyph-name="ordfeminine" unicode="&#xaa;" horiz-adv-x="900" 
d="M170 -45v40h560v-40h-560zM653 522l-0.00195312 -307.002c0 -14 1 -26.833 3 -38.5s4.33301 -21.5 7 -29.5l-46 -1c-4 8.66699 -6.5 20.834 -7.5 36.501s-1.5 36.167 -1.5 61.5c-28 -38.667 -57.167 -67 -87.5 -85s-70.5 -27.667 -120.5 -29s-90.833 10.667 -122.5 36
s-47.5 62.333 -47.5 111c0 25.333 5.5 46.833 16.5 64.5s25.833 32.167 44.5 43.5c19.333 12 41.666 21.167 66.999 27.5s52.666 11.5 81.999 15.5c22.667 2 44.834 4.83301 66.501 8.5s42.834 10.5 63.501 20.5c12.667 6 22.167 14.167 28.5 24.5s9.5 22.833 9.5 37.5
c0 20.667 -5.16699 38.334 -15.5 53.001s-23.166 26.667 -38.499 36s-32.5 16.333 -51.5 21s-37.167 7 -54.5 7c-16.667 0 -33.5 -2 -50.5 -6s-32.5 -10.333 -46.5 -19s-26 -19.667 -36 -33s-16 -29 -18 -47h-48c2 22.667 9.33301 43 22 61s28 33.333 46 46
c18.667 12 39.334 21.333 62.001 28s45.667 10 69 10c21.333 0 44 -3.16699 68 -9.5s46.333 -15.833 67 -28.5c20 -12.667 36.667 -28.667 50 -48s20 -42 20 -68zM607.998 324.998l-0.00195312 125.003c-16 -12.667 -31.167 -22.334 -45.5 -29.001
s-28.166 -11.667 -41.499 -15c-12.667 -4 -25.167 -6.66699 -37.5 -8s-24.166 -2.33301 -35.499 -3c-20 -2.66699 -40.5 -6.66699 -61.5 -12s-39.833 -13.333 -56.5 -24s-29.5 -24.334 -38.5 -41.001s-11.5 -37.334 -7.5 -62.001c4 -28 18.5 -49.5 43.5 -64.5
s52.5 -21.5 82.5 -19.5s57.667 7.83301 83 17.5s47 23.167 65 40.5c16.667 16.667 29.167 33 37.5 49s12.5 31.333 12.5 46z" />
    <glyph glyph-name="guillemotleft" unicode="&#xab;" horiz-adv-x="655" 
d="M399 -88h-102l-233 419l233 412h102l-237 -412zM599 -88h-102l-233 419l233 412h102l-237 -412z" />
    <glyph glyph-name="uni00AD" unicode="&#xad;" horiz-adv-x="900" 
d="M186 268v46h528v-46h-528z" />
    <glyph glyph-name="registered" unicode="&#xae;" horiz-adv-x="1000" 
d="M325 38v524.001h184c26.667 0 52 -2.16699 76 -6.5s45 -11.5 63 -21.5c18 -10.667 32.333 -24.834 43 -42.501s16 -40.167 16 -67.5s-12 -51.833 -36 -73.5s-52.333 -37.5 -85 -47.5c13.333 -8.66699 25.5 -18 36.5 -28s19.5 -20.333 25.5 -31
c7.33301 -18 15 -35.667 23 -53l24 -52l11.5 -25.5c3.66699 -8.33301 7.16699 -16.833 10.5 -25.5s7 -17.167 11 -25.5l12 -24.5h-69l-77 182c-12 25.333 -26.667 41.333 -44 48s-36 10 -56 10h-110v-240h-59zM384 510.001v-181h132c38 0 69.5 9.16699 94.5 27.5
s37.5 41.5 37.5 69.5c0 26 -10.667 46.5 -32 61.5s-51 22.5 -89 22.5h-143zM60 300.001c0 60 11.5 116.667 34.5 170s54.5 100 94.5 140s86.667 71.667 140 95s110.333 35 171 35c60 0 116.667 -11.667 170 -35s100 -55 140 -95s71.667 -86.667 95 -140s35 -110 35 -170
c0 -60.667 -11.667 -117.667 -35 -171s-55 -100 -95 -140s-86.667 -71.5 -140 -94.5s-110 -34.5 -170 -34.5c-60.667 0 -117.667 11.5 -171 34.5s-100 54.5 -140 94.5s-71.5 86.667 -94.5 140s-34.5 110.333 -34.5 171zM100 300.001c0 -55.333 10.333 -107.333 31 -156
s49.334 -91 86.001 -127c36 -36.667 78.333 -65.334 127 -86.001s100.667 -31 156 -31c54.667 0 106.334 10.333 155.001 31s91 49.334 127 86.001c36.667 36 65.5 78.333 86.5 127s31.5 100.667 31.5 156c0 54.667 -10.5 106.334 -31.5 155.001s-49.833 91 -86.5 127
c-36 36.667 -78.333 65.5 -127 86.5s-100.334 31.5 -155.001 31.5c-55.333 0 -107.333 -10.5 -156 -31.5s-91 -49.833 -127 -86.5c-36.667 -36 -65.334 -78.333 -86.001 -127s-31 -100.334 -31 -155.001z" />
    <glyph glyph-name="degree" unicode="&#xb0;" horiz-adv-x="500" 
d="M10 660c0 24 8.33301 44.167 25 60.5s37 24.5 61 24.5s44.167 -8.16699 60.5 -24.5s24.5 -36.5 24.5 -60.5s-8.16699 -44.333 -24.5 -61s-36.5 -25 -60.5 -25s-44.333 8.33301 -61 25s-25 37 -25 61zM41 660c0 -16 5.16699 -29.167 15.5 -39.5s23.5 -15.5 39.5 -15.5
c14.667 0 27.5 5.16699 38.5 15.5s16.5 23.5 16.5 39.5c0 14.667 -5.5 27.5 -16.5 38.5s-23.833 16.5 -38.5 16.5c-16 0 -29.167 -5.5 -39.5 -16.5s-15.5 -23.833 -15.5 -38.5z" />
    <glyph glyph-name="plusminus" unicode="&#xb1;" horiz-adv-x="900" 
d="M186 -10v40h528v-40h-528zM186 380v40h242v234h44v-234h242v-40h-242v-234h-44v234h-242z" />
    <glyph glyph-name="uni00B2" unicode="&#xb2;" horiz-adv-x="450" 
d="M122 759c26 0 48.668 -7.16602 68.001 -21.499s29 -33.833 29 -58.5c0 -16.667 -6.16699 -33.334 -18.5 -50.001s-25.166 -31.667 -38.499 -45c-10 -10 -22.833 -21.667 -38.5 -35s-31.5 -26 -47.5 -38h147c0 -8 -1.5 -15 -4.5 -21s-8.5 -9 -16.5 -9h-167v39
c8.66699 6 19 13.667 31 23s20.667 16.666 26 21.999c7.33301 6.66699 15.833 14.834 25.5 24.501l28.5 29.5c8.66699 10.667 16.167 21.5 22.5 32.5s9.5 21.5 9.5 31.5c0 12 -6 22.667 -18 32s-24.667 14 -38 14c-12 0 -24.333 -1.83301 -37 -5.5s-25 -9.16699 -37 -16.5
c-0.666992 2 -1.33398 3.83301 -2.00098 5.5s-1 3.16699 -1 4.5c-0.666992 2 -1 3.83301 -1 5.5v5.5c0 3.33301 0.833008 6.83301 2.5 10.5s4.5 6.5 8.5 8.5c10.667 4 21.667 7 33 9s22.666 3 33.999 3z" />
    <glyph glyph-name="uni00B3" unicode="&#xb3;" horiz-adv-x="450" 
d="M37 710l-1.99902 22.001c-0.666992 4 0 7.5 2 10.5s5 5.5 9 7.5c10 3.33301 20.5 5.66602 31.5 6.99902s22.167 2 33.5 2c25.333 0 48 -5.83301 68 -17.5s30 -30.167 30 -55.5c0 -11.333 -5.33301 -22.666 -16 -33.999s-23 -21 -37 -29
c17.333 -7.33301 31 -17.333 41 -30s15 -26 15 -40c0 -28.667 -12 -48.5 -36 -59.5s-50 -16.5 -78 -16.5c-11.333 0 -22.333 0.5 -33 1.5s-20.667 3.5 -30 7.5c-4 1.33301 -7 3.66602 -9 6.99902s-2.66699 7 -2 11v4v5c0 2 0.166992 4 0.5 6s0.5 4.33301 0.5 7
c13.333 -7.33301 25.833 -12.333 37.5 -15s22.834 -4 33.501 -4c21.333 0 39.333 4.16699 54 12.5s22 19.5 22 33.5c0 18.667 -8.66699 32.5 -26 41.5s-34.333 13.5 -51 13.5h-34v30h34c6.66699 0 14.167 1 22.5 3s16.166 5.33301 23.499 10c7.33301 4 13.666 9 18.999 15
s8 12.667 8 20c0 15.333 -6.16699 26.333 -18.5 33s-25.5 10 -39.5 10c-12.667 0 -25 -1.66699 -37 -5s-24 -8 -36 -14z" />
    <glyph glyph-name="acute" unicode="&#xb4;" horiz-adv-x="400" 
d="M120 506l-5 4c4.66699 15.333 12.667 37.833 24 67.5s23 57.5 35 83.5c4 8.66699 9.16699 18.5 15.5 29.5s12.5 20.5 18.5 28.5c4.66699 6.66699 11.5 11.334 20.5 14.001s17.167 2 24.5 -2c6 -4 9.5 -10.333 10.5 -19s0.166992 -16.334 -2.5 -23.001l-16 -30.5
c-6.66699 -12.333 -12.667 -21.5 -18 -27.5l-62 -77.5c-19.333 -23 -34.333 -38.833 -45 -47.5z" />
    <glyph glyph-name="paragraph" unicode="&#xb6;" horiz-adv-x="800" 
d="M343 702l197 -0.000976562v-814h-32v779h-116v-779h-32v451c-60 4 -106.667 21.333 -140 52s-50 74.667 -50 132c0 24 4.5 46.667 13.5 68s21.5 40.333 37.5 57s34.5 29.834 55.5 39.501s43.167 14.5 66.5 14.5z" />
    <glyph glyph-name="periodcentered" unicode="&#xb7;" horiz-adv-x="400" 
d="M160 245v80h80v-80h-80z" />
    <glyph glyph-name="cedilla" unicode="&#xb8;" horiz-adv-x="400" 
d="M150 150l136.001 -140l-136 -140c-3.33301 2.66699 -6.5 5.5 -9.5 8.5s-6.16699 5.83301 -9.5 8.5l-8 8c-2.66699 2.66699 -5.33398 5.66699 -8.00098 9l113 106l-27 25.5l-29 27.5l-29.5 26.5l-27.5 26.5z" />
    <glyph glyph-name="uni00B9" unicode="&#xb9;" horiz-adv-x="450" 
d="M95 711l-18 -18c-3.33301 -3.33301 -6.5 -7 -9.5 -11s-5.83301 -8 -8.5 -12v1l-1 -1l-13 17c-3.33301 4 -4.83301 7.83301 -4.5 11.5s1.83301 7.16699 4.5 10.5l53 46h38v-277h-41v233z" />
    <glyph glyph-name="ordmasculine" unicode="&#xba;" horiz-adv-x="900" 
d="M670 403c0 -35.333 -4.33398 -69.333 -13.001 -102s-21.667 -61.667 -39 -87c-18 -26 -40.833 -46.5 -68.5 -61.5s-60.834 -22.5 -99.501 -22.5c-37.333 0 -69.666 7.33301 -96.999 22s-50.333 34.334 -69 59.001c-18 25.333 -31.5 54.5 -40.5 87.5
s-13.5 67.833 -13.5 104.5c0 34 4.33301 67.333 13 100s22 61.667 40 87s40.833 46 68.5 62s60.5 24 98.5 24c36.667 0 68.834 -7.33301 96.501 -22s50.5 -34.334 68.5 -59.001c18 -25.333 31.667 -54.5 41 -87.5s14 -67.833 14 -104.5zM623.999 403
c0 26.667 -3.33301 53.6709 -10 81.0039s-17 52.333 -31 75s-32 41.167 -54 55.5s-48.333 21.5 -79 21.5c-30 0 -55.833 -7.16699 -77.5 -21.5s-39.834 -32.5 -54.501 -54.5c-14 -22.667 -24.5 -47.834 -31.5 -75.501s-10.5 -54.834 -10.5 -81.501
c0 -25.333 3.33301 -51.833 10 -79.5s17 -52.834 31 -75.501s32 -41.334 54 -56.001s48.333 -22 79 -22c30 0 55.833 6.83301 77.5 20.5s39.834 31.5 54.501 53.5c14 22 24.5 47 31.5 75s10.5 56 10.5 84zM169.999 -44.9961v40h560v-40h-560z" />
    <glyph glyph-name="guillemotright" unicode="&#xbb;" horiz-adv-x="655" 
d="M366 -88h-102l237 419l-237 412h102l233 -412zM166 -88h-102l237 419l-237 412h102l233 -412z" />
    <glyph glyph-name="onequarter" unicode="&#xbc;" horiz-adv-x="900" 
d="M476 -133v78h-178v33l27 39.5l46 66.5l48 70l34 51h67v-228h47c0 -9.33301 -1.16699 -17 -3.5 -23s-7.83301 -9 -16.5 -9h-27v-78h-44zM115 290v30h672v-30h-672zM437 683l-30 -23c-2 -2 -4.83301 -5.5 -8.5 -10.5l-11.5 -16.5l-14 19c-4 4 -6 7.83301 -6 11.5
s2 7.16699 6 10.5l65 56h42v-338h-43v291zM476 -23v194l-33 -45l-37 -52l-36.5 -51.5l-31.5 -45.5h138z" />
    <glyph glyph-name="onehalf" unicode="&#xbd;" horiz-adv-x="900" 
d="M447 215c32 0 59.501 -8.66406 82.501 -25.9971s34.5 -41 34.5 -71c0 -20.667 -7.66699 -41.334 -23 -62.001s-31 -39 -47 -55c-10 -10 -25.667 -24 -47 -42s-44.333 -36.333 -69 -55h191c-0.666992 -8 -2.5 -15 -5.5 -21s-8.5 -9 -16.5 -9h-205v43
c10 7.33301 22 16.833 36 28.5s25 21.167 33 28.5l33 30.5c12.667 11.667 24.667 24.167 36 37.5c10.667 13.333 20 26.833 28 40.5s12 27.167 12 40.5c0 15.333 -7.83301 29.5 -23.5 42.5s-32.5 19.5 -50.5 19.5c-14.667 0 -29.167 -2.33301 -43.5 -7
s-29.166 -11.334 -44.499 -20.001c-0.666992 1.33301 -1.33398 2.83301 -2.00098 4.5s-1.33398 3.5 -2.00098 5.5c0 1.33301 -0.166992 3 -0.5 5s-0.5 4 -0.5 6c-0.666992 4 0 8 2 12s5 7 9 9c12.667 5.33301 26.167 9.16602 40.5 11.499s28.5 3.5 42.5 3.5z
M115.001 290.003v30h672v-30h-672zM437.001 683.003l-30 -23c-2 -2 -4.83301 -5.5 -8.5 -10.5l-11.5 -16.5l-14 19c-4 4 -6 7.83301 -6 11.5s2 7.16699 6 10.5l65 56h42v-338h-43v291z" />
    <glyph glyph-name="threequarters" unicode="&#xbe;" horiz-adv-x="900" 
d="M476 -133v78h-178v33l27 39.5l46 66.5l48 70l34 51h67v-228h47c0 -9.33301 -1.16699 -17 -3.5 -23s-7.83301 -9 -16.5 -9h-27v-78h-44zM476 -23v194l-33 -45l-37 -52l-36.5 -51.5l-31.5 -45.5h138zM355 684l-0.99707 22.002c-0.666992 4 0 7.5 2 10.5s5 5.5 9 7.5h-1
c12 4 25 6.83301 39 8.5s28 2.5 42 2.5c31.333 0 59 -7.16699 83 -21.5s36 -36.5 36 -66.5c0 -13.333 -7.16699 -27.333 -21.5 -42s-30.5 -27 -48.5 -37c22.667 -9.33301 40.667 -21.833 54 -37.5s20 -32.167 20 -49.5s-4.16699 -32 -12.5 -44s-18.833 -21.333 -31.5 -28
c-13.333 -7.33301 -28.333 -12.5 -45 -15.5s-33.334 -4.5 -50.001 -4.5c-14.667 0 -28.834 0.833008 -42.501 2.5s-25.5 4.5 -35.5 8.5c-4 1.33301 -7 3.66602 -9 6.99902s-2.66699 7 -2 11v5.5v5.5c0 2 0.166992 3.83301 0.5 5.5s0.5 3.5 0.5 5.5
c15.333 -8 30 -13.5 44 -16.5s27.667 -4.5 41 -4.5c28 0 51.5 5.83301 70.5 17.5s28.5 26.5 28.5 44.5c0 12.667 -3.16699 23.5 -9.5 32.5s-14.5 16.5 -24.5 22.5c-10 5.33301 -20.833 9.5 -32.5 12.5s-22.834 4.5 -33.501 4.5h-38v30h38c8.66699 0 18.5 1.5 29.5 4.5
s21.5 7.16699 31.5 12.5c9.33301 5.33301 17.333 12 24 20s10 17 10 27c0 20 -8.16699 34.667 -24.5 44s-33.5 14 -51.5 14c-16 0 -31.333 -1.83301 -46 -5.5s-29 -8.83398 -43 -15.501zM115.003 285.002v30h672v-30h-672z" />
    <glyph glyph-name="questiondown" unicode="&#xbf;" horiz-adv-x="940" 
d="M615 146l48.999 -0.00195312c-0.666992 -62.667 -18.667 -111.5 -54 -146.5s-83.666 -52.5 -144.999 -52.5c-23.333 0 -46.333 3.83301 -69 11.5s-42.667 18.5 -60 32.5c-18 14 -32.5 30.833 -43.5 50.5s-16.5 41.5 -16.5 65.5c0 38 10.333 71.5 31 100.5
s45.667 51.167 75 66.5c19.333 10 35.166 24.333 47.499 43s18.5 39.667 18.5 63v100h48v-97c0 -33.333 -7.5 -61.5 -22.5 -84.5s-34.833 -41.833 -59.5 -56.5l1 1c-28 -14.667 -50.5 -34.167 -67.5 -58.5s-25.5 -51.833 -25.5 -82.5c0 -19.333 4.5 -36 13.5 -50
s20.833 -25.667 35.5 -35c14 -9.33301 29.833 -16.166 47.5 -20.499s34.834 -6.5 51.501 -6.5c52 0 89.667 14.833 113 44.5s34 66.834 32 111.501zM499.999 667.998v-66h-60v66h60z" />
    <glyph glyph-name="AE" unicode="&#xc6;" horiz-adv-x="940" 
d="M112 -50h-54l75.5 175.5l74.5 174.5l74.5 173.5l76.5 176.5h484v-40h-384l119 -274h245v-40h-228l131 -306h127v-40h-161l-85 196h-412l-27 -62.5l-20 -48.5l-17.5 -42zM591 184l-191 435l-55.5 -128l-47.5 -110l-44 -100l-42 -97h380z" />
    <glyph glyph-name="Eth" unicode="&#xd0;" horiz-adv-x="850" 
d="M260 604l-0.000976562 -363.998h248v-45h-246v-199h154c46 0 86.5 8.16699 121.5 24.5s64.167 38.166 87.5 65.499c23.333 28 40.833 60.333 52.5 97s17.5 75.667 17.5 117c0 43.333 -6.16699 83.333 -18.5 120s-30.166 68.667 -53.499 96
c-23.333 26.667 -52.5 47.667 -87.5 63s-74.833 23.666 -119.5 24.999h-156zM209.999 -49.998v245.001h-158v45h158v410h212c49.333 -2.66699 93.833 -13.334 133.5 -32.001s73.5 -43.667 101.5 -75s49.667 -67.833 65 -109.5s23 -86.167 23 -133.5
c0 -52.667 -7.66699 -100.5 -23 -143.5s-36.666 -79.833 -63.999 -110.5c-28 -30.667 -61.833 -54.5 -101.5 -71.5s-83.834 -25.167 -132.501 -24.5h-214z" />
    <glyph glyph-name="multiply" unicode="&#xd7;" horiz-adv-x="900" 
d="M234 487l29 29l187 -187l187 187l29 -29l-187 -187l187 -187l-29 -29l-187 187l-187 -187l-29 29l187 187z" />
    <glyph glyph-name="Oslash" unicode="&#xd8;" horiz-adv-x="900" 
d="M640 581l101.003 138.998l29 -20l-105 -144c29.333 -33.333 51.833 -72.166 67.5 -116.499s23.5 -90.833 23.5 -139.5c0 -44.667 -6 -88 -18 -130s-30.667 -79.333 -56 -112c-24.667 -32.667 -56.334 -58.834 -95.001 -78.501s-84.334 -29.5 -137.001 -29.5
c-38 0 -72.333 5.16699 -103 15.5s-57.334 24.5 -80.001 42.5l-98 -134c-2 0.666992 -3.33301 1.33398 -4 2.00098l-2 2c-0.666992 0 -1.5 0.666992 -2.5 2s-2.83301 3 -5.5 5l-12 9l99 136c-34 33.333 -58.833 73.833 -74.5 121.5s-23.5 97.167 -23.5 148.5
c0 46 6.83301 90 20.5 132s33.5 79.333 59.5 112c26 32 58 57.667 96 77s81.333 29 130 29c38 0 73 -6.16699 105 -18.5s60.333 -29.166 85 -50.499zM450.003 605.998c-39.333 0 -75.001 -8.16504 -107.001 -24.498s-59.333 -38.5 -82 -66.5
c-23.333 -28 -41.166 -60.5 -53.499 -97.5s-18.5 -76.167 -18.5 -117.5c0 -40.667 6.5 -81.834 19.5 -123.501s33.5 -77.5 61.5 -107.5l343 474c-22 19.333 -46.667 34.666 -74 45.999s-57 17 -89 17zM450.002 -6c46.667 0 86.501 9.16895 119.501 27.502
s59.833 42.5 80.5 72.5c20.667 29.333 35.667 62.166 45 98.499s14.666 72.166 15.999 107.499c0 42 -6.5 81.667 -19.5 119s-31.167 70 -54.5 98l-343 -471c19.333 -16 41.833 -28.667 67.5 -38s55.167 -14 88.5 -14z" />
    <glyph glyph-name="Thorn" unicode="&#xde;" horiz-adv-x="700" 
d="M200 89v-183.998h-55v760h55v-235c10 20 22.833 37.167 38.5 51.5s32.5 26.166 50.5 35.499s36.167 16.166 54.5 20.499s35.5 6.5 51.5 6.5c35.333 0 67 -8.33301 95 -25s51.667 -38.667 71 -66c18.667 -26.667 33.167 -57 43.5 -91s15.5 -68.333 15.5 -103
c0 -31.333 -4.66699 -63.833 -14 -97.5s-23.333 -64.167 -42 -91.5c-18.667 -28 -42 -50.833 -70 -68.5s-61 -26.5 -99 -26.5c-16 0 -33 1.66699 -51 5s-35.667 9.66602 -53 18.999c-17.333 8.66699 -34 20.334 -50 35.001s-29.667 33 -41 55zM381 497.002
c-32 0 -59.5 -7.33203 -82.5 -21.999s-41.833 -33.334 -56.5 -56.001s-25.334 -48.167 -32.001 -76.5s-10 -56.166 -10 -83.499c0 -26.667 3.16699 -54 9.5 -82s16.5 -53.333 30.5 -76c14.667 -23.333 33.5 -42.333 56.5 -57s51.167 -22 84.5 -22
c30.667 0 57.334 7.16699 80.001 21.5s41.334 33.166 56.001 56.499c14.667 22.667 25.5 48 32.5 76s10.5 55.667 10.5 83c0 24.667 -3.33301 51 -10 79s-17 53.667 -31 77c-14.667 24 -33.334 43.667 -56.001 59s-50 23 -82 23z" />
    <glyph glyph-name="germandbls" unicode="&#xdf;" horiz-adv-x="700" 
d="M195 -70h-50.002v541c0 30.667 5.5 57.334 16.5 80.001s25.5 41.667 43.5 57c18 14.667 38.833 25.667 62.5 33s48.167 11 73.5 11c26.667 0 52.334 -3.5 77.001 -10.5s46.334 -17.167 65.001 -30.5c19.333 -12.667 35 -28.5 47 -47.5s19 -40.167 21 -63.5
c2 -36 -7.5 -70.333 -28.5 -103s-55.167 -56 -102.5 -70c50 -16 89.167 -40.333 117.5 -73s42.5 -74 42.5 -124c0 -32 -6.5 -59.5 -19.5 -82.5s-30.167 -41.5 -51.5 -55.5c-22 -14.667 -47 -25.334 -75 -32.001s-57.333 -10 -88 -10h-41v40h23c26.667 0 52 2.33301 76 7
s45 13 63 25c18 11.333 32.333 26.833 43 46.5s16 44.167 16 73.5c0 27.333 -5.5 50.666 -16.5 69.999s-26.167 35 -45.5 47c-18.667 12.667 -40.667 21.834 -66 27.501s-52 8.5 -80 8.5h-3v42c23.333 0 46 2.5 68 7.5s41.333 13.167 58 24.5
c16.667 10.667 30.167 25.167 40.5 43.5s15.5 40.5 15.5 66.5c0 45.333 -14.667 79.333 -44 102s-68.333 34 -117 34c-40 0 -73.5 -12.833 -100.5 -38.5s-40.5 -57.167 -40.5 -94.5v-552z" />
    <glyph glyph-name="ae" unicode="&#xe6;" horiz-adv-x="710" 
d="M495 -56c-20 0 -43.499 7.33594 -70.499 22.0029s-48.833 38 -65.5 70c0 -19.333 0.166992 -33.666 0.5 -42.999s0.833008 -15.333 1.5 -18l3 -15h-46c-0.666992 0.666992 -1.16699 1.66699 -1.5 3s-0.833008 2.66602 -1.5 3.99902s-1 2.66602 -1 3.99902v4l-0.5 1
c-0.333008 0.666992 -0.5 2.33398 -0.5 5.00098v12.5v24.5c-16.667 -24.667 -38.167 -42.834 -64.5 -54.501s-48.166 -18.167 -65.499 -19.5c-16.667 -1.33301 -32.667 0.5 -48 5.5s-29 12.5 -41 22.5s-21.5 22.167 -28.5 36.5s-10.5 30.5 -10.5 48.5
c0 30.667 5.33301 55.834 16 75.501s24 35.5 40 47.5c16.667 11.333 35 19.833 55 25.5s39.667 10.167 59 13.5c21.333 0 40.666 5.66699 57.999 17s26 29 26 53c0 26 -7.16699 50.167 -21.5 72.5s-38.166 33.5 -71.499 33.5c-26 0 -47.667 -10 -65 -30s-26 -46.333 -26 -79
h-52c0.666992 45.333 15.167 82.166 43.5 110.499s61.5 43.5 99.5 45.5c32 1.33301 61.167 -8.33398 87.5 -29.001s44.5 -49.334 54.5 -86.001c16 38 36.833 66.667 62.5 86s50.5 29 74.5 29c47.333 0 85.666 -21.167 114.999 -63.5s44.666 -106.5 45.999 -192.5h-275
c0 -62 10.833 -110.167 32.5 -144.5s48.834 -51.5 81.501 -51.5c26.667 0 46.667 8.83301 60 26.5s23 39.5 29 65.5h55c-14 -40 -32.833 -73 -56.5 -99s-52.834 -39 -87.501 -39zM312.001 92.0029l0.000976562 104.999c-16 -5.33301 -30.833 -9.83301 -44.5 -13.5
s-24.5 -5.5 -32.5 -5.5c-16 -2.66699 -31.667 -6.33398 -47 -11.001s-29 -11 -41 -19c-12 -8.66699 -21.5 -19.167 -28.5 -31.5s-10.5 -27.166 -10.5 -44.499c0 -24.667 9.5 -43.667 28.5 -57s38.5 -20 58.5 -20c12.667 0 26 2.5 40 7.5s26.667 12.167 38 21.5
c11.333 8.66699 20.666 18.834 27.999 30.501s11 24.167 11 37.5zM379.002 230.002l219.001 0.000976562c-1.33301 47.333 -10.333 86.333 -27 117s-42 46 -76 46c-14 0 -27.167 -4.33301 -39.5 -13s-23.833 -20.334 -34.5 -35.001c-10 -14.667 -18.833 -32 -26.5 -52
s-12.834 -41 -15.501 -63z" />
    <glyph glyph-name="eth" unicode="&#xf0;" horiz-adv-x="540" 
d="M230 258l-18.9971 24.001l130 111c-12.667 6 -25 11 -37 15s-23.333 6 -34 6c-30.667 0 -58.334 -9.83301 -83.001 -29.5s-42.667 -44.834 -54 -75.501h-56c20 48 46.5 83.833 79.5 107.5s70.833 35.5 113.5 35.5c16 0 32.167 -2.66699 48.5 -8
s33.833 -13.666 52.5 -24.999l94 81c3.33301 -3.33301 5.5 -5.83301 6.5 -7.5s2.16699 -2.83398 3.5 -3.50098c0.666992 -1.33301 1.5 -2.83301 2.5 -4.5s3.5 -3.83398 7.5 -6.50098l-86 -74c25.333 -24 45.666 -53.833 60.999 -89.5s23 -74.167 23 -115.5
c0 -34 -5.33301 -66.167 -16 -96.5s-25.334 -56.833 -44.001 -79.5s-41 -40.5 -67 -53.5s-54.667 -19.5 -86 -19.5c-34 0 -64 7 -90 21s-48 33 -66 57c-17.333 23.333 -30.5 50.333 -39.5 81s-13.167 62.667 -12.5 96h369c-2.66699 30 -8.66699 59.833 -18 89.5
s-26 55.834 -50 78.501zM427.003 168.001h-309c2 -22 6.66699 -43.667 14 -65s17.333 -40.333 30 -57c12.667 -17.333 28 -31 46 -41s38.667 -15 62 -15c38 0 71.667 15.667 101 47s48 75 56 131z" />
    <glyph glyph-name="divide" unicode="&#xf7;" horiz-adv-x="900" 
d="M401 561c0 13.333 4.66699 24.833 14 34.5s21 14.5 35 14.5c13.333 0 24.833 -4.83301 34.5 -14.5s14.5 -21.167 14.5 -34.5c0 -14 -4.83301 -25.667 -14.5 -35s-21.167 -14 -34.5 -14c-14 0 -25.667 4.66699 -35 14s-14 21 -14 35zM401 49
c0 13.333 4.66699 24.833 14 34.5s21 14.5 35 14.5c13.333 0 24.833 -4.83301 34.5 -14.5s14.5 -21.167 14.5 -34.5c0 -14 -4.83301 -25.667 -14.5 -35s-21.167 -14 -34.5 -14c-14 0 -25.667 4.66699 -35 14s-14 21 -14 35zM744 325v-40h-588v40h588z" />
    <glyph glyph-name="oslash" unicode="&#xf8;" horiz-adv-x="540" 
d="M145 0l-59 -85.999c-4 2 -6.83301 3.83301 -8.5 5.5l-4.5 4.5c-2 1.33301 -3.83301 2.83301 -5.5 4.5s-4.16699 3.83398 -7.5 6.50098l62 89c-20 26 -35 53.833 -45 83.5s-15 60.5 -15 92.5c0 33.333 4.66699 65.166 14 95.499s22.666 57.166 39.999 80.499
c17.333 22.667 38.833 41 64.5 55s54.5 21 86.5 21c18 0 38.333 -3.5 61 -10.5s43 -18.5 61 -34.5l61 88c4 -2.66699 6.83301 -4.66699 8.5 -6s3.16699 -2.33301 4.5 -3c0.666992 -0.666992 1.83398 -1.66699 3.50098 -3s4.83398 -3 9.50098 -5l-66 -95
c22.667 -26 39.667 -55 51 -87s17 -64 17 -96c0 -34 -5 -66 -15 -96s-24 -56.667 -42 -80c-18.667 -22.667 -40.834 -40.667 -66.501 -54s-54.167 -20 -85.5 -20c-20 0 -40.333 4.5 -61 13.5s-41.667 21.167 -63 36.5zM267 -9.99902c28 0 51.999 6.66699 71.999 20
s36.333 30.666 49 51.999c12.667 20.667 21.834 43.334 27.501 68.001s8.5 48 8.5 70c0 18.667 -3 40.667 -9 66s-16 52 -30 80l-217 -313c15.333 -12.667 31 -23 47 -31s33.333 -12 52 -12zM266.999 412.001c-28 0 -51.666 -7.16797 -70.999 -21.501
s-35 -32.166 -47 -53.499s-20.667 -44.333 -26 -69s-8 -47.334 -8 -68.001c0 -20 1.33301 -43.5 4 -70.5s11 -51.5 25 -73.5l219 314c-10 12.667 -24.833 22.834 -44.5 30.501s-36.834 11.5 -51.501 11.5z" />
    <glyph glyph-name="thorn" unicode="&#xfe;" horiz-adv-x="600" 
d="M92 -50l0.000976562 700h51v-301c24 33.333 51.667 56.833 83 70.5s65 20.5 101 20.5c24 0 47.167 -4.66699 69.5 -14s42.166 -22 59.499 -38s31.333 -34.833 42 -56.5s16 -45.167 16 -70.5v-311h-51v300c0 46.667 -13.667 84 -41 112s-63 42 -107 42
c-20 0 -40.167 -4 -60.5 -12s-38.833 -19 -55.5 -33s-30.167 -30.333 -40.5 -49s-15.5 -38.667 -15.5 -60v-300h-51z" />
    <glyph glyph-name="dcroat" unicode="&#x111;" horiz-adv-x="640" 
d="M281 352c-25.333 0 -48.001 -5.83301 -68.001 -17.5s-37 -26.5 -51 -44.5s-24.5 -38.5 -31.5 -61.5s-10.5 -45.833 -10.5 -68.5c0 -24.667 3.83301 -48.334 11.5 -71.001s18.5 -42.667 32.5 -60s31 -31.166 51 -41.499s42 -15.5 66 -15.5
c24.667 0 47.334 5.33301 68.001 16s38.334 24.667 53.001 42c14.667 18 26.167 38.167 34.5 60.5s12.5 45.5 12.5 69.5c0 24.667 -4.33301 48.5 -13 71.5s-20.667 43.5 -36 61.5c-14.667 18 -32.334 32.333 -53.001 43s-42.667 16 -66 16zM448.999 287v197.999h-304v35h304
v130h51v-130h85v-35h-85v-530h-51v77c-24.667 -36 -52.167 -60.333 -82.5 -73s-63.5 -19 -99.5 -19c-30 0 -57.167 5.83301 -81.5 17.5s-45.5 27.834 -63.5 48.501c-17.333 20 -30.833 43.333 -40.5 70s-14.5 54.667 -14.5 84c0 32 4.66699 61.667 14 89s23 51 41 71
c17.333 20 38 35.667 62 47s50.667 17 80 17c15.333 0 31 -1.16699 47 -3.5s32 -6.83301 48 -13.5s31.5 -16.5 46.5 -29.5s29.5 -29.833 43.5 -50.5z" />
    <glyph glyph-name="Hbar" unicode="&#x126;" horiz-adv-x="740" 
d="M35 525h99v125h51v-125h370v125h51v-125h99v-35h-99v-540h-51v330h-370v-330h-51v540h-99v35zM555 490h-370v-175h370v175z" />
    <glyph glyph-name="hbar" unicode="&#x127;" horiz-adv-x="660" 
d="M157 520l0.000976562 130h51v-130h313v-35h-313v-188c24 33.333 51.667 56.833 83 70.5s65 20.5 101 20.5c24 0 47.167 -4.66699 69.5 -14s42.166 -22 59.499 -38s31.333 -34.833 42 -56.5s16 -45.167 16 -70.5v-259h-51v248c0 46.667 -13.667 84 -41 112s-63 42 -107 42
c-20 0 -40.167 -4 -60.5 -12s-38.833 -19 -55.5 -33s-30.167 -30.333 -40.5 -49s-15.5 -38.667 -15.5 -60v-248h-51v535h-138v35h138z" />
    <glyph glyph-name="dotlessi" unicode="&#x131;" horiz-adv-x="300" 
d="M176 432v-482h-52v482h52zM182 610v-65h-64v65h64z" />
    <glyph glyph-name="IJ" unicode="&#x132;" horiz-adv-x="710" 
d="M105 -50v700h52v-700h-52zM246 153l51.001 0.000976562v-48c0 -40 11.167 -71.667 33.5 -95s52.166 -35 89.499 -35s69 11.667 95 35s39 55 39 95v545h51v-542c0 -28 -5.33301 -52.833 -16 -74.5s-25 -39.834 -43 -54.501c-17.333 -14.667 -37.833 -25.667 -61.5 -33
s-48.5 -11 -74.5 -11c-50.667 0 -90.667 15.667 -120 47s-44 73 -44 125v46z" />
    <glyph glyph-name="ij" unicode="&#x133;" horiz-adv-x="480" 
d="M160 432v-482h-51v482h51zM370 432l-0.000976562 -507c-0.666992 -24 -5.5 -45 -14.5 -63s-24.5 -27 -46.5 -27h-54v35c28.667 0 46.834 6 54.501 18s11.5 26.667 11.5 44v500h49zM165.999 610v-65h-63v65h63zM376.999 610v-65h-63v65h63z" />
    <glyph glyph-name="kgreenlandic" unicode="&#x138;" horiz-adv-x="570" 
d="M141 111v-160.998h-49v482h49v-270l269 270h55l-194 -194l58 -70l63 -75l65.5 -75c21.667 -24.667 42.5 -47.334 62.5 -68.001h-57l-222 259l-65 -64.5c-16 -15.667 -27.667 -26.834 -35 -33.501z" />
    <glyph glyph-name="Ldot" unicode="&#x13f;" horiz-adv-x="600" 
d="M107 650h51v-660h360v-40h-411v700zM430 233c0 12 4.33301 22.5 13 31.5s19.334 13.5 32.001 13.5c12 0 22.5 -4.5 31.5 -13.5s13.5 -19.5 13.5 -31.5c0 -12.667 -4.5 -23.334 -13.5 -32.001s-19.5 -13 -31.5 -13c-12.667 0 -23.334 4.33301 -32.001 13
s-13 19.334 -13 32.001z" />
    <glyph glyph-name="ldot" unicode="&#x140;" horiz-adv-x="420" 
d="M112 650h51v-700h-51v700zM269 381c0 10.667 3.83301 20 11.5 28s17.5 12 29.5 12c10.667 0 20 -4 28 -12s12 -17.333 12 -28c0 -12 -4 -21.833 -12 -29.5s-17.333 -11.5 -28 -11.5c-12 0 -21.833 3.83301 -29.5 11.5s-11.5 17.5 -11.5 29.5z" />
    <glyph glyph-name="Lslash" unicode="&#x141;" horiz-adv-x="600" 
d="M282 446l24 -26l-124 -109v-321h356v-40h-406v317l-94 -82l-22 28l116 101v336h50v-292l30.5 26.5l26.5 23.5l23 20.5z" />
    <glyph glyph-name="lslash" unicode="&#x142;" horiz-adv-x="420" 
d="M174 254l-136 -119c-2 3.33301 -4 6 -6 8s-3.66699 4 -5 6c-2 2 -3.83301 4 -5.5 6s-3.5 4.66699 -5.5 8l158 138v349h52v-304l137 120l22 -26l-159 -140v-350h-52v304z" />
    <glyph glyph-name="napostrophe" unicode="&#x149;" horiz-adv-x="600" 
d="M92 -50l0.00195312 487.999h51v-79c23.333 30.667 50.833 54.5 82.5 71.5s65.5 25.5 101.5 25.5c23.333 0 46.166 -4.5 68.499 -13.5s42.166 -21.5 59.499 -37.5s31.333 -34.833 42 -56.5s16 -45.167 16 -70.5v-328h-51v320c0 42 -13.5 76.667 -40.5 104
s-62.5 41 -106.5 41c-20 0 -40.167 -4 -60.5 -12s-38.833 -18.667 -55.5 -32s-30.167 -29.166 -40.5 -47.499s-15.5 -37.833 -15.5 -58.5v-315h-51z" />
    <glyph glyph-name="Eng" unicode="&#x14a;" horiz-adv-x="621" 
d="M310 -100l-0.00195312 42.001c58.667 10 103.334 36.5 134.001 79.5s46 92.5 46 148.5c0 28 -3.83301 55.5 -11.5 82.5s-18.834 51.167 -33.501 72.5c-15.333 21.333 -34.166 38.666 -56.499 51.999s-48.166 20 -77.499 20s-54 -6.83301 -74 -20.5
s-36.333 -31.167 -49 -52.5c-12.667 -20.667 -21.667 -43.834 -27 -69.501s-8 -50.167 -8 -73.5v-201h-51v670h51v-306c18 34 42.5 58.667 73.5 74s59.167 23 84.5 23c38 0 71.667 -7.66699 101 -23s54 -35.666 74 -60.999s35.333 -54.166 46 -86.499s16 -65.833 16 -100.5
c0 -78.667 -21.167 -141.334 -63.5 -188.001s-100.5 -74 -174.5 -82z" />
    <glyph glyph-name="eng" unicode="&#x14b;" horiz-adv-x="600" 
d="M462 -53l0.00195312 319c0 44.667 -13.5 80.5 -40.5 107.5s-62.5 40.5 -106.5 40.5c-20 0 -40.167 -4 -60.5 -12s-38.833 -18.667 -55.5 -32s-30.167 -29 -40.5 -47s-15.5 -37 -15.5 -57v-316h-51v490h51v-79c20 28 46 50.5 78 67.5s67.333 25.5 106 25.5
c23.333 0 46.166 -4.33301 68.499 -13s42.166 -21 59.499 -37c17.333 -15.333 31.333 -34 42 -56s16 -46 16 -72v-333c-0.666992 -28 -6 -53.833 -16 -77.5s-27.333 -35.5 -52 -35.5h-68v38h14.5c5.66699 0 10.5 0.333008 14.5 1c23.333 2 38.5 11 45.5 27s10.5 33 10.5 51z
" />
    <glyph glyph-name="OE" unicode="&#x152;" horiz-adv-x="850" 
d="M775 648l0.000976562 -39.999h-329c34 -32 61.667 -71.5 83 -118.5s34.666 -98.167 39.999 -153.5h191v-42h-190c-3.33301 -66 -15.333 -124.167 -36 -174.5s-50 -92.833 -88 -127.5h339v-40h-467c-45.333 3.33301 -84 15.5 -116 36.5s-58.333 47.833 -79 80.5
c-20 32 -34.667 67.833 -44 107.5s-14 80.167 -14 121.5c0 42.667 5.33301 84.5 16 125.5s26.334 77.5 47.001 109.5c21.333 32.667 47.666 59.167 78.999 79.5s68 32.166 110 35.499h458zM317.001 602.001c-39.333 0 -71.6641 -10.502 -96.9971 -31.502
s-45.333 -46.833 -60 -77.5c-15.333 -30.667 -25.833 -63.667 -31.5 -99s-8.5 -67.333 -8.5 -96c0 -32 3.16699 -65.5 9.5 -100.5s17.166 -67.5 32.499 -97.5c15.333 -29.333 35.666 -53.666 60.999 -72.999s56.666 -29 93.999 -29c38 0 69.667 10.167 95 30.5
s45.666 45.5 60.999 75.5s26.333 62.5 33 97.5s10 67.167 10 96.5c0 30.667 -3.5 63.834 -10.5 99.501s-18.5 68.5 -34.5 98.5c-15.333 30 -35.666 55.167 -60.999 75.5s-56.333 30.5 -93 30.5z" />
    <glyph glyph-name="oe" unicode="&#x153;" horiz-adv-x="710" 
d="M216 394c-22.667 0 -41.1689 -8.16504 -55.502 -24.498s-25.833 -35.5 -34.5 -57.5c-8.66699 -22.667 -14.5 -45.334 -17.5 -68.001s-4.5 -40.334 -4.5 -53.001c0 -15.333 1.5 -34.5 4.5 -57.5s8.5 -45.167 16.5 -66.5c8 -22 19.333 -40.5 34 -55.5
s33.667 -22.5 57 -22.5c22.667 0 41.334 7.83301 56.001 23.5s26.334 34.167 35.001 55.5c8.66699 22 14.667 44.333 18 67s5 41.334 5 56.001s-1.83301 33.667 -5.5 57s-9.83398 45.666 -18.501 66.999c-9.33301 21.333 -21.166 39.833 -35.499 55.5s-32.5 23.5 -54.5 23.5
zM384.998 230.002h223c-2 47.333 -12 86.5 -30 117.5s-43 46.5 -75 46.5c-28.667 0 -54.5 -14.333 -77.5 -43s-36.5 -69 -40.5 -121zM211.998 442.002c13.333 0 27.333 -3.33594 42 -10.0029s28.667 -16 42 -28s25.166 -26.667 35.499 -44s18.166 -36.666 23.499 -57.999
c4.66699 22 12.834 41.667 24.501 59s24.5 32 38.5 44s28.5 21.167 43.5 27.5s28.833 9.5 41.5 9.5c49.333 0 88.166 -21.333 116.499 -64s43.166 -107 44.499 -193h-279c0 -17.333 2 -37.166 6 -59.499s10.333 -43.833 19 -64.5c9.33301 -20 21.333 -37 36 -51
s33.334 -21 56.001 -21c28 0 48.5 8.66699 61.5 26s23.5 39 31.5 65h57c-11.333 -38 -30.333 -70.5 -57 -97.5s-58 -40.5 -94 -40.5c-24.667 0 -51.667 10.833 -81 32.5s-50.666 56.167 -63.999 103.5c-12.667 -46 -33 -80.167 -61 -102.5s-55.667 -33.5 -83 -33.5
c-30 0 -55.167 8.16699 -75.5 24.5s-36.833 36.833 -49.5 61.5s-21.5 51.667 -26.5 81s-7.5 56.666 -7.5 81.999c0 26.667 2.83301 54.834 8.5 84.501s14.834 56.834 27.501 81.501c12.667 24 29 44.167 49 60.5s44.667 24.5 74 24.5z" />
    <glyph glyph-name="Tbar" unicode="&#x166;" horiz-adv-x="670" 
d="M311 -50v370h-231v35h231v255h-231v35h510v-35h-226v-255h226v-35h-226v-370h-53z" />
    <glyph glyph-name="tbar" unicode="&#x167;" horiz-adv-x="480" 
d="M55 295h157v145h-72v35h72v147h51v-147h77v-35h-77v-145h162v-35h-162v-235c0 -12 2 -20.833 6 -26.5s9 -9.5 15 -11.5s13 -2.83301 21 -2.5s16.333 0.5 25 0.5v-35h-50c-28 0 -46.333 8.83301 -55 26.5s-13 37.167 -13 58.5v225h-157v35z" />
    <glyph glyph-name="Scommaaccent" unicode="&#x218;" horiz-adv-x="505" 
d="M455 188c0 -28.667 -6.6709 -52.8359 -20.0039 -72.5029s-30.666 -35.5 -51.999 -47.5c-22 -12.667 -47 -21.667 -75 -27s-57 -8 -87 -8c-26 0 -53.667 2.33301 -83 7s-56.333 11.667 -81 21l14 62c18.667 -10 41.334 -17.833 68.001 -23.5s52.334 -8.5 77.001 -8.5
c16.667 0 33.667 1.5 51 4.5s33 8.16699 47 15.5c14 6.66699 25.667 16 35 28s14 26.667 14 44c0 13.333 -4 25.5 -12 36.5s-18.333 21.167 -31 30.5c-13.333 8.66699 -28.333 16.834 -45 24.501s-34 15.167 -52 22.5c-18.667 6.66699 -38.167 14.167 -58.5 22.5
s-38.833 18.5 -55.5 30.5c-17.333 12 -31.5 26.5 -42.5 43.5s-16.5 37.5 -16.5 61.5c0 54 20.667 94 62 120s93 39 155 39c26 0 52.5 -2 79.5 -6s52.167 -9 75.5 -15l-13 -62c-23.333 8 -45.666 14.167 -66.999 18.5s-43.333 6.5 -66 6.5c-42.667 0 -76 -8.16699 -100 -24.5
s-36 -38.5 -36 -66.5c0 -12.667 3.16699 -24 9.5 -34s14.5 -18.667 24.5 -26c10 -8 21 -15 33 -21s24 -11.333 36 -16c24 -11.333 48.5 -22.166 73.5 -32.499s47.833 -22.166 68.5 -35.499c20 -13.333 36.667 -29 50 -47s20 -39.667 20 -65zM314.996 -56.002
c0 -32 -8 -61 -24 -87s-36.667 -46.667 -62 -62l-28 22c14 10 25.833 21.833 35.5 35.5s15.5 28.167 17.5 43.5c-15.333 0 -28 3.83301 -38 11.5s-15 20.5 -15 38.5c0 14.667 5.33301 27.5 16 38.5s25 16.5 43 16.5c15.333 0 28.333 -5.5 39 -16.5s16 -24.5 16 -40.5z" />
    <glyph glyph-name="caron" unicode="&#x2c7;" horiz-adv-x="600" 
d="M488 700l-188 -108.002l-188 108l5.5 9c1.66699 2.66699 3.16699 5.33398 4.5 8.00098c1.33301 2 3 4.33301 5 7s4.33301 6 7 10l166 -94l81.5 46.5l83.5 46.5c1.33301 -3.33301 2.83301 -6.16602 4.5 -8.49902l5.5 -7.5l6.5 -8.5z" />
    <glyph glyph-name="uni02D0" unicode="&#x2d0;" horiz-adv-x="600" 
d="M360 555l-60 -109l-61 109h121zM239 95l61 109l60 -109h-121z" />
    <glyph glyph-name="breve" unicode="&#x2d8;" horiz-adv-x="600" 
d="M464 734l37.999 -29c-26 -28 -56.167 -50.667 -90.5 -68s-71.5 -26 -111.5 -26c-41.333 0 -79 8.83301 -113 26.5s-64 40.834 -90 69.501l39 26c18 -25.333 42 -45.5 72 -60.5s60.667 -22.5 92 -22.5s61.833 7.66699 91.5 23s53.834 35.666 72.501 60.999z" />
    <glyph glyph-name="dotaccent" unicode="&#x2d9;" horiz-adv-x="600" 
d="M245 680c0 14.667 5.33301 27.5 16 38.5s23.667 16.5 39 16.5c14.667 0 27.5 -5.5 38.5 -16.5s16.5 -23.833 16.5 -38.5c0 -15.333 -5.5 -28.333 -16.5 -39s-23.833 -16 -38.5 -16c-15.333 0 -28.333 5.33301 -39 16s-16 23.667 -16 39z" />
    <glyph glyph-name="ring" unicode="&#x2da;" horiz-adv-x="600" 
d="M225 680c0 20 7.33301 37.5 22 52.5s32.334 22.5 53.001 22.5c20 0 37.5 -7.5 52.5 -22.5s22.5 -32.5 22.5 -52.5c0 -20.667 -7.5 -38.334 -22.5 -53.001s-32.5 -22 -52.5 -22c-20.667 0 -38.334 7.33301 -53.001 22s-22 32.334 -22 53.001zM255 680
c0 -12.667 4.33301 -23.334 13 -32.001s19.334 -13 32.001 -13c12 0 22.5 4.33301 31.5 13s13.5 19.334 13.5 32.001c0 12 -4.5 22.5 -13.5 31.5s-19.5 13.5 -31.5 13.5c-12.667 0 -23.334 -4.5 -32.001 -13.5s-13 -19.5 -13 -31.5z" />
    <glyph glyph-name="ogonek" unicode="&#x2db;" horiz-adv-x="600" 
d="M215 -11l135 138.999l30 -31l-27 -26l-29 -28l-29 -27.5l-26 -25.5l27 -26.5l29 -27.5l28 -26l28 -25l-31 -33c-11.333 10.667 -22.5 21.834 -33.5 33.501l-33.5 34.5l-34.5 35z" />
    <glyph glyph-name="hungarumlaut" unicode="&#x2dd;" horiz-adv-x="600" 
d="M153 536l-4.99805 3c2.66699 12 8.5 31.167 17.5 57.5s20.5 55.5 34.5 87.5c2.66699 6 5.5 13 8.5 21s6.83301 15.667 11.5 23c4 7.33301 9 13.666 15 18.999s13.333 8 22 8c4 0 8 -0.5 12 -1.5s8 -2.5 12 -4.5c6.66699 -4 9.66699 -10.333 9 -19
s-3.33398 -17.667 -8.00098 -27c-4.66699 -10 -9.83398 -19.333 -15.501 -28l-12.5 -19c-18.667 -26 -37.5 -50.167 -56.5 -72.5s-33.833 -38.166 -44.5 -47.499zM289.002 538l-4 3.00195c12.667 42 22.334 73 29.001 93s12.667 36.333 18 49l11.5 27
c4.33301 10 9.5 18.667 15.5 26c6 8 13 13.667 21 17s17.667 2.66602 29 -2.00098c10 -5.33301 15.333 -12.333 16 -21s-1 -17.667 -5 -27c-4.66699 -9.33301 -10.334 -18.333 -17.001 -27s-12 -15.334 -16 -20.001l-32.5 -39.5c-10.333 -12.333 -19.5 -23.833 -27.5 -34.5
l-22.5 -26.5c-6.33301 -7.66699 -11.5 -13.5 -15.5 -17.5z" />
    <glyph glyph-name="Alpha" unicode="&#x391;" horiz-adv-x="740" 
d="M116 31c0.666992 0.666992 1.83496 2.49707 3.50195 5.49707l8.5 15.5l16.5 28.5l27.5 48.5l40 73l58 103l76.5 139l99.5 181c4.66699 9.33301 10 16.333 16 21s10.667 7 14 7c4.66699 0 9 -1.33301 13 -4s7.33301 -6 10 -10l28.5 -155l29.5 -154l29.5 -152l29.5 -151
c4 -19.333 14.167 -30.833 30.5 -34.5s32.5 -5.5 48.5 -5.5l-6 -37h-202c0.666992 6 1.5 12 2.5 18s1.83301 12.333 2.5 19c8 0 16.5 0.333008 25.5 1s16.833 2.33398 23.5 5.00098c7.33301 2.66699 12.666 6.66699 15.999 12s3.66602 12.666 0.999023 21.999
c0 -0.666992 -0.166992 0.166016 -0.5 2.49902s-1.5 8.5 -3.5 18.5s-4.83301 25.333 -8.5 46l-14.5 85h-293l-21.5 -37.5c-7 -12.333 -13.5 -24.833 -19.5 -37.5l-20 -37l-20 -36c-8 -12 -12.167 -21 -12.5 -27s2.16699 -10.333 7.5 -13c6 -2.66699 14.667 -4 26 -4h43
c-1.33301 -3.33301 -2.16602 -5.66602 -2.49902 -6.99902s-0.5 -2.66602 -0.5 -3.99902s-0.166992 -2.66602 -0.5 -3.99902s-0.833008 -3 -1.5 -5l-6 -17h-193c0.666992 4 1.16699 7.5 1.5 10.5s0.833008 6.16699 1.5 9.5c0.666992 2.66699 1.16699 5.33398 1.5 8.00098
s1.16602 5.66699 2.49902 9c24 0 42 4 54 12s24.667 18.667 38 32zM259.001 218.997l264 0.00195312c-8 35.333 -14.833 67.833 -20.5 97.5l-16.5 86.5c-5.33301 27.333 -10.5 55.166 -15.5 83.499s-10.167 59.166 -15.5 92.499l-59 -110l-51 -93l-45.5 -81.5z" />
    <glyph glyph-name="Beta" unicode="&#x392;" horiz-adv-x="750" 
d="M301 -50h-273.002l15 38c6.66699 0 13.667 0.166992 21 0.5s13.333 0.833008 18 1.5c20 1.33301 33.833 5 41.5 11s13.167 17 16.5 33l49 264l49 264c2 22 -3.5 35.5 -16.5 40.5s-27.5 7.5 -43.5 7.5c-4 0 -8.5 0.333008 -13.5 1s-9.83301 1 -14.5 1
c0 2.66699 0.166992 5.66699 0.5 9s0.833008 6.66602 1.5 9.99902s1.33398 6.5 2.00098 9.5s1.33398 6.16699 2.00098 9.5h306c27.333 -0.666992 53.5 -4 78.5 -10s46.5 -15.667 64.5 -29c18 -14 31.333 -31.833 40 -53.5s10.334 -47.834 5.00098 -78.501
c-8.66699 -36.667 -26.334 -69.667 -53.001 -99s-61 -50.666 -103 -63.999c36.667 -12 68.5 -29.667 95.5 -53s40.5 -53 40.5 -89c0 -6 -0.333008 -12.333 -1 -19s-1.33398 -12.667 -2.00098 -18c-7.33301 -40 -22.666 -72.167 -45.999 -96.5s-51 -43.5 -83 -57.5
c-31.333 -13.333 -64.5 -22.166 -99.5 -26.499s-67.5 -6.5 -97.5 -6.5zM243.998 290l-45.998 -257.001c-4.66699 -22 -1.16699 -35 10.5 -39s30.834 -6 57.501 -6h24.5c8.33301 0 16.166 0.333008 23.499 1c8 0.666992 15.5 1.16699 22.5 1.5s13.5 0.833008 19.5 1.5
c23.333 0.666992 46.333 4.5 69 11.5s43.334 16.833 62.001 29.5s34.667 27.834 48 45.501s22.333 38.167 27 61.5c6.66699 32.667 4.66699 59 -6 79s-26.334 35 -47.001 45c-20.667 10.667 -44.334 17.667 -71.001 21s-52.334 5 -77.001 5h-117zM296 562.999
l-46.0029 -234.002h67c27.333 0 55.833 1.83301 85.5 5.5s57.5 10.834 83.5 21.501s48.5 25.167 67.5 43.5s31.167 42.166 36.5 71.499v-1c0.666992 4 1.33398 8.66699 2.00098 14s1 11 1 17c0 28 -8 49.5 -24 64.5s-35.333 25.833 -58 32.5s-46.5 10.667 -71.5 12
s-46.5 2 -64.5 2c-16.667 0 -29.667 -0.5 -39 -1.5s-16.666 -3.16699 -21.999 -6.5s-9.16602 -8.16602 -11.499 -14.499s-4.5 -15.166 -6.5 -26.499z" />
    <glyph glyph-name="Gamma" unicode="&#x393;" horiz-adv-x="740" 
d="M147 58l89.001 502.997c0 10.667 -0.666992 18.834 -2 24.501s-4.66602 10.167 -9.99902 13.5c-4.66699 2.66699 -11.5 4.66699 -20.5 6s-20.833 3 -35.5 5c-4 0 -8.33301 0.333008 -13 1s-9.33398 1 -14.001 1c0.666992 3.33301 1.5 6.66602 2.5 9.99902
s2.16699 6.33301 3.5 9c0.666992 3.33301 1.5 6.5 2.5 9.5s2.16699 6.16699 3.5 9.5h510c0.666992 0 4.66699 -1.16699 12 -3.5s10 -9.5 8 -21.5c-4.66699 -38 -9.5 -75.167 -14.5 -111.5l-13.5 -101.5h-27v11c0 3.33301 0.333008 6.33301 1 9
c0 2.66699 0.166992 5.33398 0.5 8.00098s0.5 5.33398 0.5 8.00098c0 37.333 -1.66699 67.166 -5 89.499s-11.333 38.166 -24 47.499h1c-12 8.66699 -37.167 15.334 -75.5 20.001s-88.5 7 -150.5 7c-30 0 -49.833 -2.66699 -59.5 -8s-15.834 -18 -18.501 -38l-91 -509
c-4 -26 -3.5 -43.167 1.5 -51.5s20.833 -13.5 47.5 -15.5c4 -0.666992 8.5 -1.16699 13.5 -1.5s10.833 -0.5 17.5 -0.5c-1.33301 -3.33301 -2.16602 -6.66602 -2.49902 -9.99902s-0.5 -6.66602 -0.5 -9.99902c-0.666992 -3.33301 -1.16699 -6.5 -1.5 -9.5
s-0.5 -5.83301 -0.5 -8.5h-254l8 38c4.66699 0 9.66699 0.166992 15 0.5s10 0.833008 14 1.5c13.333 2 24.666 4 33.999 6s17 5.33301 23 10c6 4 10.833 10.167 14.5 18.5s7.16699 19.5 10.5 33.5z" />
    <glyph glyph-name="Delta" unicode="&#x394;" horiz-adv-x="660" 
d="M518 30l-110 532l-73 -133.5l-75 -133.5l-74 -132.5l-71 -127.5l2 1c-6 -8.66699 -10.5 -15.5 -13.5 -20.5s-4.5 -8.16699 -4.5 -9.5c0 -7.33301 4 -11.5 12 -12.5s21 -1.5 39 -1.5h305c21.333 0 38 1.66699 50 5s16.333 14.333 13 33zM454 634l129.002 -605.999
c0.666992 -5.33301 1.66699 -12.5 3 -21.5s1.66602 -17.5 0.999023 -25.5c-0.666992 -8.66699 -2.5 -16 -5.5 -22s-8.16699 -9 -15.5 -9h-470c-14.667 0.666992 -25.334 3.33398 -32.001 8.00098s-10.334 10.667 -11.001 18
c-1.33301 7.33301 -0.166016 15.666 3.50098 24.999s8.16699 18.666 13.5 27.999l96 173.5l75 134.5l56 102l41 74l28.5 51.5l19.5 34.5l13.5 23l10.5 18c2.66699 4.66699 7 8.66699 13 12s11.333 5 16 5c3.33301 0 6.33301 -2.16699 9 -6.5s4.66699 -9.83301 6 -16.5z" />
    <glyph glyph-name="Epsilon" unicode="&#x395;" horiz-adv-x="750" 
d="M605 184h27l-50 -214c-1.33301 -7.33301 -5 -12.5 -11 -15.5s-9.66699 -4.5 -11 -4.5h-525l7 38c6.66699 0 13.834 0.166992 21.501 0.5s14.167 0.833008 19.5 1.5c18 1.33301 32.333 4.83301 43 10.5s17 15.834 19 30.501c1.33301 9.33301 3.66602 23.5 6.99902 42.5
l11 65.5l14.5 80.5l15.5 87.5l15.5 86l13.5 77l10 58.5c2.66699 16.333 4.66699 27.5 6 33.5c1.33301 12.667 -2 24.167 -10 34.5s-21 15.5 -39 15.5h-40l6 38h515c3.33301 0 7.16602 -1.66699 11.499 -5s5.83301 -10 4.5 -20c-4 -25.333 -7.66699 -51.5 -11 -78.5
s-6.33301 -53.167 -9 -78.5l-3 -31l-3 -25h-25c0 8 0.166992 16.333 0.5 25s0.5 16.667 0.5 24c0 32 -3 58.167 -9 78.5s-14.667 35.166 -26 44.499c-16 8 -40.833 14.667 -74.5 20s-81.5 8 -143.5 8c-30 0 -50.667 -2.33301 -62 -7s-18.333 -17.667 -21 -39l-42 -240
c44 0 78.167 1.5 102.5 4.5s40.833 6.83301 49.5 11.5c12 6 23 18.167 33 36.5s20 40.5 30 66.5h25c-2.66699 -12.667 -5 -24.834 -7 -36.501s-3.66699 -23.167 -5 -34.5l-6 -33.5l-6 -34.5c-4.66699 -24 -9 -47.333 -13 -70l-12 -70h-25v29c0 20 -2.66699 36.333 -8 49
s-12 22 -20 28c-8.66699 4.66699 -24.167 8.33398 -46.5 11.001s-54.5 4 -96.5 4l-48 -254c-3.33301 -20 -2.16602 -32.5 3.50098 -37.5s25.5 -7.5 59.5 -7.5c70 0 123 2.16699 159 6.5s62.333 10.833 79 19.5c19.333 10 37 29.333 53 58s31.333 66 46 112z" />
    <glyph glyph-name="Zeta" unicode="&#x396;" horiz-adv-x="730" 
d="M585 612h-143.003c-51.333 0 -94.166 -2.5 -128.499 -7.5s-58.5 -11.5 -72.5 -19.5c-13.333 -10 -27.166 -29 -41.499 -57s-28.5 -64 -42.5 -108h-27c6 34 13 68.333 21 103l24 103c1.33301 9.33301 4.83301 15.666 10.5 18.999s10.5 5 14.5 5h457
c10 -2 14 -6.66699 12 -14s-5 -13.666 -9 -18.999l-133 -157.5l-135 -156.5l-134.5 -157.5l-132.5 -157.5h186c54 0 97.5 1.83301 130.5 5.5s56.5 9.83398 70.5 18.501c6.66699 4 13.667 11.5 21 22.5s15 24.167 23 39.5c7.33301 15.333 14.833 32.166 22.5 50.499
s14.834 36.833 21.501 55.5l28 -1l-50 -215c-0.666992 -5.33301 -3.5 -9 -8.5 -11s-9.5 -3 -13.5 -3h-495c-8.66699 1.33301 -14.167 5.83301 -16.5 13.5s-0.5 14.5 5.5 20.5l223 265l150 175l97 112.5z" />
    <glyph glyph-name="Eta" unicode="&#x397;" horiz-adv-x="860" 
d="M610 334l38.002 205.996l-1 -1c3.33301 14 4.66602 26.167 3.99902 36.5s-3 17.833 -7 22.5c-4 4 -11.667 7.16699 -23 9.5s-26.666 3.83301 -45.999 4.5c0 2.66699 0.166992 5.5 0.5 8.5s0.833008 6.16699 1.5 9.5l2 10l2 10h235c-1.33301 -4 -2.33301 -7.5 -3 -10.5
s-1.33398 -6.16699 -2.00098 -9.5c-0.666992 -2.66699 -1.16699 -5.5 -1.5 -8.5s-0.833008 -6.16699 -1.5 -9.5c-18.667 -1.33301 -34.167 -3.5 -46.5 -6.5s-20.833 -5.83301 -25.5 -8.5c-6 -4.66699 -11.667 -12.334 -17 -23.001s-9 -22 -11 -34l-82 -485
c-2.66699 -14 -3.5 -24.833 -2.5 -32.5s3.83301 -13.5 8.5 -17.5c4 -4 9.83301 -6.66699 17.5 -8s17.167 -2.66602 28.5 -3.99902l19 -2c0 -3.33301 -0.166992 -6.83301 -0.5 -10.5s-0.833008 -7.16699 -1.5 -10.5c-0.666992 -4 -1.33398 -7.66699 -2.00098 -11
s-1 -6.33301 -1 -9h-234c0.666992 5.33301 1.5 11.5 2.5 18.5s1.83301 13.5 2.5 19.5c22 0 38.833 1.33301 50.5 4s19.5 5.66699 23.5 9c8 8.66699 14 17.167 18 25.5s7 19.5 9 33.5l39 230h-354c-2 -10 -5 -26.667 -9 -50l-12 -72l-11.5 -70
c-3.66699 -21.333 -6.16699 -35.333 -7.5 -42c-2.66699 -14 -3.83398 -26 -3.50098 -36s2.5 -16.667 6.5 -20c2.66699 -3.33301 9.33398 -6.16602 20.001 -8.49902s27.334 -3.5 50.001 -3.5c-0.666992 -3.33301 -1.16699 -6.66602 -1.5 -9.99902
s-0.833008 -6.66602 -1.5 -9.99902s-1 -6.5 -1 -9.5v-8.5h-239c1.33301 6 2.5 12.167 3.5 18.5s2.16699 12.833 3.5 19.5c20.667 0 37.5 1.16699 50.5 3.5s21.167 5.16602 24.5 8.49902c4.66699 4.66699 9.83398 12.834 15.501 24.501s9.5 23.5 11.5 35.5
c6 40 12.5 79.833 19.5 119.5l20.5 118.5l21 120l21 122c2.66699 13.333 4.16699 24.833 4.5 34.5s-2.16699 17.5 -7.5 23.5c-4 4 -13 7.16699 -27 9.5s-33 3.83301 -57 4.5c2 6.66699 4 12.834 6 18.501s4 12.167 6 19.5h246
c-0.666992 -3.33301 -1.33398 -6.5 -2.00098 -9.5s-1.33398 -6.16699 -2.00098 -9.5l-2 -10c-0.666992 -3.33301 -1 -6.33301 -1 -9c-22 -0.666992 -38.667 -2.16699 -50 -4.5s-19 -5.5 -23 -9.5c-8 -8 -14.167 -17.333 -18.5 -28s-7.5 -21.667 -9.5 -33l-36 -203h353z" />
    <glyph glyph-name="Theta" unicode="&#x398;" horiz-adv-x="760" 
d="M441 660c38 0 72.499 -8.33301 103.499 -25s57.167 -38.667 78.5 -66c22 -27.333 39 -58.666 51 -93.999s18 -71.333 18 -108c0 -54 -10.167 -106.5 -30.5 -157.5s-47.833 -96.5 -82.5 -136.5c-34 -40 -73.833 -72.167 -119.5 -96.5s-93.5 -36.5 -143.5 -36.5
c-41.333 0 -77.5 8.33301 -108.5 25s-56.833 39 -77.5 67c-21.333 27.333 -37.166 58.666 -47.499 93.999s-15.5 71.333 -15.5 108c0 8.66699 0.5 18.5 1.5 29.5s2.5 21.5 4.5 31.5c10 46 26.5 91 49.5 135s50.5 83 82.5 117c32.667 34 69 61.333 109 82s82.333 31 127 31z
M423.999 615c-44 0 -82.501 -10.332 -115.501 -30.999s-61.167 -46.334 -84.5 -77.001c-23.333 -31.333 -42 -65.5 -56 -102.5s-24 -72.167 -30 -105.5c-2 -11.333 -3.5 -23.666 -4.5 -36.999s-1.5 -26.333 -1.5 -39c0 -29.333 3.16699 -58.166 9.5 -86.499
s16.833 -53.833 31.5 -76.5c15.333 -22 35.333 -40 60 -54s55.667 -21 93 -21c44.667 0 84 9.66699 118 29s63 44.333 87 75c23.333 30.667 42 64.667 56 102s23.667 73.666 29 108.999c1.33301 10 2.5 21 3.5 33s1.5 24 1.5 36c0 28.667 -3.33301 57.667 -10 87
s-17.667 55.666 -33 78.999s-35.666 42.5 -60.999 57.5s-56.333 22.5 -93 22.5zM525.998 376.001h24c-3.33301 -12.667 -6.33301 -25.167 -9 -37.5s-5.66699 -24.833 -9 -37.5l-8 -36.5c-2.66699 -12.333 -5 -24.833 -7 -37.5h-20c-0.666992 20.667 -4.16699 35 -10.5 43
s-15.5 12 -27.5 12h-165c-14 0 -25 -4 -33 -12s-17 -22.333 -27 -43h-23c4.66699 26 10 52 16 78l18 78h19v-19c0 -16.667 3.5 -26.5 10.5 -29.5s16.5 -4.5 28.5 -4.5h166c16 0 28.5 2.16699 37.5 6.5s15.5 17.5 19.5 39.5z" />
    <glyph glyph-name="Iota" unicode="&#x399;" horiz-adv-x="470" 
d="M306 537l-84 -480.998c-2.66699 -12.667 -4 -23.834 -4 -33.501s1 -16.167 3 -19.5c2.66699 -4 10.5 -7.5 23.5 -10.5s29.833 -4.5 50.5 -4.5c-1.33301 -6 -2.5 -12.333 -3.5 -19s-1.5 -13 -1.5 -19h-237l6 38c19.333 0 35.333 1 48 3s21 5 25 9
c7.33301 6.66699 12.833 14.667 16.5 24s6.83398 20.666 9.50098 33.999l20.5 120l21.5 120l21 120.5l23 120.5c2 12.667 3.16699 24.167 3.5 34.5s-1.16699 17.5 -4.5 21.5c-4 4 -12.833 7.5 -26.5 10.5s-30.5 5.16699 -50.5 6.5c0.666992 5.33301 1.5 11.5 2.5 18.5
s1.83301 13.5 2.5 19.5h243c-1.33301 -4 -2.33301 -7.5 -3 -10.5s-1.33398 -6.16699 -2.00098 -9.5c-0.666992 -2.66699 -1.16699 -5.5 -1.5 -8.5s-0.833008 -6.16699 -1.5 -9.5c-22 -0.666992 -38.833 -2.16699 -50.5 -4.5s-19.5 -5.5 -23.5 -9.5
c-6 -6 -11.333 -14.667 -16 -26s-8 -23 -10 -35z" />
    <glyph glyph-name="Kappa" unicode="&#x39a;" horiz-adv-x="830" 
d="M390 310l-159 -147.002l-24 -118c-3.33301 -17.333 -3 -29.5 1 -36.5s10 -11.5 18 -13.5c7.33301 -2 16.5 -2.66699 27.5 -2s22.167 0 33.5 -2l-10 -39h-234l6 38c26 0.666992 48 5.33398 66 14.001s29.667 26.667 35 54l86 494
c1.33301 11.333 -0.333984 20.833 -5.00098 28.5s-10.667 13.834 -18 18.501s-15.833 8 -25.5 10s-18.5 3 -26.5 3c0.666992 5.33301 1.5 11.5 2.5 18.5s1.83301 13.5 2.5 19.5h232c0 -3.33301 -0.333008 -6.66602 -1 -9.99902l-2 -10c0 -3.33301 -0.333008 -6.5 -1 -9.5
s-1 -5.83301 -1 -8.5c-28 -1.33301 -50.333 -7.33301 -67 -18s-27 -29.334 -31 -56.001l-58 -320l97 88l95 88l96 88l97 88c12.667 10.667 20.667 18.667 24 24s2.33301 9.33301 -3 12c-5.33301 2 -15 3.16699 -29 3.5s-32 1.16602 -54 2.49902
c0.666992 5.33301 1.5 11.5 2.5 18.5s1.83301 13.5 2.5 19.5h235c0 -3.33301 -0.333008 -6.66602 -1 -9.99902l-2 -10c0 -3.33301 -0.333008 -6.5 -1 -9.5s-1 -5.83301 -1 -8.5c-22 -1.33301 -42.5 -4.66602 -61.5 -9.99902s-36.167 -14.666 -51.5 -27.999l-247 -229
l198 -325c2.66699 -5.33301 5.33398 -9.83301 8.00098 -13.5s7 -6.83398 13 -9.50098c6 -2 14 -3.66699 24 -5s23.667 -2 41 -2l-5 -38h-245l5 38c36.667 0.666992 61.167 3.66699 73.5 9s16.833 13.666 13.5 24.999z" />
    <glyph glyph-name="Lambda" unicode="&#x39b;" horiz-adv-x="740" 
d="M558 27l-103 551.997l-147 -269l-84 -156l-43.5 -80.5l-23.5 -42.5c-8.66699 -12 -13.167 -21 -13.5 -27s1.83398 -10.333 6.50098 -13s11.334 -4 20.001 -4h29h22c-2 -7.33301 -3.83301 -13.666 -5.5 -18.999l-5.5 -18h-193c0.666992 4 1.16699 7.5 1.5 10.5
s0.833008 6.16699 1.5 9.5c0.666992 2.66699 1.16699 5.33398 1.5 8.00098s1.16602 5.66699 2.49902 9c22 0 39.333 2.66699 52 8s24.334 15 35.001 29c2 2.66699 4.16699 5.83398 6.5 9.50098s5.5 9.16699 9.5 16.5l16.5 29l26.5 47l40.5 72.5l57.5 103.5l77 139.5
l101 183.5c4.66699 9.33301 10 16.333 16 21s10.667 7 14 7c4.66699 0 9 -1.33301 13 -4s7.33301 -6 10 -10l28.5 -155l29.5 -154l29.5 -152l29.5 -151c4 -19.333 14.167 -30.833 30.5 -34.5s32.5 -5.5 48.5 -5.5l-6 -37h-202c0.666992 6 1.5 12 2.5 18
s1.83301 12.333 2.5 19c8 0 16.5 0.333008 25.5 1s16.833 2.33398 23.5 5.00098c7.33301 2.66699 12.666 6.66699 15.999 12s3.66602 12.666 0.999023 21.999z" />
    <glyph glyph-name="Mu" unicode="&#x39c;" horiz-adv-x="880" 
d="M248 610l-82 -557.001c-1.33301 -13.333 -1.83301 -23.833 -1.5 -31.5s2.5 -13.834 6.5 -18.501c3.33301 -4.66699 9.16602 -8 17.499 -10s20.5 -3.33301 36.5 -4c-1.33301 -3.33301 -2.16602 -6.66602 -2.49902 -9.99902s-0.5 -6.66602 -0.5 -9.99902
c-0.666992 -3.33301 -1.16699 -6.66602 -1.5 -9.99902s-0.5 -6.33301 -0.5 -9h-186c0 2.66699 0.166992 5.5 0.5 8.5s0.833008 6.16699 1.5 9.5l2 10l2 10c24.667 0.666992 42 6.66699 52 18s17.667 27.333 23 48l78 526c0 10 -4 17.167 -12 21.5
s-24.333 7.16602 -49 8.49902v16v11c0 3.33301 0.166992 5.83301 0.5 7.5s0.5 3.5 0.5 5.5h145c9.33301 0.666992 15.5 -1.16602 18.5 -5.49902s5.5 -10.5 7.5 -18.5c0.666992 -8 2.66699 -21.167 6 -39.5s7.66602 -40.166 12.999 -65.499c4.66699 -26 10 -54.167 16 -84.5
l18 -92.5l18 -93l16 -84l12 -66l7 -39c20.667 48.667 42.334 96.5 65.001 143.5l69 140.5l68 138.5l66 141.5c2 6 4.66699 11.5 8 16.5s8.66602 7.5 15.999 7.5h145c-2 -6.66699 -3.66699 -13.334 -5 -20.001s-2.33301 -13 -3 -19
c-22 -0.666992 -40.5 -4.33398 -55.5 -11.001s-23.5 -20 -25.5 -40c-13.333 -82 -26.166 -165.833 -38.499 -251.5l-35.5 -251.5c-6 -28.667 -2.16699 -47.334 11.5 -56.001s32.5 -13 56.5 -13c-1.33301 -6 -2.5 -12.333 -3.5 -19s-1.5 -13 -1.5 -19h-213
c0.666992 5.33301 1.5 11.5 2.5 18.5s1.83301 13.5 2.5 19.5c26 0 45.667 4.83301 59 14.5s22.333 24.834 27 45.501c6 44.667 12.833 92.167 20.5 142.5l22.5 150.5c8 49.333 15.333 97.166 22 143.499l18 125.5l-314 -649c-3.33301 -5.33301 -6 -8.66602 -8 -9.99902
s-4 2 -6 10z" />
    <glyph glyph-name="Nu" unicode="&#x39d;" horiz-adv-x="820" 
d="M570 67l84.999 473c4.66699 34 1.33398 54.333 -9.99902 61s-29.333 10 -54 10l7 39h187l-6 -39c-16.667 -0.666992 -29.834 -2.16699 -39.501 -4.5s-17.5 -6.16602 -23.5 -11.499c-5.33301 -5.33301 -9.5 -12.5 -12.5 -21.5s-5.83301 -20.5 -8.5 -34.5l-26.5 -145.5
l-27.5 -147.5l-26.5 -148.5l-25.5 -144.5l1 1c-2 -4 -4.5 -7.5 -7.5 -10.5s-5.16699 -4.5 -6.5 -4.5s-3 1 -5 3s-4 5 -6 9l-308 638l-97 -536c-4 -29.333 -1.16699 -47.666 8.5 -54.999s28.5 -11 56.5 -11l-3 -17l-3 -20h-192l8 37c32 1.33301 53 6.66602 63 15.999
s17.333 26.333 22 51l8 48.5c3.33301 19.667 7.33301 41.5 12 65.5l13 75c4.66699 26.667 9.66699 53 15 79l13.5 75.5c4.33301 24.333 8.5 46.5 12.5 66.5l8.5 49.5c2.33301 13.667 4.16602 22.834 5.49902 27.501c4.66699 27.333 2.33398 45.5 -6.99902 54.5
s-27 14.167 -53 15.5c0 2.66699 0.333008 5.5 1 8.5s1.33398 6.5 2.00098 10.5c0.666992 3.33301 1.16699 6.66602 1.5 9.99902s0.833008 6.66602 1.5 9.99902h119c7.33301 0 13.5 -1.66699 18.5 -5s8.16699 -7 9.5 -11z" />
    <glyph glyph-name="Xi" unicode="&#x39e;" horiz-adv-x="760" 
d="M579 -50l-490.003 -0.000976562c-2.66699 0 -6.5 1.66699 -11.5 5s-7.83301 9.33301 -8.5 18l6 50.5c2 17 4.33301 34.167 7 51.5c2.66699 16.667 5.16699 33.5 7.5 50.5s4.83301 34.167 7.5 51.5h23c-3.33301 -33.333 -3.66602 -61 -0.999023 -83
s9.33398 -40 20.001 -54c10.667 -13.333 26.167 -22.833 46.5 -28.5s46.833 -8.5 79.5 -8.5h165c34 0 62 3.5 84 10.5s40.333 17.5 55 31.5s26.834 31.833 36.501 53.5s19.5 47.834 29.5 78.501h20l-21 -85c-5.33301 -22.667 -10 -41.667 -14 -57l-8.5 -38l-6.5 -28h1
c-2 -6.66699 -6 -11.5 -12 -14.5s-11 -4.5 -15 -4.5zM239.997 649.999l429.996 0.00195312c1.33301 0 5 -1.5 11 -4.5s9.66699 -9.5 11 -19.5c-3.33301 -17.333 -6.16602 -34.666 -8.49902 -51.999s-4.83301 -34.666 -7.5 -51.999c-2.66699 -18 -5.16699 -35.667 -7.5 -53
s-4.83301 -34.333 -7.5 -51h-21v3c4.66699 61.333 -2.66602 105.666 -21.999 132.999s-60 41.666 -122 42.999h-106c-35.333 -0.666992 -63.666 -4.33398 -84.999 -11.001s-38.666 -17 -51.999 -31c-14 -14 -25.5 -31.833 -34.5 -53.5s-18.167 -47.834 -27.5 -78.501h-26
l12 50.5c4 17 8.33301 33.833 13 50.5l12 51.5c4 17 8.33301 34.167 13 51.5c2 6 5.66699 11.333 11 16s10 7 14 7zM550.993 371.001h24c-3.33301 -12.667 -6.33301 -25.167 -9 -37.5s-5.66699 -24.833 -9 -37.5l-8 -36.5c-2.66699 -12.333 -5 -24.833 -7 -37.5h-20
c-0.666992 20.667 -4.16699 35 -10.5 43s-15.5 12 -27.5 12h-190c-14 0 -25 -4 -33 -12s-17 -22.333 -27 -43h-23c4.66699 26 10 52 16 78l18 78h19v-19c0 -16.667 3.5 -26.5 10.5 -29.5s16.5 -4.5 28.5 -4.5h191c16 0 28.5 2.16699 37.5 6.5s15.5 17.5 19.5 39.5z" />
    <glyph glyph-name="Omicron" unicode="&#x39f;" horiz-adv-x="760" 
d="M441 660c38 0 72.499 -8.33301 103.499 -25s57.167 -38.667 78.5 -66c22 -27.333 39 -58.666 51 -93.999s18 -71.333 18 -108c0 -54 -10.167 -106.5 -30.5 -157.5s-47.833 -96.5 -82.5 -136.5c-34 -40 -73.833 -72.167 -119.5 -96.5s-93.5 -36.5 -143.5 -36.5
c-41.333 0 -77.5 8.33301 -108.5 25s-56.833 39 -77.5 67c-21.333 27.333 -37.166 58.666 -47.499 93.999s-15.5 71.333 -15.5 108c0 8.66699 0.5 18.5 1.5 29.5s2.5 21.5 4.5 31.5c10 46 26.5 91 49.5 135s50.5 83 82.5 117c32.667 34 69 61.333 109 82s82.333 31 127 31z
M423.999 615c-41.333 0 -78.334 -10.332 -111.001 -30.999s-61 -46.334 -85 -77.001c-24 -31.333 -43.5 -65.5 -58.5 -102.5s-25.5 -72.167 -31.5 -105.5c-2 -11.333 -3.5 -23.666 -4.5 -36.999s-1.5 -26.333 -1.5 -39c0 -29.333 3.16699 -58.166 9.5 -86.499
s16.833 -53.833 31.5 -76.5c15.333 -22 35.333 -40 60 -54s55.667 -21 93 -21c44.667 0 84 9.66699 118 29s63 44.333 87 75c23.333 30.667 42 64.667 56 102s23.667 73.666 29 108.999c1.33301 10 2.5 21 3.5 33s1.5 24 1.5 36c0 28.667 -3.33301 57.667 -10 87
s-17.667 55.666 -33 78.999s-35.666 42.5 -60.999 57.5s-56.333 22.5 -93 22.5z" />
    <glyph glyph-name="Pi" unicode="&#x3a0;" horiz-adv-x="860" 
d="M160 650l651.995 -0.0078125c-1.33301 -4 -2.33301 -7.5 -3 -10.5s-1.33398 -6.16699 -2.00098 -9.5c-0.666992 -2.66699 -1.16699 -5.5 -1.5 -8.5s-0.833008 -6.16699 -1.5 -9.5c-18.667 -1.33301 -33.667 -3.16602 -45 -5.49902s-20.666 -6.16602 -27.999 -11.499
c-6.66699 -5.33301 -12 -12.666 -16 -21.999s-7.66699 -21 -11 -35c-7.33301 -33.333 -14.666 -71.333 -21.999 -114l-22 -130l-21.5 -128.5c-7 -41.667 -12.833 -78.167 -17.5 -109.5c-5.33301 -30.667 -2 -49.667 10 -57s32.667 -11 62 -11l-5 -38h-235
c0.666992 5.33301 1.5 11.5 2.5 18.5s1.83301 13.5 2.5 19.5c16 0.666992 29.5 1.83398 40.5 3.50098s20.167 4.83398 27.5 9.50098c8 5.33301 14.333 12.833 19 22.5s9.33398 22.834 14.001 39.501l84 478c4 24 0.333008 41 -11 51s-31.666 16 -60.999 18
c-26 2 -52.833 3.16699 -80.5 3.5s-60.167 0.5 -97.5 0.5c-30.667 0 -52.667 -6 -66 -18s-23 -31 -29 -57l-84 -482c-3.33301 -17.333 -4.16602 -30.666 -2.49902 -39.999s5.5 -16 11.5 -20c6 -4.66699 14.333 -7.33398 25 -8.00098s23.667 -1 39 -1
c-0.666992 -3.33301 -1.16699 -6.66602 -1.5 -9.99902s-0.833008 -6.33301 -1.5 -9c-0.666992 -3.33301 -1 -6.66602 -1 -9.99902v-9h-239c1.33301 6 2.5 12.167 3.5 18.5s2.16699 12.833 3.5 19.5c34.667 1.33301 58.334 6.16602 71.001 14.499s22.667 26.166 30 53.499
l83 483c0.666992 6 1.33398 11.333 2.00098 16s1 9.33398 1 14.001c0 18 -7.33301 29.833 -22 35.5s-35.334 8.16699 -62.001 7.5h-6c2 6.66699 4 12.834 6 18.501s4 12.167 6 19.5z" />
    <glyph glyph-name="Rho" unicode="&#x3a1;" horiz-adv-x="710" 
d="M167 650l305 -0.000976562c22 -0.666992 44.5 -4.16699 67.5 -10.5s44.167 -15.833 63.5 -28.5c18.667 -12.667 34.167 -28.834 46.5 -48.501s18.5 -42.834 18.5 -69.501c0 -33.333 -7.33301 -64.166 -22 -92.499s-34 -53.166 -58 -74.499
c-23.333 -20.667 -50 -37 -80 -49s-60.333 -18 -91 -18h-169c-8 -40 -15.167 -77.833 -21.5 -113.5l-15.5 -89.5c-4 -30 -1.5 -49 7.5 -57s31.167 -11.667 66.5 -11c0 -4 -0.166992 -7.5 -0.5 -10.5s-0.5 -5.83301 -0.5 -8.5c-0.666992 -3.33301 -1 -6.5 -1 -9.5v-9.5h-238
l5 39c34 1.33301 57.833 6.83301 71.5 16.5s24.5 29.5 32.5 59.5l85 498c2 12 0.666992 21.167 -4 27.5s-11 11.166 -19 14.499c-8.66699 2.66699 -18 4.33398 -28 5.00098s-19 1.33398 -27 2.00098c0 2.66699 0.166992 5.5 0.5 8.5s0.833008 6.16699 1.5 9.5l2 10z
M446 611.999h-72.001c-28.667 0 -47.167 -3 -55.5 -9s-14.166 -18.667 -17.499 -38l-45 -267h95c33.333 0.666992 65.166 4.16699 95.499 10.5s56.833 16.833 79.5 31.5s40.834 34.167 54.501 58.5s20.5 54.5 20.5 90.5c0 38 -13.667 68 -41 90s-65.333 33 -114 33z" />
    <glyph glyph-name="Sigma" unicode="&#x3a3;" horiz-adv-x="720" 
d="M540 -50l-476.998 0.00292969c-6 0 -10.167 1.33301 -12.5 4s-3.5 6 -3.5 10c0 6 1.33301 12.167 4 18.5s6 12.166 10 17.499l259 295l-40 78.5l-50 95.5l-43.5 85.5c-12.333 25 -19.5 40.833 -21.5 47.5l-4.5 14c-1.66699 5.33301 -2.5 10.666 -2.5 15.999
c-0.666992 4.66699 0.166016 8.83398 2.49902 12.501s7.16602 5.5 14.499 5.5h470c3.33301 0 8.5 -2 15.5 -6s10.167 -10.333 9.5 -19c-2 -17.333 -4.16699 -34.833 -6.5 -52.5s-4.5 -35.5 -6.5 -53.5c-2 -17.333 -4.16699 -34.666 -6.5 -51.999s-4.83301 -34.333 -7.5 -51
v1h-23l-2 66.5c-0.666992 21.667 -4 41.5 -10 59.5c-6 17.333 -15.833 31.833 -29.5 43.5s-33.5 19.5 -59.5 23.5c-12 1.33301 -25.667 2.16602 -41 2.49902s-32.333 0.5 -51 0.5s-39.167 -0.166992 -61.5 -0.5s-45.833 -0.5 -70.5 -0.5c-24 0 -40.667 -2.33301 -50 -7
s-11 -13 -5 -25l66 -131l39 -73c9.33301 -16.667 16 -27.834 20 -33.501s7 -10.167 9 -13.5c5.33301 -9.33301 7 -18.333 5 -27s-6 -16.334 -12 -23.001l-49.5 -55l-70.5 -79l-68.5 -76.5l-41.5 -47.5c-12 -12.667 -15.667 -21.334 -11 -26.001s15.334 -7 32.001 -7
c62 0 115.167 0.166992 159.5 0.5s80.833 2.5 109.5 6.5c26.667 2.66699 48.667 9.83398 66 21.501s32 26.167 44 43.5c11.333 16.667 20.666 35.167 27.999 55.5l22 62.5l27 -2l1 1l-18 -72.5c-4 -16.333 -7.33301 -30.5 -10 -42.5l-8 -36.5l-12 -53.5
c-2 -8 -6.5 -13.667 -13.5 -17s-11.5 -5 -13.5 -5z" />
    <glyph glyph-name="Tau" unicode="&#x3a4;" horiz-adv-x="690" 
d="M125 650l494 0.00292969l3 -0.5c2 -0.333008 4 -1.16602 6 -2.49902s3.83301 -3.66602 5.5 -6.99902s2.5 -8 2.5 -14l-15 -110l-4 -27l-4 -25c-1.33301 -8.66699 -2.5 -17.334 -3.5 -26.001s-1.83301 -17.334 -2.5 -26.001h-22v2c4 30.667 6.33301 58.5 7 83.5
s-3 46.167 -11 63.5c-8 18 -21.333 31.667 -40 41s-45 14 -79 14c-28 0 -46.5 -2.16699 -55.5 -6.5s-15.167 -15.5 -18.5 -33.5l-94 -526c-2 -14 -1.16699 -25.167 2.5 -33.5s9.16699 -14.5 16.5 -18.5c8 -4.66699 17 -7.5 27 -8.5s20.667 -1.5 32 -1.5
c-0.666992 -2.66699 -1 -4.83398 -1 -6.50098s-0.333008 -3.83398 -1 -6.50098c-0.666992 -2 -1.33398 -5 -2.00098 -9s-1.33398 -9.33301 -2.00098 -16h-238l7 38c25.333 0.666992 47 4.5 65 11.5s28.667 23.833 32 50.5v1c0 0.666992 0.333008 3.33398 1 8.00098l3.5 20
c1.66699 9.33301 4.16699 22.333 7.5 39c2.66699 16.667 6.33398 37.667 11.001 63l17 93c6 36.667 13.5 80 22.5 130l31.5 173c2 15.333 -0.5 25.666 -7.5 30.999s-24.5 8 -52.5 8c-34 0 -61.5 -5.5 -82.5 -16.5s-37.833 -25.833 -50.5 -44.5
c-13.333 -18.667 -24.166 -40.334 -32.499 -65.001l-25.5 -78h-19c3.33301 18 7 36 11 54l12 54c3.33301 17.333 7 35 11 53l12 55c2 6.66699 5.83301 12 11.5 16s9.5 6 11.5 6z" />
    <glyph glyph-name="Upsilon" unicode="&#x3a5;" horiz-adv-x="570" 
d="M256 322l-50.001 -303.002c0 -13.333 5 -21.833 15 -25.5s25.667 -5.5 47 -5.5c0 -3.33301 -0.333008 -6.66602 -1 -9.99902l-2 -10c0 -3.33301 -0.333008 -6.5 -1 -9.5s-1 -5.83301 -1 -8.5h-209c1.33301 6 2.5 12.167 3.5 18.5s2.16699 12.833 3.5 19.5
c32 1.33301 52.5 4.66602 61.5 9.99902s15.167 18 18.5 38c0 1.33301 0.5 4.16602 1.5 8.49902s2.83301 15.833 5.5 34.5c3.33301 18.667 8 46.834 14 84.501l26 159.5c6 34.667 11.167 68.834 15.5 102.501s3.83301 63.834 -1.5 90.501c-6 26.667 -19 48.667 -39 66
s-51 27.333 -93 30c0 1.33301 0.666992 3.5 2 6.5s2.66602 5.83301 3.99902 8.5c0.666992 3.33301 1.66699 6.33301 3 9l3 6c22.667 -0.666992 44.5 -4.5 65.5 -11.5s39.5 -17.833 55.5 -32.5c16 -15.333 28.833 -35.333 38.5 -60s15.167 -54.334 16.5 -89.001
c12.667 22 29 45 49 69s41.667 46 65 66s47.333 36.667 72 50s48.334 20 71.001 20c18.667 0 33.334 -8.16699 44.001 -24.5s14.334 -36.5 11.001 -60.5c-2 -14.667 -9.16699 -26.5 -21.5 -35.5s-24.5 -13.5 -36.5 -13.5c-6 0 -12.833 4.5 -20.5 13.5
s-9.83398 20.5 -6.50098 34.5c0.666992 3.33301 1.66699 6.83301 3 10.5s3 7.5 5 11.5c1.33301 4 3 8.16699 5 12.5l6 12.5c-33.333 -11.333 -64.333 -28.666 -93 -51.999s-54 -49 -76 -77c-21.333 -28 -39 -56.667 -53 -86s-22.667 -55.333 -26 -78z" />
    <glyph glyph-name="Phi" unicode="&#x3a6;" horiz-adv-x="725" 
d="M296 26c-33.333 6 -64.832 15.5 -94.499 28.5s-55.5 29.167 -77.5 48.5c-22.667 19.333 -40.334 41.666 -53.001 66.999s-19 53.666 -19 84.999c0 42 10.667 81 32 117s48.333 68 81 96c33.333 27.333 69.833 49.833 109.5 67.5s78.167 29.167 115.5 34.5
c-2 15.333 -7.5 26 -16.5 32s-28.833 9.33301 -59.5 10c0 6 0.333008 12.333 1 19s2 13 4 19h210c0 -4 -0.333008 -7.83301 -1 -11.5s-1.33398 -6.83398 -2.00098 -9.50098c0 -3.33301 -0.333008 -6.33301 -1 -9s-1 -5.33398 -1 -8.00098
c-8.66699 -0.666992 -17.667 -1 -27 -1s-18 -1 -26 -3c-8.66699 -2 -16.667 -5.66699 -24 -11s-13 -13.666 -17 -24.999c31.333 -7.33301 61.666 -18 90.999 -32s55 -31 77 -51c22.667 -20 40.834 -43 54.501 -69s20.5 -54.333 20.5 -85c0 -44 -10.333 -83.333 -31 -118
s-47 -65 -79 -91c-32.667 -26 -68.667 -47.167 -108 -63.5s-77.666 -27.833 -114.999 -34.5c-5.33301 -11.333 -5.5 -19.666 -0.5 -24.999s12.167 -9.33301 21.5 -12c8.66699 -2 18.167 -3 28.5 -3h23.5c-0.666992 -3.33301 -1.16699 -6.66602 -1.5 -9.99902
s-0.833008 -6.66602 -1.5 -9.99902c0 -3.33301 -0.166992 -6.5 -0.5 -9.5s-0.833008 -5.83301 -1.5 -8.5h-209l5 38c20 0 40 1.83301 60 5.5s30.667 14.5 32 32.5zM126.001 297c-5.33301 -30.667 -4.16895 -59.001 3.49805 -85.001s19.834 -49.333 36.501 -70
s36.834 -38.334 60.501 -53.001s49.167 -25.667 76.5 -33l82 480c-36 -7.33301 -68.667 -18.666 -98 -33.999s-55 -33.666 -77 -54.999c-22.667 -21.333 -41.167 -45 -55.5 -71s-23.833 -52.333 -28.5 -79zM595.998 298.999c6 30.667 6 59.499 0 86.499s-17 50.5 -33 70.5
c-16 20.667 -36 37.834 -60 51.501s-50.333 23.167 -79 28.5l-82 -478c72.667 15.333 130.667 45.333 174 90s70 95 80 151z" />
    <glyph glyph-name="Chi" unicode="&#x3a7;" horiz-adv-x="755" 
d="M168 56l185 244.993l-125 263c-8.66699 18 -17.334 29.667 -26.001 35s-23.334 9 -44.001 11c-3.33301 0 -7.16602 0.333008 -11.499 1s-8.16602 1 -11.499 1l5 38h236c0 -3.33301 -0.333008 -6.66602 -1 -9.99902l-2 -10c0 -3.33301 -0.333008 -6.5 -1 -9.5
s-1 -5.83301 -1 -8.5c-36.667 -0.666992 -60.834 -3.83398 -72.501 -9.50098s-12.5 -17.167 -2.5 -34.5h-1l102 -218l176 229c6 11.333 5.33301 19.333 -2 24s-25.666 7 -54.999 7l6 40h198c0 -3.33301 -0.333008 -6.66602 -1 -9.99902l-2 -10
c0 -3.33301 -0.333008 -6.5 -1 -9.5s-1 -5.83301 -1 -8.5c-14.667 -1.33301 -27 -2.66602 -37 -3.99902s-19 -3.66602 -27 -6.99902c-8 -4 -15.5 -8.83301 -22.5 -14.5s-14.833 -13.167 -23.5 -22.5l-89.5 -109.5l-86.5 -108.5l-9 -11
c-1.33301 -2 -2.66602 -3.66699 -3.99902 -5s-2.33301 -2.66602 -3 -3.99902c-1.33301 -1.33301 -2.5 -2.66602 -3.5 -3.99902s-1.83301 -2.33301 -2.5 -3l32 -72.5l32 -67.5l29.5 -63.5l29.5 -60.5c13.333 -29.333 28.333 -47.833 45 -55.5s38 -11.5 64 -11.5
c-1.33301 -6 -2.5 -12.333 -3.5 -19s-1.5 -13 -1.5 -19h-243c0.666992 5.33301 1.5 11.5 2.5 18.5s1.83301 13.5 2.5 19.5c8 0 17.5 0.166992 28.5 0.5s20.833 1.83301 29.5 4.5s15 7 19 13s3.66699 15 -1 27l-105 233l-176 -236c-6.66699 -6.66699 -12 -12.667 -16 -18
s-4.33301 -9.66602 -1 -12.999c2.66699 -4 9.66699 -6.83301 21 -8.5s29.666 -2.5 54.999 -2.5c-1.33301 -6 -2.5 -12.333 -3.5 -19s-1.5 -13 -1.5 -19h-212c0.666992 6 1.5 12.333 2.5 19s1.83301 13.334 2.5 20.001c30 2 54.333 7.66699 73 17s37.667 26 57 50z" />
    <glyph glyph-name="Psi" unicode="&#x3a8;" horiz-adv-x="800" 
d="M415 537l-60.9971 -348.002c32 7.33301 64.333 15.833 97 25.5s56 22.5 70 38.5c14.667 16 25.5 37.5 32.5 64.5s11.5 56.833 13.5 89.5c1.33301 20 4 44 8 72s10.667 54.333 20 79c9.33301 25.333 22.333 46.833 39 64.5s38.667 26.5 66 26.5c15.333 0 27.333 -5 36 -15
s14 -21 16 -33s0.5 -23 -4.5 -33s-12.833 -15 -23.5 -15c-13.333 0 -21.833 3.16699 -25.5 9.5s-5.5 13.166 -5.5 20.499s-0.333008 14.333 -1 21s-4.33398 10 -11.001 10c-14.667 0 -29.167 -10.667 -43.5 -32s-21.5 -47.666 -21.5 -78.999v-25.5
c0 -7 0.333008 -13.167 1 -18.5c0 -6 0.166992 -11.333 0.5 -16s0.5 -9 0.5 -13c0 -42 -4.16699 -79.5 -12.5 -112.5s-21.833 -59.5 -40.5 -79.5c-26.667 -28.667 -59.834 -48.167 -99.501 -58.5s-77.834 -17.5 -114.501 -21.5l-20 -102c-4 -32.667 0.5 -52 13.5 -58
s33.5 -8.66699 61.5 -8h4c-0.666992 -4 -1.33398 -7.66699 -2.00098 -11s-1 -6.66602 -1 -9.99902c-0.666992 -2.66699 -1.16699 -5.66699 -1.5 -9s-0.5 -6.66602 -0.5 -9.99902h-238c0 3.33301 0.333008 6.5 1 9.5s1 6.16699 1 9.5
c0.666992 3.33301 1.16699 6.66602 1.5 9.99902s0.833008 7 1.5 11c32.667 1.33301 56.167 5.5 70.5 12.5s24.5 25.5 30.5 55.5l20 100c-27.333 4 -53 9.66699 -77 17s-45 17.333 -63 30c-18 13.333 -32.167 29.833 -42.5 49.5s-15.5 44.167 -15.5 73.5
c0 20 3.66699 43.833 11 71.5s16.666 53.5 27.999 77.5c4 9.33301 8.16699 22.333 12.5 39s7.16602 33 8.49902 49c0.666992 15.333 -1.16602 28.166 -5.49902 38.499s-12.833 13.5 -25.5 9.5c-8 -2.66699 -12.833 -7.5 -14.5 -14.5s-3.16699 -14.167 -4.5 -21.5
s-4.33301 -13.666 -9 -18.999s-14 -8 -28 -8c-7.33301 0 -13.666 3.83301 -18.999 11.5s-8 17.167 -8 28.5c0 18 6.66699 32.5 20 43.5s28 16.5 44 16.5c30 0 51.833 -11.333 65.5 -34s20.5 -49 20.5 -79c0 -19.333 -2.16699 -40 -6.5 -62s-10.166 -44 -17.499 -66
c-6 -19.333 -11.167 -38.5 -15.5 -57.5s-6.5 -33.833 -6.5 -44.5c0 -17.333 4.33301 -32.666 13 -45.999s20 -25 34 -35s30 -18.167 48 -24.5s36.333 -10.833 55 -13.5c4.66699 22.667 10.334 52.5 17.001 89.5s13 73.833 19 110.5l16 97.5c4.66699 28.333 8 45.833 10 52.5
c4 18 5.16699 32 3.5 42s-5.83398 17.333 -12.501 22c-6.66699 4 -15.334 6.5 -26.001 7.5s-23 1.83301 -37 2.5c0 2.66699 0.166992 5.5 0.5 8.5s0.833008 6.16699 1.5 9.5l2 10l2 10h233l-6 -38c-32.667 -1.33301 -57.167 -5.83301 -73.5 -13.5
s-26.166 -28.167 -29.499 -61.5z" />
    <glyph glyph-name="Omega" unicode="&#x3a9;" horiz-adv-x="750" 
d="M414 75l-11.999 -71.0029h34c26.667 0.666992 49.167 2.16699 67.5 4.5s34.166 7.5 47.499 15.5c12.667 7.33301 23.667 18.166 33 32.499s18.666 33.833 27.999 58.5l27 -2c-2 -6.66699 -5.16699 -16.5 -9.5 -29.5l-13.5 -41.5l-13 -41.5
c-4 -13 -6.66699 -22.167 -8 -27.5c-2 -6 -5.83301 -11.333 -11.5 -16s-9.5 -7 -11.5 -7h-218c2 13.333 4.33301 26.833 7 40.5l8 40.5l8 41.5c2.66699 13.667 5.66699 27.5 9 41.5c32 6 61 17.333 87 34s49 36.667 69 60c19.333 22.667 35.166 47.834 47.499 75.501
s21.5 55.834 27.5 84.501c6 33.333 5.66699 65.666 -1 96.999s-18.667 59 -36 83s-39.5 43.167 -66.5 57.5s-57.833 21.5 -92.5 21.5c-36 0 -69.167 -8 -99.5 -24s-57.166 -36.333 -80.499 -61c-23.333 -25.333 -42.666 -53.333 -57.999 -84s-25.666 -61 -30.999 -91
s-5.33301 -59 0 -87s15.333 -53.333 30 -76c14 -22.667 32.5 -42 55.5 -58s49.5 -26.667 79.5 -32l-8 -41.5l-8 -40.5c-3.33301 -14 -6.33301 -27.833 -9 -41.5s-5 -27.167 -7 -40.5h-222c-5.33301 0 -10 2.33301 -14 7s-5 11.334 -3 20.001l18 158l22 1
c0 -28.667 1.83301 -51.667 5.5 -69s10.5 -30.666 20.5 -39.999c9.33301 -9.33301 22.5 -15.5 39.5 -18.5s38.833 -4.5 65.5 -4.5h38l16 71c-32.667 11.333 -61.334 26.833 -86.001 46.5s-45 42.167 -61 67.5s-26.833 53 -32.5 83s-5.5 61 0.5 93
c10 42.667 26.5 82.167 49.5 118.5s50.5 67.833 82.5 94.5c31.333 26 65.833 46.5 103.5 61.5s76.167 22.5 115.5 22.5c38.667 0 75.334 -8.5 110.001 -25.5s64 -39.167 88 -66.5s41.167 -58.666 51.5 -93.999s10.5 -71.333 0.5 -108
c-10.667 -32.667 -25.667 -64.667 -45 -96s-41.333 -60.333 -66 -87s-51.334 -49.667 -80.001 -69s-58 -33 -88 -41z" />
    <glyph glyph-name="alpha" unicode="&#x3b1;" horiz-adv-x="630" 
d="M440 285c0 -9.33301 -0.834961 -19.6709 -2.50195 -31.0039s-4.5 -27.666 -8.5 -48.999c8 17.333 15.667 35 23 53s15 35.667 23 53s16.333 34.5 25 51.5s18.334 33.5 29.001 49.5c4 6 8.33301 9 13 9s9 -2 13 -6c4 -3.33301 7.5 -8 10.5 -14s4.5 -11.667 4.5 -17
s-1.33301 -11.833 -4 -19.5s-5 -13.5 -7 -17.5l-37 -65.5c-14 -25.667 -27 -52.5 -39 -80.5s-21.833 -55.5 -29.5 -82.5s-10.167 -50.167 -7.5 -69.5c3.33301 -12 13 -22.333 29 -31s32 -13.334 48 -14.001c10.667 0.666992 18.334 -1.16602 23.001 -5.49902
s5 -11.833 1 -22.5c-4.66699 -9.33301 -14 -15.666 -28 -18.999s-29 -4.33301 -45 -3c-7.33301 0.666992 -15.5 2.5 -24.5 5.5s-17.833 8.16699 -26.5 15.5s-16.167 17.166 -22.5 29.499s-10.5 27.833 -12.5 46.5c-9.33301 -13.333 -21 -26.666 -35 -39.999
s-29 -25.666 -45 -36.999c-16 -10.667 -32.167 -19.5 -48.5 -26.5s-30.5 -10.5 -42.5 -10.5c-56 0 -98 17.667 -126 53s-42 79 -42 131c0 27.333 4.16699 56 12.5 86s18.5 56.333 30.5 79c10 19.333 22 38 36 56s29.333 34 46 48s34.5 25.167 53.5 33.5
s38.833 12.5 59.5 12.5c22 0 42.333 -4 61 -12s34.667 -19 48 -33c13.333 -13.333 24 -29.166 32 -47.499s12 -37.833 12 -58.5zM308.998 389.995c-31.333 0 -59.501 -10.666 -84.501 -31.999s-46.167 -47.333 -63.5 -78c-18 -30 -31.5 -61.833 -40.5 -95.5
s-13.5 -62.5 -13.5 -86.5c0 -32 11 -58 33 -78s48 -30 78 -30c19.333 0 37.5 5.16699 54.5 15.5s32.167 23.166 45.5 38.499s25 32 35 50s18 34.667 24 50c5.33301 20 11 43.333 17 70s8 52.334 6 77.001c-1.33301 25.333 -8.66602 47.166 -21.999 65.499
s-36.333 29.5 -69 33.5z" />
    <glyph glyph-name="beta" unicode="&#x3b2;" horiz-adv-x="570" 
d="M124 45c-2.66699 -10 -5.1709 -21.0049 -7.50391 -33.0049s-4.16602 -23.667 -5.49902 -35s-2.5 -21.666 -3.5 -30.999s-1.5 -16 -1.5 -20c-2.66699 -32 -5.5 -55.833 -8.5 -71.5s-7.5 -23.167 -13.5 -22.5c-9.33301 0 -16.5 3.83301 -21.5 11.5s-7.83301 16.5 -8.5 26.5
c4 50.667 10.333 106 19 166s17 114.333 25 163c4 26 8.66699 52.167 14 78.5l16 79.5c5.33301 26 11 52.167 17 78.5l18 78.5c6 27.333 15.5 50.333 28.5 69s28.167 33.334 45.5 44.001s36 17.334 56 20.001s40 2.33398 60 -0.999023c20 -4 39.167 -11 57.5 -21
s34.5 -22.667 48.5 -38s25.333 -33 34 -53s13 -41.667 13 -65c0 -42 -11.667 -75 -35 -99s-52.666 -42.333 -87.999 -55c24.667 -19.333 44.334 -41.5 59.001 -66.5s24.334 -50.5 29.001 -76.5c4.66699 -26.667 4.33398 -53 -0.999023 -79s-16 -50 -32 -72
c-20.667 -28 -45 -46.5 -73 -55.5s-56.667 -11.167 -86 -6.5s-57.833 14.834 -85.5 30.501s-50.834 34.167 -69.501 55.5zM364.996 299.995c-4.66699 -0.666992 -9.50391 -1.16992 -14.5039 -1.50293s-10.167 -0.5 -15.5 -0.5c-6 0 -11.5 0.166992 -16.5 0.5
s-9.5 1.16602 -13.5 2.49902c-14 2.66699 -26.167 8.33398 -36.5 17.001s-15.833 17.334 -16.5 26.001c0.666992 8.66699 4.16699 15.167 10.5 19.5s15.5 5.5 27.5 3.5l22 -6c7.33301 -2 17 -6 29 -12c17.333 2 32.833 7.5 46.5 16.5s25.167 19.5 34.5 31.5
s16.333 24.833 21 38.5s7 27.167 7 40.5c-0.666992 31.333 -9 58.833 -25 82.5s-37 39.5 -63 47.5c-32 8.66699 -64 3.33398 -96 -15.999s-53.667 -51.666 -65 -96.999c-8.66699 -32.667 -17.5 -70.834 -26.5 -114.501s-16.167 -83.5 -21.5 -119.5
c-6 -36 -10.333 -69.667 -13 -101s-2.66699 -51.333 0 -60c6.66699 -24 22.334 -43.167 47.001 -57.5s51.334 -22.833 80.001 -25.5c28.667 -2 55.834 2 81.501 12s42.834 27.333 51.501 52c14 42.667 18.833 80.834 14.5 114.501s-20.833 69.167 -49.5 106.5z" />
    <glyph glyph-name="gamma" unicode="&#x3b3;" horiz-adv-x="590" 
d="M170 400c-22 8.66699 -42.3291 8.33203 -60.9961 -1.00098s-30 -22 -34 -38c-2.66699 -10.667 -6.5 -19.834 -11.5 -27.501s-10.167 -12.834 -15.5 -15.501c-4.66699 -3.33301 -8.83398 -3.83301 -12.501 -1.5s-5.5 8.5 -5.5 18.5c0 16.667 4 32.834 12 48.501
s18.667 29.167 32 40.5c12.667 12 26.834 21.333 42.501 28s30.834 9.33398 45.501 8.00098c31.333 -3.33301 56.166 -18 74.499 -44s32.166 -57 41.499 -93c9.33301 -35.333 15.333 -72.333 18 -111s4.66699 -71.667 6 -99l45 80.5l43 75.5l40.5 73l39.5 72
c6.66699 13.333 13.834 23.666 21.501 30.999s15.5 11 23.5 11s15.167 -3.5 21.5 -10.5s9.5 -16.833 9.5 -29.5c0 -9.33301 -1.66699 -18 -5 -26s-8 -16 -14 -24h1c-40.667 -52 -79.334 -104.5 -116.001 -157.5s-65.334 -104.167 -86.001 -153.5
c-8 -18 -14.5 -36.333 -19.5 -55s-10.167 -37 -15.5 -55c-4.66699 -18 -10.167 -35.667 -16.5 -53s-13.833 -33.666 -22.5 -48.999h2c-4.66699 -6 -9.5 -10.667 -14.5 -14s-9.83301 -5 -14.5 -5c-12 0 -21.167 4.33301 -27.5 13s-9.5 21 -9.5 37c0 10 3.33301 24.333 10 43
s14.667 38 24 58s19.166 39.167 29.499 57.5s19.166 32.833 26.499 43.5c-5.33301 24 -9.5 52.5 -12.5 85.5s-7.5 65.5 -13.5 97.5s-15.167 60.833 -27.5 86.5s-30.5 43.834 -54.5 54.501z" />
    <glyph glyph-name="delta" unicode="&#x3b4;" horiz-adv-x="560" 
d="M282 390c-29.333 0 -54.501 -8.66699 -75.501 -26s-38.5 -38.333 -52.5 -63c-13.333 -24 -23.333 -49.5 -30 -76.5s-10 -49.833 -10 -68.5c0 -22 3 -43.667 9 -65s15.333 -40.666 28 -57.999s28.667 -31.333 48 -42s42 -16 68 -16c30 0 55 8.66699 75 26
s36.333 38.333 49 63c12 24.667 20.667 50.667 26 78s8 50.666 8 69.999c0 20.667 -2.66699 41.5 -8 62.5s-13.666 40.167 -24.999 57.5c-11.333 16.667 -26 30.5 -44 41.5s-40 16.5 -66 16.5zM392.999 386c32 -24 56.167 -54.167 72.5 -90.5s24.5 -73.5 24.5 -111.5
c0 -31.333 -5.16699 -61.833 -15.5 -91.5s-24.5 -56.167 -42.5 -79.5c-18 -24 -39.5 -43 -64.5 -57s-51.833 -21 -80.5 -21c-36 0 -68.333 6 -97 18s-53 28.667 -73 50c-20.667 22 -36.334 48.167 -47.001 78.5s-16 63.833 -16 100.5c0 6.66699 0.5 15.334 1.5 26.001
s2.5 20 4.5 28l-1 -1c6.66699 26.667 17.667 51.5 33 74.5s33.666 43.167 54.999 60.5c20.667 17.333 43.5 31.166 68.5 41.499s50.833 15.833 77.5 16.5c-18 20.667 -34.333 42.5 -49 65.5s-26 45.167 -34 66.5c-4 14.667 -5.16699 29.334 -3.5 44.001s5.5 28 11.5 40
c6.66699 12 15.5 21.667 26.5 29s24.167 11 39.5 11c20.667 0 41.667 -5.16699 63 -15.5s41.333 -23.5 60 -39.5c19.333 -16 37 -33.667 53 -53s30 -37.666 42 -54.999c7.33301 -12 13.5 -26.167 18.5 -42.5s2.5 -29.166 -7.5 -38.499s-18 -10.833 -24 -4.5
s-13 17.166 -21 32.499c-7.33301 13.333 -17 28.666 -29 45.999s-25.333 34 -40 50c-14.667 15.333 -30.5 28.833 -47.5 40.5s-33.833 19.167 -50.5 22.5c-16.667 2 -30.167 0.666992 -40.5 -4s-18.166 -12.334 -23.499 -23.001c-8 -15.333 -6.33301 -33.5 5 -54.5
s26 -41.833 44 -62.5c18.667 -21.333 38.334 -40.833 59.001 -58.5s36.667 -30.5 48 -38.5z" />
    <glyph glyph-name="epsilon" unicode="&#x3b5;" horiz-adv-x="520" 
d="M398 380c-11.333 14.667 -30.166 25.3311 -56.499 31.998s-52.833 10 -79.5 10c-36 0 -66 -9 -90 -27s-36 -41.333 -36 -70c0 -16.667 4.33301 -31 13 -43s19.667 -22 33 -30c14 -8 29 -13.833 45 -17.5s31.667 -5.5 47 -5.5c4.66699 0 11 0.333008 19 1s15.667 1 23 1
c8 -0.666992 14.667 -2.33398 20 -5.00098s8 -7.33398 8 -14.001c0 -8 -5.16699 -14 -15.5 -18s-25.5 -6 -45.5 -6s-39.667 -1.66699 -59 -5s-36.666 -8.66602 -51.999 -15.999c-15.333 -8 -27.666 -18.667 -36.999 -32s-14 -30 -14 -50
c0 -34.667 14.5 -62.334 43.5 -83.001s71.167 -31 126.5 -31c15.333 0 30.5 1.5 45.5 4.5s28.167 8.16699 39.5 15.5c12 6.66699 21.667 15.334 29 26.001s11 23.334 11 38.001c0 14 2.5 26.667 7.5 38s12.5 16.333 22.5 15c8.66699 -4 15.167 -11.167 19.5 -21.5
s5.16602 -21.833 2.49902 -34.5c-4 -18.667 -12 -35.167 -24 -49.5s-26.667 -26.5 -44 -36.5c-16.667 -10 -35.167 -17.667 -55.5 -23s-40.5 -8 -60.5 -8c-75.333 0 -131.833 12.167 -169.5 36.5s-56.5 60.833 -56.5 109.5c0 28 9.33301 53.167 28 75.5s49 40.5 91 54.5
c-34 10.667 -59.667 25.834 -77 45.501s-26 43.834 -26 72.501c0 36 14.833 66.5 44.5 91.5s77.5 37.5 143.5 37.5c18 0 36.833 -1.66699 56.5 -5s38.5 -8.66602 56.5 -15.999c17.333 -8 32.666 -18.5 45.999 -31.5s23 -29.167 29 -48.5
c2.66699 -10 2.16699 -20.333 -1.5 -31s-8.16699 -16.667 -13.5 -18c-10 -2.66699 -17.5 0.333008 -22.5 9s-8.5 18 -10.5 28c-0.666992 1.33301 -1 3.5 -1 6.5v10.5c0 3.33301 -0.333008 6.66602 -1 9.99902s-1.33398 6 -2.00098 8z" />
    <glyph glyph-name="zeta" unicode="&#x3b6;" horiz-adv-x="520" 
d="M194 653c-14 -10.667 -27.334 -23.8301 -40.001 -39.4971s-19 -31.5 -19 -47.5c0 -8 2 -16 6 -24s12.667 -15 26 -21c15.333 -6 34.5 -3.5 57.5 7.5s46.5 26.167 70.5 45.5c10 7.33301 21.833 16.666 35.5 27.999s27.834 20.666 42.501 27.999
c14.667 8 28.834 12.5 42.501 13.5s25.167 -4.83301 34.5 -17.5c8 -11.333 9.66699 -22.833 5 -34.5s-12.334 -22.5 -23.001 -32.5c-10.667 -10.667 -22.5 -20.167 -35.5 -28.5s-23.5 -14.833 -31.5 -19.5c-18.667 -10 -39.834 -18.833 -63.501 -26.5
s-56.5 -14.834 -98.5 -21.501c-15.333 -18.667 -30.166 -38.667 -44.499 -60s-26.833 -43 -37.5 -65s-19.167 -44.167 -25.5 -66.5s-9.5 -43.5 -9.5 -63.5c0 -26 4.83301 -48 14.5 -66s22.834 -33 39.501 -45c16.667 -11.333 35.834 -19.5 57.501 -24.5
s44.167 -7.5 67.5 -7.5c15.333 0 30.833 -2.5 46.5 -7.5s29.834 -11.5 42.501 -19.5c13.333 -8.66699 24.5 -18.834 33.5 -30.501s15.167 -24.167 18.5 -37.5c4 -24 1.33301 -45.5 -8 -64.5s-22.333 -33.5 -39 -43.5c-20 -11.333 -40.333 -19 -61 -23s-41 -6 -61 -6
c-22 0 -43.667 3 -65 9s-32 16.333 -32 31c-0.666992 10 2.16602 18.167 8.49902 24.5s17.5 9.5 33.5 9.5c4.66699 -0.666992 10.167 -1.33398 16.5 -2.00098s13.166 -1.66699 20.499 -3c8 -1.33301 16.667 -2.66602 26 -3.99902s19.333 -2.66602 30 -3.99902
c26.667 -4 46.667 -2.66699 60 4s20 19 20 37c-0.666992 10.667 -6.33398 19.667 -17.001 27s-23.334 13.333 -38.001 18s-29.5 8 -44.5 10s-26.833 3.66699 -35.5 5c-49.333 4 -87.666 24 -114.999 60s-44 80 -50 132c2 52 15.167 102.5 39.5 151.5s51.5 92.5 81.5 130.5
c-26 11.333 -43.833 25.166 -53.5 41.499s-15.5 38.5 -17.5 66.5c-1.33301 12 1 25.833 7 41.5s13.667 30.167 23 43.5c9.33301 14 20 25.833 32 35.5s23.667 14.5 35 14.5c6 0 9.33301 -2.83301 10 -8.5s0 -12.167 -2 -19.5c-2 -6.66699 -4.66699 -13.167 -8 -19.5
s-6 -10.166 -8 -11.499z" />
    <glyph glyph-name="eta" unicode="&#x3b7;" horiz-adv-x="570" 
d="M65 399c-6.66699 -1.33301 -12.502 -0.833984 -17.502 1.49902s-7.5 4.5 -7.5 6.5c0 4 1 8.16699 3 12.5s4.33301 7.83301 7 10.5c14.667 14.667 30 21.334 46 20.001s31 -7.33301 45 -18c13.333 -10 24.5 -23.333 33.5 -40s14.167 -32.334 15.5 -47.001l30 33
c11.333 12 24 23.667 38 35c13.333 10.667 28.333 20 45 28s35 12.667 55 14c18.667 0 37.167 -3.66699 55.5 -11s34.5 -17.666 48.5 -30.999s24.833 -29 32.5 -47s11.167 -38 10.5 -60c-2 -30 -5.33301 -59.5 -10 -88.5s-10.667 -57.167 -18 -84.5
c-6.66699 -28 -14.167 -55.5 -22.5 -82.5l-24.5 -80.5l-10 -31.5c-3.33301 -11 -7 -21.833 -11 -32.5c-3.33301 -11.333 -7 -22.333 -11 -33s-8.33301 -20.667 -13 -30c-6 -12 -12.667 -20.5 -20 -25.5s-17 -5.5 -29 -1.5c-9.33301 4.66699 -14.166 12.5 -14.499 23.5
s1.5 20.5 5.5 28.5l40 97c14.667 36 27 70 37 102c6 19.333 11.833 40.166 17.5 62.499s10.834 44.5 15.501 66.5c4 22.667 7.5 44.834 10.5 66.501s4.5 41.5 4.5 59.5c0 26 -10 47.833 -30 65.5s-44 26.5 -72 26.5c-19.333 0 -38.166 -6.16699 -56.499 -18.5
s-35.166 -27.166 -50.499 -44.499c-15.333 -18 -28.5 -37 -39.5 -57s-18.833 -38 -23.5 -54c-6 -18.667 -10.833 -43.167 -14.5 -73.5s-8.83398 -59.833 -15.501 -88.5c-6 -28.667 -14.167 -53 -24.5 -73s-24.833 -29 -43.5 -27c-9.33301 0.666992 -13.833 7.5 -13.5 20.5
s2.5 27.5 6.5 43.5s8.66699 31 14 45s8.66602 22.333 9.99902 25c12.667 26 23.667 54.333 33 85s14 61 14 91c0 11.333 -0.666992 24.166 -2 38.499s-4.33301 27.5 -9 39.5c-5.33301 11.333 -13.5 20.333 -24.5 27s-26.167 8.66699 -45.5 6z" />
    <glyph glyph-name="theta" unicode="&#x3b8;" horiz-adv-x="520" 
d="M458 348c0 -16 -0.833984 -33.9971 -2.50098 -53.9971s-4.16699 -38 -7.5 -54c-6 -26 -16.167 -57.667 -30.5 -95s-32.5 -72 -54.5 -104c-21.333 -32.667 -45.833 -58.5 -73.5 -77.5s-57.5 -23.5 -89.5 -13.5c-30 10.667 -54 27 -72 49s-31.667 47.333 -41 76
c-10 28.667 -16.5 59 -19.5 91s-4.5 63 -4.5 93c0 16 0.333008 32.167 1 48.5s2 31.5 4 45.5c6 31.333 15.333 64.666 28 99.999s28.334 68 47.001 98c18.667 29.333 40 53.833 64 73.5s50.333 29.5 79 29.5c32.667 0 60.334 -10.333 83.001 -31s41 -46.334 55 -77.001
c13.333 -30.667 22.666 -63.834 27.999 -99.501s7.33301 -68.5 6 -98.5zM393.999 291.003h-276.001c-3.33301 -20 -5.5 -45.667 -6.5 -77s0.833008 -62.333 5.5 -93c5.33301 -31.333 14.333 -59.333 27 -84s31.334 -40.334 56.001 -47.001
c30 -9.33301 56.333 -3.16602 79 18.501s42 49.5 58 83.5s28.5 69.833 37.5 107.5s15.5 68.167 19.5 91.5zM119.998 328.003l280 0.000976562c2.66699 21.333 4.33398 46.166 5.00098 74.499s-1.33301 56.5 -6 84.5c-5.33301 27.333 -14.666 52.5 -27.999 75.5
s-32.333 40.167 -57 51.5c-27.333 11.333 -51.833 7.33301 -73.5 -12s-40.5 -45.333 -56.5 -78c-16.667 -32.667 -30.334 -67.5 -41.001 -104.5s-18.334 -67.5 -23.001 -91.5z" />
    <glyph glyph-name="iota" unicode="&#x3b9;" horiz-adv-x="310" 
d="M185 450l-1.00391 -0.00195312c6.66699 -2 11.667 -7 15 -15s4.33301 -18 3 -30c-3.33301 -28.667 -8.33301 -56.834 -15 -84.501s-14 -54.5 -22 -80.5l-16 -46c-5.33301 -15.333 -10.333 -30.666 -15 -45.999c-5.33301 -15.333 -10 -30.833 -14 -46.5
s-6.66699 -31.167 -8 -46.5c-2 -14 3.5 -25.333 16.5 -34s28.167 -13 45.5 -13c10.667 -0.666992 21 -0.166992 31 1.5s19 6.16699 27 13.5c16.667 14 28.5 20.5 35.5 19.5s10.167 -5.5 9.5 -13.5c0 -8 -3.16699 -17.833 -9.5 -29.5s-14.166 -20.5 -23.499 -26.5
c-16 -10.667 -32.167 -18.667 -48.5 -24s-33.166 -6 -50.499 -2c-26 4 -45.667 18.833 -59 44.5s-18.666 53.834 -15.999 84.501c1.33301 18 3.5 36 6.5 54s6.16699 36 9.5 54c2.66699 17.333 5.66699 34.666 9 51.999l10 53c3.33301 22 7.5 44.333 12.5 67
s10.5 44.667 16.5 66c2 6.66699 6.83301 13.834 14.5 21.501s19.834 9.83398 36.501 6.50098z" />
    <glyph glyph-name="kappa" unicode="&#x3ba;" horiz-adv-x="540" 
d="M159 438c16 -2 27.832 -4.83594 35.499 -8.50293s11.5 -10.5 11.5 -20.5c-0.666992 -8 -2.83398 -19 -6.50098 -33s-7.83398 -29 -12.501 -45s-9.66699 -32.167 -15 -48.5l-14 -43.5h62c28.667 0 49.667 8.83301 63 26.5s27.333 42.5 42 74.5
c14 32 31.333 57.167 52 75.5s41.667 25.833 63 22.5c12 -2.66699 23.5 -9.66699 34.5 -21s16.167 -26 15.5 -44c-2 -20.667 -9.16699 -32.667 -21.5 -36s-23.833 2 -34.5 16c-6 6.66699 -15 10 -27 10s-23.333 -3.33301 -34 -10c-8 -6.66699 -14.667 -14.334 -20 -23.001
s-10 -17.667 -14 -27l-11.5 -28c-3.66699 -9.33301 -7.83398 -17.666 -12.501 -24.999c-5.33301 -8 -10.666 -14.5 -15.999 -19.5s-10.666 -9.16699 -15.999 -12.5s-10.5 -6.16602 -15.5 -8.49902l-13.5 -6.5c14 -11.333 26.333 -22.5 37 -33.5s17 -25.5 19 -43.5
c1.33301 -16 2.83301 -30.667 4.5 -44s4.83398 -25 9.50098 -35c4 -9.33301 10 -17 18 -23s19 -9.66699 33 -11c10 -1.33301 21.833 3 35.5 13s23.5 21 29.5 33c4.66699 10.667 10.834 18.5 18.501 23.5s11.5 -1.5 11.5 -19.5c0 -5.33301 -1.16699 -11.166 -3.5 -17.499
s-4.5 -11.5 -6.5 -15.5c-12 -25.333 -27.167 -45.5 -45.5 -60.5s-36.5 -22.5 -54.5 -22.5c-16 0 -31.5 3.83301 -46.5 11.5s-24.5 21.5 -28.5 41.5c-2.66699 10.667 -4.66699 22.167 -6 34.5s-2.33301 24.833 -3 37.5c-1.33301 12 -2.33301 24 -3 36s-2 23 -4 33
c-2.66699 11.333 -8.66699 20.833 -18 28.5s-22.333 11.5 -39 11.5h-65l-4 -23l-4 -21c-0.666992 -7.33301 -1.5 -14.5 -2.5 -21.5s-1.83301 -13.833 -2.5 -20.5c-3.33301 -22 -7 -43.667 -11 -65s-8 -40.666 -12 -57.999c-3.33301 -14 -11 -21.667 -23 -23
s-22 0.666992 -30 6c-4 2 -6.33301 5.66699 -7 11s-0.666992 11 0 17c0.666992 6.66699 1.66699 13.167 3 19.5s2.66602 11.5 3.99902 15.5c14.667 54.667 26.834 105.667 36.501 153l26.5 133c2.66699 16.667 5.5 33.5 8.5 50.5s6.5 34.167 10.5 51.5
c2 10 4.66699 17.833 8 23.5s7 8.5 11 8.5z" />
    <glyph glyph-name="lambda" unicode="&#x3bb;" horiz-adv-x="520" 
d="M143 632c0 9.33301 3.33594 18.9941 10.0029 28.9941s15 15 25 15c5.33301 0 12.666 -2.5 21.999 -7.5l35 -19.5c17.333 -11.333 31.666 -25.166 42.999 -41.499s19 -33.5 23 -51.5c2.66699 -14.667 4.5 -28.834 5.5 -42.501s1.83301 -27.167 2.5 -40.5l2 -39.5
c0.666992 -13 2 -25.833 4 -38.5c2.66699 -32 8.5 -65.167 17.5 -99.5s19.833 -68.5 32.5 -102.5c12 -34 25.167 -67 39.5 -99s28.833 -61.333 43.5 -88c2.66699 -6 5.16699 -13.333 7.5 -22s3.16602 -17 2.49902 -25s-3.16699 -14.833 -7.5 -20.5s-11.5 -8.5 -21.5 -8.5
c-7.33301 0 -15 4.66699 -23 14s-16 21 -24 35c-7.33301 13.333 -14.333 27.666 -21 42.999s-12 28.666 -16 39.999c-8 19.333 -16.333 45.833 -25 79.5s-14 67.167 -16 100.5c-0.666992 6.66699 -1.83398 15.834 -3.50098 27.501s-3.16699 23.834 -4.5 36.501
c-2 12 -3.5 23.833 -4.5 35.5s-1.5 20.5 -1.5 26.5c-42 -57.333 -77 -113.666 -105 -168.999s-46.333 -106.666 -55 -153.999c-8 -38.667 -18.167 -68.5 -30.5 -89.5s-25.833 -29.5 -40.5 -25.5c-4 0.666992 -7.16699 4.33398 -9.5 11.001s-3.5 15.334 -3.5 26.001
c0 20.667 5.66699 45 17 73s23.666 53 36.999 75c6 9.33301 12 19.333 18 30s12.333 21.334 19 32.001l19.5 32l18.5 31c8.66699 14.667 17.667 29.167 27 43.5l28 43.5l27.5 42.5l27.5 43.5c-2.66699 14 -4.5 27.667 -5.5 41s-2.5 25.666 -4.5 36.999
c-2.66699 12 -7.16699 23 -13.5 33s-15.833 19.333 -28.5 28c-9.33301 4 -19.166 8.83301 -29.499 14.5s-20.166 12.167 -29.499 19.5c-8.66699 6.66699 -16 13.834 -22 21.501s-9 15.834 -9 24.501z" />
    <glyph glyph-name="mu" unicode="&#x3bc;" horiz-adv-x="560" 
d="M157 391c6 15.333 12.5068 26.999 19.5068 34.999s14.833 12 23.5 12c10 0 18.167 -3.66699 24.5 -11s9.5 -18 9.5 -32c0 -13.333 -1.66699 -26.5 -5 -39.5s-7.33301 -25.5 -12 -37.5s-9.83398 -23.667 -15.501 -35s-10.834 -22.333 -15.501 -33
c-8.66699 -16.667 -15.834 -33 -21.501 -49s-10.834 -32 -15.501 -48c-4.66699 -15.333 -8.83398 -31 -12.501 -47s-7.16699 -32.333 -10.5 -49c13.333 -19.333 29.5 -34.666 48.5 -45.999s42.167 -16 69.5 -14c36.667 2 64.834 12.833 84.501 32.5
s32.834 39.167 39.501 58.5c3.33301 10 6.33301 20.333 9 31s5 22 7 34l6 37.5c2 13 4.33301 27.167 7 42.5c3.33301 23.333 7.66602 49.5 12.999 78.5s12 54.5 20 76.5c4 10.667 9.83301 19.834 17.5 27.501s15.167 11.5 22.5 11.5c15.333 0 24.166 -5 26.499 -15
s3.5 -20.333 3.5 -31c-1.33301 -13.333 -4 -28.5 -8 -45.5s-8.66699 -34.167 -14 -51.5s-11 -34.333 -17 -51s-11.333 -30.667 -16 -42l-14 -36.5c-5.33301 -14.333 -10 -28.833 -14 -43.5c-4 -15.333 -6.83301 -29.333 -8.5 -42s-0.833984 -22.334 2.49902 -29.001
c8 -10 17.667 -17.667 29 -23s23 -8 35 -8c5.33301 0 10.666 0.5 15.999 1.5s10.666 2.5 15.999 4.5c3.33301 2 5.83301 3 7.5 3s2.83398 -0.666992 3.50098 -2s0.666992 -3.16602 0 -5.49902s-1 -4.83301 -1 -7.5c-4 -16 -13.833 -29.667 -29.5 -41
s-33.5 -15.333 -53.5 -12c-8.66699 0.666992 -16.167 3.66699 -22.5 9s-12.166 11.666 -17.499 18.999s-10 15 -14 23l-11 22c-18 -29.333 -39 -50.166 -63 -62.499s-44.667 -18.5 -62 -18.5c-9.33301 0 -20 1.83301 -32 5.5s-24 9.5 -36 17.5
c-12.667 7.33301 -24.167 16.166 -34.5 26.499s-18.166 22.166 -23.499 35.499c-6 -22.667 -11.333 -48 -16 -76s-7.66699 -51 -9 -69c-2 -30 -6 -50.5 -12 -61.5s-11 -16.167 -15 -15.5c-13.333 2 -22.833 6.83301 -28.5 14.5s-9.16699 16.5 -10.5 26.5
c-0.666992 10 0.333008 20.5 3 31.5s6 20.5 10 28.5c18 46 32.667 92.333 44 139s20.666 93.334 27.999 140.001l8 53.5c2.66699 17.667 5.66699 35.167 9 52.5s7.16602 34.333 11.499 51s9.83301 33 16.5 49z" />
    <glyph glyph-name="nu" unicode="&#x3bd;" horiz-adv-x="470" 
d="M92 439c4.66699 2 11.1699 -0.163086 19.5029 -6.49609s16.166 -15.5 23.499 -27.5c8 -14 14.5 -31.167 19.5 -51.5s8.5 -41.5 10.5 -63.5c0.666992 -14.667 -0.833008 -33.834 -4.5 -57.501s-8.5 -48.5 -14.5 -74.5c-6.66699 -26.667 -14 -53 -22 -79s-16 -49 -24 -69
c39.333 16 76.5 36.667 111.5 62s65.5 53.333 91.5 84s46.333 62.834 61 96.501s21.667 67.167 21 100.5c-1.33301 31.333 -1.16602 53.666 0.500977 66.999s4.5 20 8.5 20c6 0 10.667 -11.5 14 -34.5s5.66602 -53.167 6.99902 -90.5
c0.666992 -41.333 -4.83301 -79.5 -16.5 -114.5s-28.167 -66.833 -49.5 -95.5c-22 -28.667 -47.5 -53.834 -76.5 -75.501s-60.5 -39.5 -94.5 -53.5c-22.667 -9.33301 -43.334 -16.333 -62.001 -21s-32.334 -7 -41.001 -7c-5.33301 0 -8.83301 2.66699 -10.5 8
s-2.16699 11.333 -1.5 18c0 7.33301 0.833008 14.166 2.5 20.499s3.16699 10.833 4.5 13.5c24 54.667 36.833 111.167 38.5 169.5s-6.16602 114.166 -23.499 167.499c-2.66699 6 -5.33398 13.833 -8.00098 23.5s-4.33398 19.167 -5.00098 28.5s0.333008 17.833 3 25.5
s8.33398 13.167 17.001 16.5z" />
    <glyph glyph-name="xi" unicode="&#x3be;" horiz-adv-x="519" 
d="M392 283c-18.667 3.33301 -36.502 6.33105 -53.502 8.99805l-50.5 8c-16.667 2.66699 -33.167 5.16699 -49.5 7.5s-32.5 4.83301 -48.5 7.5c-32.667 -24 -59.167 -52.333 -79.5 -85s-29.166 -60.667 -26.499 -84c2 -26.667 16.167 -46.834 42.5 -60.501
s57.5 -20.5 93.5 -20.5c32 0 59 -8 81 -24s34 -39.667 36 -71c1.33301 -22.667 -1.5 -42.667 -8.5 -60s-16.833 -32 -29.5 -44c-12 -12 -26.333 -21 -43 -27s-33.667 -9 -51 -9c-8 0 -14 3.33301 -18 10s-5.33301 14.334 -4 23.001c0.666992 8 4.5 15.5 11.5 22.5
s17.833 10.5 32.5 10.5c22.667 0 40.5 2.66699 53.5 8s19.5 14 19.5 26c0 8.66699 -6.66699 16.167 -20 22.5s-28.666 11.833 -45.999 16.5c-17.333 4 -34.333 7.66699 -51 11s-28.334 6.66602 -35.001 9.99902c-28.667 12 -51.167 32.833 -67.5 62.5
s-24.5 60.834 -24.5 93.501c0 44 10.5 82.333 31.5 115s48.167 60.667 81.5 84c-12.667 13.333 -23.167 26.333 -31.5 39s-12.5 28 -12.5 46c0 32.667 8 59 24 79s35.333 38 58 54c-3.33301 22.667 -1.16602 43.167 6.50098 61.5s18.167 33.833 31.5 46.5
c12.667 12 27.5 21.5 44.5 28.5s33.833 10.5 50.5 10.5c11.333 0 19.5 -4 24.5 -12s6.16699 -16.333 3.5 -25c-2.66699 -9.33301 -9.16699 -17.666 -19.5 -24.999s-25.166 -10.666 -44.499 -9.99902c-27.333 0 -47 -4.5 -59 -13.5s-17 -25.5 -15 -49.5
c13.333 4 29.166 7.5 47.499 10.5s37.166 4.83301 56.499 5.5c19.333 1.33301 38 1.16602 56 -0.500977s33.667 -4.83398 47 -9.50098c8.66699 -4 14.834 -10.833 18.501 -20.5s4.83398 -19.5 3.50098 -29.5s-5 -18.667 -11 -26s-14.333 -11 -25 -11
c-18 0 -33.333 1.16699 -46 3.5s-25.667 5.5 -39 9.5c-37.333 10.667 -71.333 10 -102 -2s-53.334 -27.333 -68.001 -46s-19.167 -36.5 -13.5 -53.5s26.167 -24.833 61.5 -23.5c18.667 0 36.334 0.166992 53.001 0.5s32.667 0.5 48 0.5c14.667 0 28.834 -0.5 42.501 -1.5
s27.167 -2.83301 40.5 -5.5c11.333 -3.33301 19.666 -10.5 24.999 -21.5s7.66602 -22.167 6.99902 -33.5c-1.33301 -11.333 -5.33301 -21.166 -12 -29.499s-16 -11.166 -28 -8.49902z" />
    <glyph glyph-name="omicron" unicode="&#x3bf;" horiz-adv-x="530" 
d="M323 430c23.333 -6.66699 44.501 -18.001 63.501 -34.001s35.5 -34.667 49.5 -56c13.333 -21.333 23.666 -44.5 30.999 -69.5s11 -49.833 11 -74.5c0 -35.333 -7.33301 -71 -22 -107s-34.667 -67 -60 -93c-24.667 -26.667 -53.5 -46 -86.5 -58s-67.833 -11.333 -104.5 2
c-22.667 7.33301 -43.5 19 -62.5 35s-35.5 34.667 -49.5 56c-14 20.667 -24.667 43.167 -32 67.5s-10.333 48.833 -9 73.5c2 34 10.333 68.333 25 103s34 65.334 58 92.001c24 26 52 45.5 84 58.5s66.667 14.5 104 4.5zM318.001 399.999
c-34.667 8 -64.668 3.33203 -90.001 -14.001s-46 -40.333 -62 -69c-16.667 -28.667 -28.834 -59.834 -36.501 -93.501s-11.5 -62.5 -11.5 -86.5c0 -16 2 -32.833 6 -50.5s10.333 -34.167 19 -49.5c8 -16 18.5 -30.167 31.5 -42.5s28.167 -20.5 45.5 -24.5
c26.667 -7.33301 50.5 -6.16602 71.5 3.50098s39.167 23.5 54.5 41.5c16 18.667 28.833 39.334 38.5 62.001s16.834 44 21.501 64c4.66699 24 7.83398 49.167 9.50098 75.5s-0.5 51.5 -6.5 75.5c-5.33301 24 -15.333 45.5 -30 64.5s-35 33.5 -61 43.5z" />
    <glyph glyph-name="pi" unicode="&#x3c0;" horiz-adv-x="560" 
d="M191 362c-25.333 4 -48.165 3 -68.498 -3s-36.166 -17 -47.499 -33c-6 -9.33301 -11.5 -13.833 -16.5 -13.5s-5.5 8.5 -1.5 24.5c1.33301 6 3.66602 12.833 6.99902 20.5s8 16.5 14 26.5c10 17.333 21.333 30.666 34 39.999s26.667 14 42 14l52 -2l49 -2
c16 -0.666992 31.667 -1.16699 47 -1.5s30.666 -0.5 45.999 -0.5c14.667 0 29.5 0.833008 44.5 2.5s29.5 3.5 43.5 5.5l39.5 5.5c12.333 1.66699 23.5 2.5 33.5 2.5c6 0 11 -4.83301 15 -14.5s5.33301 -23.167 4 -40.5c-0.666992 -9.33301 -2 -16.166 -4 -20.499
s-4.66699 -7.5 -8 -9.5c-4 -2 -9 -3 -15 -3h-21c-10 0 -19.5 0.166992 -28.5 0.5s-17.833 0.5 -26.5 0.5c-9.33301 0.666992 -18 1 -26 1s-15.667 -0.333008 -23 -1c-2 -6.66699 -4 -15.834 -6 -27.501l-7 -39.5l-8 -48l-8 -49c-4 -22.667 -6.83301 -43.5 -8.5 -62.5
s-2.5 -35.5 -2.5 -49.5c0 -9.33301 1.5 -19.666 4.5 -30.999s7.83301 -21 14.5 -29c6 -8.66699 13.833 -14.667 23.5 -18s20.834 -1.33301 33.501 6c6 3.33301 10.667 5.33301 14 6s5.33301 0.333984 6 -0.999023c1.33301 -1.33301 1.5 -4 0.5 -8s-1.83301 -9 -2.5 -15
c-2 -10 -6.33301 -18.333 -13 -25s-14.334 -11.667 -23.001 -15c-8.66699 -4 -17.667 -6.5 -27 -7.5s-17.333 -0.833008 -24 0.5c-12 4 -22 14.833 -30 32.5s-12 39.5 -12 65.5c0 19.333 1.66699 44.5 5 75.5s8.33301 61.5 15 91.5
c7.33301 35.333 13.166 65.833 17.499 91.5s6.5 44.5 6.5 56.5c-24 -2.66699 -45 -3.83398 -63 -3.50098s-38 1.5 -60 3.5c-2 -8.66699 -3.83301 -17.334 -5.5 -26.001s-3.16699 -17 -4.5 -25c-1.33301 -8.66699 -2.5 -17.167 -3.5 -25.5s-2.16699 -16.5 -3.5 -24.5
c-4 -21.333 -8.33301 -41.333 -13 -60s-9.66699 -36 -15 -52l-15 -45c-4.66699 -14 -8.66699 -26.667 -12 -38c-6 -18 -13.167 -36 -21.5 -54s-16.5 -31.333 -24.5 -40c-6 -7.33301 -12 -12.666 -18 -15.999s-11.333 -5 -16 -5c-6 0 -10.833 2.5 -14.5 7.5
s-5.5 13.5 -5.5 25.5c0 10 1.5 19.833 4.5 29.5s6.5 17.834 10.5 24.501l23 37.5c7.33301 11.667 14 21.167 20 28.5c14.667 17.333 26.667 36.666 36 57.999s17 43.333 23 66s10.667 45.5 14 68.5z" />
    <glyph glyph-name="rho" unicode="&#x3c1;" horiz-adv-x="580" 
d="M320 -26c-40 0 -77.333 11.5 -112 34.5s-62 65.5 -82 127.5l-31 -201c-2 -10 -3 -19.667 -3 -29s0.333008 -18 1 -26s1.16699 -15.333 1.5 -22s0.5 -12.667 0.5 -18c-1.33301 -14 -4.5 -25 -9.5 -33s-10.167 -12 -15.5 -12c-10.667 2 -18.834 9.33301 -24.501 22
s-8.5 28 -8.5 46c6 70 14.667 137.667 26 203s25.666 127 42.999 185c8.66699 26.667 20 52.5 34 77.5s30 47.167 48 66.5c18.667 19.333 39.167 34.833 61.5 46.5s46.5 17.5 72.5 17.5c28.667 0 55.334 -6 80.001 -18s46.334 -28.333 65.001 -49
c18 -20 32.167 -43.5 42.5 -70.5s15.5 -55.167 15.5 -84.5c0 -33.333 -5.16699 -65.833 -15.5 -97.5s-24.833 -59.5 -43.5 -83.5c-18 -24.667 -39.5 -44.5 -64.5 -59.5s-52.167 -22.5 -81.5 -22.5zM331 421c-22 0 -41.668 -5.66797 -59.001 -17.001
s-32.666 -25.333 -45.999 -42c-13.333 -16 -24.5 -33.5 -33.5 -52.5s-15.833 -36.167 -20.5 -51.5c-6 -26 -8.66699 -53.167 -8 -81.5s5.66699 -54.5 15 -78.5c9.33301 -23.333 23.5 -42.666 42.5 -57.999s44.167 -23 75.5 -23c28 0 52.5 8.16699 73.5 24.5
s38.5 36.5 52.5 60.5c13.333 24 23.333 49.833 30 77.5s9.66699 53.167 9 76.5c-0.666992 18 -3.66699 36.667 -9 56s-13.333 37 -24 53c-10 16 -23.167 29.333 -39.5 40s-35.833 16 -58.5 16z" />
    <glyph glyph-name="sigma" unicode="&#x3c3;" horiz-adv-x="500" 
d="M435 402c-2 -6.66699 -4.16699 -11.165 -6.5 -13.498s-4.83301 -3.5 -7.5 -3.5c-2.66699 -0.666992 -5.66699 -0.5 -9 0.5s-7 1.5 -11 1.5c-26 6 -51.833 9.33301 -77.5 10s-50.5 -3 -74.5 -11l41 -5c24.667 -4.66699 46.667 -13.667 66 -27s36 -29.333 50 -48
c13.333 -18.667 23.333 -39.334 30 -62.001s9.66699 -45.667 9 -69c-1.33301 -18.667 -3.5 -37.834 -6.5 -57.501s-8.5 -37.167 -16.5 -52.5c-20 -34.667 -46.833 -64.167 -80.5 -88.5s-66.5 -36.5 -98.5 -36.5c-28 0 -53.667 6.33301 -77 19s-43.333 29.667 -60 51
c-17.333 20.667 -30.666 44.5 -39.999 71.5s-14 54.833 -14 83.5c0 36.667 6.66699 72 20 106s31.666 64 54.999 90c22.667 26 49 46.667 79 62s61.333 23 94 23c27.333 0 50.5 -1.16699 69.5 -3.5s33.833 -5.16602 44.5 -8.49902c2.66699 -2 5.66699 -3.83301 9 -5.5
s6 -3.83398 8 -6.50098s3.33301 -5.5 4 -8.5s0.666992 -6.83301 0 -11.5zM226 -13.998c17.333 0 33.499 3.83301 48.499 11.5s28.833 17.5 41.5 29.5c12 12 22.5 25.167 31.5 39.5s16.5 28.166 22.5 41.499c6 14.667 11 31.334 15 50.001s6 37 6 55
c0 17.333 -2.16699 34.166 -6.5 50.499s-11.166 30.833 -20.499 43.5s-21.5 22.834 -36.5 30.501s-33.5 11.5 -55.5 11.5c-30.667 0 -60.167 -12 -88.5 -36s-48.833 -53.667 -61.5 -89c-6 -16 -10.5 -33 -13.5 -51s-4.5 -35 -4.5 -51s2.66699 -32.167 8 -48.5
s13 -30.833 23 -43.5c10.667 -13.333 23.5 -24 38.5 -32s32.5 -12 52.5 -12z" />
    <glyph glyph-name="tau" unicode="&#x3c4;" horiz-adv-x="510" 
d="M263 346c-4 -25.333 -9.33301 -50.9941 -16 -76.9941l-21 -78c-7.33301 -25.333 -14 -49.833 -20 -73.5s-10 -44.834 -12 -63.501c-2 -17.333 3.16699 -31.5 15.5 -42.5s34.166 -16.5 65.499 -16.5c12 0 22 0.666992 30 2s14 3 18 5
c7.33301 3.33301 12.666 4.33301 15.999 3s5 -3.33301 5 -6c0 -12 -3.16699 -22.5 -9.5 -31.5s-14.5 -16.5 -24.5 -22.5c-9.33301 -6.66699 -19.5 -11.5 -30.5 -14.5s-21.167 -4.5 -30.5 -4.5c-32 0 -56.333 8.33301 -73 25s-25 39.334 -25 68.001
c0 17.333 1.66699 33.5 5 48.5s7.33301 30.167 12 45.5c4.66699 20.667 9.83398 41 15.501 61s10.834 39.667 15.501 59c5.33301 19.333 10 38.666 14 57.999s7 38.666 9 57.999c-4.66699 1.33301 -12.334 2.66602 -23.001 3.99902s-24 2 -40 2
c-18.667 -0.666992 -39.334 -3.33398 -62.001 -8.00098s-38 -14.334 -46 -29.001c-2.66699 -4.66699 -5.66699 -3.33398 -9 3.99902s-4.66602 15 -3.99902 23c0 32 12.333 56.167 37 72.5s51.334 23.5 80.001 21.5c16 -1.33301 38.667 -2.33301 68 -3s70.333 -1 123 -1
c23.333 0 43.5 1.5 60.5 4.5s31.167 6.5 42.5 10.5h-1c8 2 14.167 -1.5 18.5 -10.5s6.5 -24.5 6.5 -46.5c0 -10.667 -1.33301 -18.667 -4 -24s-6 -9.33301 -10 -12s-8.66699 -4 -14 -4h-16c-12 0 -25.5 0.333008 -40.5 1s-30.167 1 -45.5 1s-30 -0.5 -44 -1.5
s-26 -3.5 -36 -7.5z" />
    <glyph glyph-name="upsilon" unicode="&#x3c5;" horiz-adv-x="540" 
d="M130 438c12 0 20.5029 -4.83008 25.5029 -14.4971s7.5 -24.5 7.5 -44.5c-1.33301 -34 -6.33301 -68.167 -15 -102.5s-19.667 -64.833 -33 -91.5c-6.66699 -16.667 -12.5 -33.334 -17.5 -50.001s-7.5 -33.667 -7.5 -51c0 -18 5 -35.167 15 -51.5s25.333 -29.833 46 -40.5
c23.333 -10.667 46.833 -14.167 70.5 -10.5s45.5 11.834 65.5 24.501c20.667 12 39.167 27.5 55.5 46.5s29.5 38.5 39.5 58.5c7.33301 15.333 13.833 31.833 19.5 49.5s10.167 34.834 13.5 51.501c4 16.667 7 32.334 9 47.001s3 26.667 3 36
c0 7.33301 -0.833008 14.666 -2.5 21.999s-3.5 14.666 -5.5 21.999s-3.66699 14.666 -5 21.999s-2 14.666 -2 21.999c0 10 1.33301 18 4 24s6.66699 9 12 9c19.333 -1.33301 35 -12.666 47 -33.999s18 -47 18 -77c0 -34 -5.66699 -68 -17 -102s-23.666 -64.667 -36.999 -92
c-14 -28.667 -32 -55.834 -54 -81.501s-43 -45.5 -63 -59.5c-30 -20 -61.333 -32 -94 -36s-63.334 2 -92.001 18c-28 14.667 -48.833 33.167 -62.5 55.5s-19.834 46.5 -18.501 72.5c0 9.33301 0.5 18.833 1.5 28.5s2.5 19.167 4.5 28.5l4 28
c1.33301 9.33301 3 18.666 5 27.999c5.33301 32 9.66602 63 12.999 93s4.66602 57 3.99902 81c0 20 3.5 36.833 10.5 50.5s17.833 20.5 32.5 20.5z" />
    <glyph glyph-name="phi" unicode="&#x3c6;" horiz-adv-x="540" 
d="M52 268c6.66699 26 17.499 49.8398 32.499 71.5068s32.5 40.834 52.5 57.501c19.333 16 40.5 28.667 63.5 38s46.167 14.666 69.5 15.999c5.33301 -2 9.83301 -4.66699 13.5 -8s5.5 -6.33301 5.5 -9c0 -4.66699 -2 -8.83398 -6 -12.501s-9 -5.5 -15 -5.5
c-16 -2 -31.833 -7.83301 -47.5 -17.5s-30.5 -22.167 -44.5 -37.5c-13.333 -15.333 -25.333 -32.833 -36 -52.5s-19 -40.5 -25 -62.5c-14 -48 -12.5 -92 4.5 -132s44.5 -73.333 82.5 -100l15.5 70.5l14.5 71.5l16 69.5c5.33301 23 11 46.167 17 69.5s13 44.166 21 62.499
s17.333 32.833 28 43.5c6 6 13.667 11 23 15s16.666 6 21.999 6c18.667 0 36.334 -7.33301 53.001 -22s31.334 -32.667 44.001 -54c12 -20.667 21.667 -42.334 29 -65.001s11 -42 11 -58c0 -44 -10 -85.833 -30 -125.5s-46 -69.167 -78 -88.5
c-20.667 -12.667 -45.5 -22.334 -74.5 -29.001s-57.5 -7.33398 -85.5 -2.00098c-10 -49.333 -18.167 -87.333 -24.5 -114s-11.5 -42 -15.5 -46c-2 -2 -4.66699 -3.5 -8 -4.5s-6 -1.5 -8 -1.5c-8 0 -13.333 3.66699 -16 11s-4 15 -4 23c0 6 0.5 11.833 1.5 17.5
s2.5 11.167 4.5 16.5c1.33301 5.33301 3.16602 10.666 5.49902 15.999s4.5 11 6.5 17l25 72c-28 12 -52.667 28.333 -74 49s-38.333 43.667 -51 69c-13.333 25.333 -21.666 52.166 -24.999 80.499s-1 56.5 7 84.5zM229.999 10.0068
c38.667 2.66699 71.166 12.167 97.499 28.5s47.5 36.166 63.5 59.499c16 24 27.667 49.5 35 76.5s11 52.833 11 77.5c0 23.333 -3.83301 47.333 -11.5 72s-21.167 46 -40.5 64c-14 12 -29 12.333 -45 1s-27.667 -29.333 -35 -54
c-3.33301 -11.333 -7.16602 -25.166 -11.499 -41.499l-15.5 -61.5c-6 -25.333 -12.833 -56 -20.5 -92z" />
    <glyph glyph-name="chi" unicode="&#x3c7;" horiz-adv-x="480" 
d="M51 5l153.004 171.001c-3.33301 16 -6.33301 33.667 -9 53s-6.33398 38 -11.001 56c-4.66699 18.667 -10.667 36 -18 52s-17 29 -29 39c-12.667 4.66699 -23.667 5 -33 1s-17.333 -9.66699 -24 -17c-4 -4 -7.66699 -7.83301 -11 -11.5s-6 -6.16699 -8 -7.5
c-2.66699 -1.33301 -4.5 -0.666016 -5.5 2.00098s-0.833008 8.66699 0.5 18c0 6 1.33301 12.833 4 20.5s6.33398 15.5 11.001 23.5c7.33301 13.333 17.666 24.166 30.999 32.499s24 12.5 32 12.5c17.333 0 31.833 -8.66699 43.5 -26s21.5 -38 29.5 -62
s14.5 -49.167 19.5 -75.5l12.5 -67.5c18 20.667 32.667 38.167 44 52.5l32 41.5c6 8 11.833 17 17.5 27l17.5 31c6 10 12.333 20 19 30s14 19 22 27c8.66699 8.66699 16.834 10.834 24.501 6.50098s13.5 -8.83301 17.5 -13.5c4 -6 5.66699 -12.5 5 -19.5
s-2.66699 -13.833 -6 -20.5s-7.5 -13 -12.5 -19s-9.16699 -10.667 -12.5 -14l-92 -90.5c-29.333 -29.667 -51.333 -55.834 -66 -78.501c3.33301 -15.333 7.66602 -31.5 12.999 -48.5s11.333 -33.167 18 -48.5s14.334 -29.333 23.001 -42s18.667 -21.667 30 -27
c12.667 -7.33301 26 -8.33301 40 -3s25 13 33 23c5.33301 8 9.5 10 12.5 6s4.16699 -12 3.5 -24c-0.666992 -6 -1.83398 -12 -3.50098 -18s-3.83398 -12 -6.50098 -18c-8 -14.667 -16.5 -25.834 -25.5 -33.501s-16.5 -12.167 -22.5 -13.5
c-19.333 -4.66699 -36.5 -0.666992 -51.5 12s-28.5 29.667 -40.5 51s-22.333 45 -31 71s-16 50 -22 72l-34 -46l-36 -50l-34.5 -47c-11 -14.667 -20.5 -26.667 -28.5 -36c-10 -10 -18.333 -14.167 -25 -12.5s-11.667 6.16699 -15 13.5
c-2.66699 6.66699 -3.83398 14.5 -3.50098 23.5s3.16602 16.167 8.49902 21.5z" />
    <glyph glyph-name="psi" unicode="&#x3c8;" horiz-adv-x="550" 
d="M106 114c0 -20.667 5.99316 -40.0078 17.9932 -58.0078s37 -35 75 -51c8 35.333 14.833 69.833 20.5 103.5s10.5 66.834 14.5 99.501l11.5 95.5c3.66699 31.667 8.16699 63.5 13.5 95.5c2 12.667 6 21.834 12 27.501s12.333 8.16699 19 7.5s12.5 -4.66699 17.5 -12
s7.5 -17.666 7.5 -30.999c0 -14.667 -3.16699 -33.167 -9.5 -55.5s-12.5 -42.5 -18.5 -60.5c-3.33301 -8.66699 -6 -17.5 -8 -26.5s-4 -18.5 -6 -28.5c-2 -9.33301 -3.83301 -18.833 -5.5 -28.5s-3.5 -19.167 -5.5 -28.5l-9.5 -41.5l-9.5 -41.5
c-2.66699 -13.333 -5.5 -26.666 -8.5 -39.999s-6.16699 -26.333 -9.5 -39c60 10 105.833 33.833 137.5 71.5s47.167 83.834 46.5 138.501c-0.666992 18 0.833008 38.5 4.5 61.5s9.83398 45.833 18.501 68.5c8.66699 22 20.167 41.833 34.5 59.5s31.833 30.167 52.5 37.5
c2.66699 -0.666992 5 -1.5 7 -2.5s3 -1.83301 3 -2.5c0 -3.33301 -1.5 -6.83301 -4.5 -10.5s-6.5 -7.5 -10.5 -11.5l-15 -12.5c-5.33301 -4.33301 -10.333 -8.83301 -15 -13.5c-10.667 -10 -17.334 -21.833 -20.001 -35.5s-4 -27.167 -4 -40.5
c0 -4.66699 0.166992 -9.5 0.5 -14.5s0.5 -9.83301 0.5 -14.5c0.666992 -5.33301 1.33398 -10.333 2.00098 -15s1.33398 -9 2.00098 -13c1.33301 -10.667 2.5 -20.667 3.5 -30s1.5 -19 1.5 -29c0 -36 -7.5 -66.833 -22.5 -92.5s-34.167 -47.167 -57.5 -64.5
s-49.666 -31 -78.999 -41s-58 -16.667 -86 -20c-6.66699 -14 -10.167 -30.167 -10.5 -48.5s-1.16602 -36.166 -2.49902 -53.499c-0.666992 -17.333 -3.5 -32.333 -8.5 -45s-15.167 -20 -30.5 -22c-8 -1.33301 -14.167 2.33398 -18.5 11.001s-5.5 19 -3.5 31
c2.66699 11.333 5.83398 22.5 9.50098 33.5l10.5 32.5l11.5 32l11.5 32c-40 13.333 -73.667 30.5 -101 51.5s-41 50.833 -41 89.5c0 20 2.5 39.5 7.5 58.5s11.167 37.5 18.5 55.5s14.5 37 21.5 57s10.5 40 10.5 60c0 8 -1.83301 16.833 -5.5 26.5s-10.5 18.5 -20.5 26.5
c-7.33301 6 -11.666 14.167 -12.999 24.5s4.33398 13.833 17.001 10.5c18 -5.33301 30.833 -19.5 38.5 -42.5s11.5 -47.833 11.5 -74.5c0 -20 -1.5 -40 -4.5 -60s-6.16699 -36 -9.5 -48c-6 -18 -10.5 -35.667 -13.5 -53s-4.5 -32.666 -4.5 -45.999z" />
    <glyph glyph-name="omega" unicode="&#x3c9;" horiz-adv-x="600" 
d="M195 370c-19.333 -13.333 -35 -30.6719 -47 -52.0049s-21.667 -44 -29 -68c-6.66699 -24 -11.334 -47.667 -14.001 -71s-4 -43.666 -4 -60.999c0 -14 1 -28.667 3 -44s6.33301 -29 13 -41s16 -21 28 -27s28 -6.33301 48 -1c22 5.33301 39.333 15.833 52 31.5
s20.334 35.5 23.001 59.5c0.666992 14 2 27.5 4 40.5l6 37.5c2 12 4 23.333 6 34s4 20.667 6 30c2.66699 14.667 6.66699 28.834 12 42.501s11 25.834 17 36.501s12 18.834 18 24.501s11 8.16699 15 7.5c7.33301 -2 12.666 -9.83301 15.999 -23.5s3.33301 -29.167 0 -46.5
c-4 -18 -8.66699 -35.833 -14 -53.5s-11.666 -32.834 -18.999 -45.501c-10 -16 -18.167 -34.167 -24.5 -54.5s-11.5 -38.833 -15.5 -55.5c-4 -15.333 -4 -30.666 0 -45.999s15.667 -29 35 -41c15.333 -10.667 33.333 -13.167 54 -7.5s39.334 20.5 56.001 44.5
c24.667 36 41.5 74.5 50.5 115.5s13.5 81.5 13.5 121.5c0 14.667 -1.16699 29.334 -3.5 44.001s-5.5 29.334 -9.5 44.001c-3.33301 9.33301 -6 19 -8 29s-2 16.667 0 20c1.33301 2.66699 4.83301 0.5 10.5 -6.5s14.5 -22.833 26.5 -47.5
c9.33301 -20 16.833 -42.833 22.5 -68.5s8.5 -49.5 8.5 -71.5c0 -28 -4.33301 -57.5 -13 -88.5s-20.667 -59.167 -36 -84.5c-16 -25.333 -35.333 -46.333 -58 -63s-48.334 -25 -77.001 -25c-29.333 0 -51 8.83301 -65 26.5s-25.333 36.167 -34 55.5
c-6.66699 -10 -15 -19 -25 -27s-20.333 -15 -31 -21c-11.333 -6 -22.166 -10.5 -32.499 -13.5s-18.833 -4.5 -25.5 -4.5c-20.667 0 -37.834 5.16699 -51.501 15.5s-24.834 24.166 -33.501 41.499c-8 16.667 -13.833 35.5 -17.5 56.5s-5.16699 41.833 -4.5 62.5
c2 62 16.333 116.333 43 163s61.334 84 104.001 112c17.333 11.333 29.5 17.5 36.5 18.5s9.83301 -1.16699 8.5 -6.5c-0.666992 -5.33301 -5 -12.5 -13 -21.5s-18.333 -17.833 -31 -26.5z" />
    <glyph glyph-name="afii10023" unicode="&#x401;" horiz-adv-x="620" 
d="M90 -50v680h448v-40h-398v-266h383v-40h-383v-294h412v-40h-462zM171 757c0 12 4.5 22.667 13.5 32s19.833 14 32.5 14c12 0 22.667 -4.66699 32 -14s14 -20 14 -32c0 -12.667 -4.66699 -23.5 -14 -32.5s-20 -13.5 -32 -13.5c-12.667 0 -23.5 4.5 -32.5 13.5
s-13.5 19.833 -13.5 32.5zM367 757c0 12 4.5 22.667 13.5 32s19.833 14 32.5 14c12 0 22.667 -4.66699 32 -14s14 -20 14 -32c0 -12.667 -4.66699 -23.5 -14 -32.5s-20 -13.5 -32 -13.5c-12.667 0 -23.5 4.5 -32.5 13.5s-13.5 19.833 -13.5 32.5z" />
    <glyph glyph-name="afii10017" unicode="&#x410;" horiz-adv-x="730" 
d="M641 -50l-78 194h-399l-38.5 -100c-13.667 -34.667 -27.5 -66 -41.5 -94h-44l142.5 349.5l145.5 350.5h72l72 -174.5l72 -175.5l72 -176l73 -174h-48zM362 620l-175 -431h357z" />
    <glyph glyph-name="afii10018" unicode="&#x411;" horiz-adv-x="670" 
d="M140 302l-0.000976562 -309.999h240c23.333 0 45.833 3.16699 67.5 9.5s40.834 15.833 57.501 28.5c16.667 13.333 30 29.666 40 48.999s15 42.333 15 69c0 44.667 -14.5 81.5 -43.5 110.5s-72.833 43.5 -131.5 43.5h-245zM89.999 -49.999l0.00195312 700h466v-42h-416
v-264h230c34 0 66.167 -4.83301 96.5 -14.5s56.833 -23.5 79.5 -41.5c22 -18 39.167 -40.167 51.5 -66.5s17.166 -56.166 14.499 -89.499c-2 -28.667 -9.83301 -54.334 -23.5 -77.001s-31.167 -41.667 -52.5 -57c-21.333 -16 -45.333 -28 -72 -36s-53.334 -12 -80.001 -12
h-294z" />
    <glyph glyph-name="afii10019" unicode="&#x412;" horiz-adv-x="670" 
d="M384 -50l-293.999 0.000976562v700h302c24.667 -0.666992 48.5 -4.83398 71.5 -12.501s43.5 -18.834 61.5 -33.501c17.333 -14 31.333 -31.167 42 -51.5s16 -43.5 16 -69.5c0 -15.333 -3 -31.166 -9 -47.499s-14.333 -31.833 -25 -46.5
c-10.667 -15.333 -23.834 -28.833 -39.501 -40.5s-33.5 -20.167 -53.5 -25.5c20 -4 39.833 -12 59.5 -24s36.834 -27 51.501 -45c15.333 -18 27.333 -38 36 -60s12 -44.667 10 -68c-2.66699 -29.333 -11.334 -55 -26.001 -77s-32.667 -40.333 -54 -55
c-22 -14.667 -46 -25.667 -72 -33s-51.667 -11 -77 -11zM140.001 608.001v-268h229c52 0 92 13.333 120 40s42 61 42 103c0 38 -13.833 68.333 -41.5 91s-67.5 34 -119.5 34h-230zM140.001 297.001v-304.999h241c50 0 92.333 12.333 127 37s52 62 52 112
c0 45.333 -15.833 82.666 -47.5 111.999s-74.5 44 -128.5 44h-244z" />
    <glyph glyph-name="afii10020" unicode="&#x413;" horiz-adv-x="610" 
d="M90 -50v700h468v-42h-418v-658h-50z" />
    <glyph glyph-name="afii10021" unicode="&#x414;" horiz-adv-x="740" 
d="M68 39l50.999 -0.000976562c25.333 42 45 90.833 59 146.5s23 116.834 27 183.501l4 86l4 82c1.33301 26 2.33301 51.167 3 75.5s1.33398 47.5 2.00098 69.5h366v-643h78v-199h-44v158h-506v-158h-44v199zM171.999 38.999h365.998v601h-271
c0 -19.333 -0.833008 -44.833 -2.5 -76.5s-3.5 -63.834 -5.5 -96.501l-2 -26l-2 -27l-2 -28c-0.666992 -9.33301 -1 -19 -1 -29c-3.33301 -57.333 -11.666 -112.666 -24.999 -165.999s-31.666 -104 -54.999 -152z" />
    <glyph glyph-name="afii10022" unicode="&#x415;" horiz-adv-x="650" 
d="M90 -50v700h468v-42h-418v-271h400v-42h-400v-303h430v-42h-480z" />
    <glyph glyph-name="afii10024" unicode="&#x416;" horiz-adv-x="940" 
d="M442 240v410.001h48v-415l67 97l76 110l75 110l69 98h52l-211 -303l64 -98.5l69 -101.5l71 -101l68 -96h-64l-241 351l-42 -58l-27 -38l-16 -23.5l-10 -14.5v-217h-48v217l-32.5 46.5c-9.66699 14.333 -18.167 27.5 -25.5 39.5l-20.5 29.5
c-5.66699 8.33301 -10.167 15.166 -13.5 20.499l-49.5 -75l-66.5 -99l-69.5 -100.5l-54.5 -78.5h-58l269 396l-106 151l-111 153h59z" />
    <glyph glyph-name="afii10025" unicode="&#x417;" horiz-adv-x="610" 
d="M72 105l54.001 -0.00488281c11.333 -46 32.166 -77.5 62.499 -94.5s68.166 -25.5 113.499 -25.5c24 0 47 3.5 69 10.5s41 17.167 57 30.5c16.667 13.333 29.834 30 39.501 50s14.5 42.667 14.5 68c0 24.667 -6.66699 46.334 -20 65.001s-29.666 34.334 -48.999 47.001
c-20 12 -41.5 20.667 -64.5 26s-44.5 7 -64.5 5h-7v45c14 0 28.667 1 44 3s28 5.66699 38 11c30 12 54 30.167 72 54.5s27 51.833 27 82.5c0 36 -13.167 67 -39.5 93s-66.5 39 -120.5 39c-37.333 0 -70.5 -8.5 -99.5 -25.5s-46.5 -43.5 -52.5 -79.5h-51
c2.66699 24 10.667 45.333 24 64s29.333 34.334 48 47.001c19.333 12.667 40.333 22.334 63 29.001s45.667 10 69 10c30 0 58.167 -4.33301 84.5 -13s49.5 -21 69.5 -37c19.333 -15.333 34.833 -33.833 46.5 -55.5s17.5 -45.5 17.5 -71.5c0 -33.333 -11.833 -65 -35.5 -95
s-55.5 -53.667 -95.5 -71c46.667 -14 83.5 -37.667 110.5 -71s40.5 -68.666 40.5 -105.999c0 -33.333 -7.16699 -62.333 -21.5 -87s-32.833 -45.667 -55.5 -63c-22.667 -16.667 -48.167 -29.167 -76.5 -37.5s-56.5 -12.5 -84.5 -12.5c-63.333 0 -115.333 15 -156 45
s-64.334 70 -71.001 120z" />
    <glyph glyph-name="afii10026" unicode="&#x418;" horiz-adv-x="710" 
d="M570 605l-410 -655h-70v700h50v-655l96.5 154l88.5 143l99 158l126 200h70v-700h-50v655z" />
    <glyph glyph-name="afii10027" unicode="&#x419;" horiz-adv-x="710" 
d="M459 795h46.998c-13.333 -32 -33.666 -56.667 -60.999 -74s-58 -26 -92 -26s-64.333 9 -91 27s-47 42.333 -61 73h50c10 -19.333 24.667 -34.166 44 -44.499s38.666 -15.5 57.999 -15.5c20.667 0 40.334 5.16699 59.001 15.5s34.334 25.166 47.001 44.499zM569.998 605
l-410 -655h-70v700h50v-655l96.5 154l88.5 143l99 158l126 200h70v-700h-50v655z" />
    <glyph glyph-name="afii10028" unicode="&#x41a;" horiz-adv-x="710" 
d="M275 328l-134 -130c0 -19.333 -0.166992 -39.5 -0.5 -60.5s-0.5 -42.167 -0.5 -63.5v-63.5v-60.5h-50v700h50v-392l127.5 126.5l107.5 106.5l89 88.5l73 70.5h63l-288 -288l82.5 -102l87.5 -105l88.5 -105l84.5 -100h-61z" />
    <glyph glyph-name="afii10029" unicode="&#x41b;" horiz-adv-x="650" 
d="M506 608l-321.001 0.000976562v-502c-2 -44.667 -13.667 -82.834 -35 -114.501s-54.666 -48.5 -99.999 -50.5v44c30.667 6 52.5 22.333 65.5 49s19.5 54 19.5 82v534h421v-700h-50v658z" />
    <glyph glyph-name="afii10030" unicode="&#x41c;" 
d="M420 -15l250 665h80v-700h-50v645l-57 -152l-66 -171l-66 -171l-56 -151h-70l-245 645v-645h-50v700h80z" />
    <glyph glyph-name="afii10031" unicode="&#x41d;" horiz-adv-x="700" 
d="M560 -50v350h-420v-350h-50v700h50v-308h420v308h50v-700h-50z" />
    <glyph glyph-name="afii10032" unicode="&#x41e;" horiz-adv-x="690" 
d="M345 655c45.333 0 85.668 -9.83203 121.001 -29.499s65.333 -46.167 90 -79.5c24 -32.667 42.333 -70.334 55 -113.001s19 -87 19 -133c0 -48.667 -6.83301 -94.5 -20.5 -137.5s-32.834 -80.5 -57.501 -112.5c-24.667 -32.667 -54.5 -58.334 -89.5 -77.001
s-74.167 -28 -117.5 -28c-45.333 0 -85.666 10 -120.999 30s-65 46.667 -89 80c-24.667 32.667 -43.334 70.334 -56.001 113.001s-19 86.667 -19 132c0 48.667 6.5 94.5 19.5 137.5s31.833 80.5 56.5 112.5s54.667 57.5 90 76.5s75 28.5 119 28.5zM345.002 613.001
c-40.667 0 -75.332 -9.66699 -103.999 -29s-52 -44 -70 -74c-18.667 -30 -32.167 -63.5 -40.5 -100.5s-12.5 -73.5 -12.5 -109.5c0 -40 4.66699 -78.833 14 -116.5s23.666 -70.834 42.999 -99.501c18.667 -29.333 42.167 -52.666 70.5 -69.999s61.5 -26 99.5 -26
c39.333 0 73.5 9 102.5 27s52.833 42 71.5 72c18.667 29.333 32.5 62.666 41.5 99.999s13.5 75 13.5 113c0 40 -5 78.833 -15 116.5s-24.333 71.167 -43 100.5c-19.333 28.667 -43.333 51.834 -72 69.501s-61.667 26.5 -99 26.5z" />
    <glyph glyph-name="afii10033" unicode="&#x41f;" horiz-adv-x="680" 
d="M540 608h-400v-658h-50v700h500v-700h-50v658z" />
    <glyph glyph-name="afii10034" unicode="&#x420;" horiz-adv-x="640" 
d="M90 -50l-0.000976562 699.998h283c30.667 0 59.667 -4.5 87 -13.5s51 -22.167 71 -39.5c20.667 -16.667 36.834 -37.5 48.501 -62.5s17.5 -53.167 17.5 -84.5c0 -33.333 -6.16699 -62.666 -18.5 -87.999s-28.833 -46.666 -49.5 -63.999
c-20.667 -18 -44.5 -31.333 -71.5 -40s-55.167 -13 -84.5 -13h-233v-295h-50zM139.999 607.998v-321h233c50 0 91.667 14.667 125 44s50 69 50 119c0 26 -4.83301 48.833 -14.5 68.5s-22.5 36.167 -38.5 49.5s-34.667 23.333 -56 30s-43.333 10 -66 10h-233z" />
    <glyph glyph-name="afii10035" unicode="&#x421;" horiz-adv-x="675" 
d="M555 154l54.9961 -0.00195312c-7.33301 -31.333 -19.5 -59.833 -36.5 -85.5s-37.167 -47.834 -60.5 -66.501c-23.333 -18 -49.166 -32 -77.499 -42s-57.5 -15 -87.5 -15c-48.667 0 -91 10.5 -127 31.5s-66 48.167 -90 81.5c-24 34 -41.833 72.167 -53.5 114.5
s-17.5 84.833 -17.5 127.5c0 46.667 6.5 91.334 19.5 134.001s31.833 80.334 56.5 113.001s54.834 58.834 90.501 78.501s76.167 29.5 121.5 29.5c30 0 58.667 -4.83301 86 -14.5s52.333 -22.834 75 -39.501s42.5 -36.667 59.5 -60s30.167 -48.333 39.5 -75h-56
c-20 41.333 -46 75.5 -78 102.5s-74 40.5 -126 40.5c-43.333 0 -79.666 -10.167 -108.999 -30.5s-53.333 -45.833 -72 -76.5c-18 -30.667 -31 -64 -39 -100s-12 -70 -12 -102c0 -35.333 4.5 -71.333 13.5 -108s22.833 -70 41.5 -100c19.333 -30 43.5 -54.333 72.5 -73
s63.833 -28 104.5 -28c25.333 0 49.5 4.16699 72.5 12.5s43.833 20.166 62.5 35.499c18 14.667 33.333 31.834 46 51.501s21.334 40.834 26.001 63.501z" />
    <glyph glyph-name="afii10036" unicode="&#x422;" horiz-adv-x="645" 
d="M297 -50v658h-247v42h545v-42h-247v-658h-51z" />
    <glyph glyph-name="afii10037" unicode="&#x423;" horiz-adv-x="550" 
d="M98 650l176 -481.999l42 113.5l48 127.5l48 126.5l44 114.5h49l-238 -625c-12 -32.667 -28.833 -53.334 -50.5 -62.001s-48.5 -13 -80.5 -13h-15v40h26c22.667 0 41.167 5.16699 55.5 15.5s23.5 22.5 27.5 36.5l22 73l-101 267l-105 268h52z" />
    <glyph glyph-name="afii10038" unicode="&#x424;" horiz-adv-x="790" 
d="M60 299c0 37.333 7.83301 72.666 23.5 105.999s37.5 63 65.5 89c28 25.333 60.833 45.833 98.5 61.5s78.5 25.167 122.5 28.5v71h50v-71c43.333 -3.33301 83.833 -12.833 121.5 -28.5s70.5 -36.167 98.5 -61.5c28 -26 50 -55.667 66 -89s24 -68.666 24 -105.999
c0 -38 -8 -73.667 -24 -107s-38 -62.666 -66 -87.999c-28 -26 -60.833 -46.833 -98.5 -62.5s-78.167 -24.834 -121.5 -27.501v-79h-50v79c-44 2.66699 -84.833 11.834 -122.5 27.501s-70.5 36.5 -98.5 62.5c-28 25.333 -49.833 54.666 -65.5 87.999s-23.5 69 -23.5 107z
M678 300c0 32 -6.83301 62.3359 -20.5 91.0029s-32.167 53.667 -55.5 75c-23.333 22 -50.666 39.667 -81.999 53s-64.666 21.666 -99.999 24.999v-488c35.333 2.66699 68.666 10.667 99.999 24s58.666 31 81.999 53c23.333 21.333 41.833 46.166 55.5 74.499
s20.5 59.166 20.5 92.499zM112 300.003c0 -33.333 6.66699 -64.1689 20 -92.502s31.666 -53.166 54.999 -74.499c22.667 -22 49.834 -39.667 81.501 -53s65.5 -21.333 101.5 -24v488c-36 -3.33301 -69.833 -11.666 -101.5 -24.999s-58.834 -31 -81.501 -53
c-23.333 -21.333 -41.666 -46.333 -54.999 -75s-20 -59 -20 -91z" />
    <glyph glyph-name="afii10039" unicode="&#x425;" horiz-adv-x="675" 
d="M566 -50l-233 325l-57.5 -81.5l-57.5 -82.5l-58.5 -82l-57.5 -79h-57l259 365l-118 170.5l-122 164.5h59l211 -300l48.5 70.5l56.5 79.5l57.5 79.5l52.5 70.5h61l-245 -335l60.5 -89l66.5 -94l68.5 -93.5l66.5 -88.5h-61z" />
    <glyph glyph-name="afii10040" unicode="&#x426;" horiz-adv-x="720" 
d="M140 650v-632h390v632h50v-632h78v-168h-50v126h-518v674h50z" />
    <glyph glyph-name="afii10041" unicode="&#x427;" horiz-adv-x="720" 
d="M628 650l0.000976562 -700h-49v340c-34.667 -45.333 -75.667 -74.333 -123 -87s-97 -19 -149 -19c-28.667 0 -56.334 4.33301 -83.001 13s-50.334 21.334 -71.001 38.001s-37.167 36.834 -49.5 60.501s-18.5 50.167 -18.5 79.5v275h49v-238c0 -40 5.5 -72.167 16.5 -96.5
s26.5 -42.833 46.5 -55.5c20 -13.333 44 -21.833 72 -25.5s59 -4.83398 93 -3.50098c22.667 0 46.834 3.5 72.501 10.5s49.167 17.167 70.5 30.5c21.333 12.667 39 28.667 53 48s21 41.666 21 66.999v263h49z" />
    <glyph glyph-name="afii10042" unicode="&#x428;" horiz-adv-x="830" 
d="M440 -8h250v658h50v-700h-650v700h50v-658h250v658h50v-658z" />
    <glyph glyph-name="afii10043" unicode="&#x429;" horiz-adv-x="850" 
d="M440 18h250v632h50v-632h78v-168h-50v126h-678v674h50v-632h250v632h50v-632z" />
    <glyph glyph-name="afii10044" unicode="&#x42a;" horiz-adv-x="820" 
d="M550 312l-232 -0.000976562v-320h232c52 0 92.667 15 122 45s44 67.667 44 113c0 48.667 -16.167 87.834 -48.5 117.501s-71.5 44.5 -117.5 44.5zM265 -50.001v657.999h-215v42h268v-295h232c30.667 0 59.334 -5 86.001 -15s50 -24 70 -42s35.667 -39.667 47 -65
s17 -53 17 -83c0 -32.667 -6.16699 -61.5 -18.5 -86.5s-28.5 -45.833 -48.5 -62.5c-20 -17.333 -43.333 -30.166 -70 -38.499s-54.334 -12.5 -83.001 -12.5h-285z" />
    <glyph glyph-name="afii10045" unicode="&#x42b;" horiz-adv-x="860" 
d="M720 -50v700h50v-700h-50zM372 -50l-282.002 0.00195312v700h50v-295h232c29.333 0 57.5 -5.33301 84.5 -16s50.833 -25.334 71.5 -44.001c20.667 -18 37.334 -39.667 50.001 -65s19 -52.333 19 -81c0 -31.333 -6.66699 -59.333 -20 -84s-30.666 -45.334 -51.999 -62.001
c-21.333 -17.333 -45.5 -30.5 -72.5 -39.5s-53.833 -13.5 -80.5 -13.5zM371.998 312.002l-232.001 0.000976562v-320h232c23.333 0 45.333 3.66699 66 11s39 18 55 32c15.333 14 27.5 30.667 36.5 50s13.5 40.666 13.5 63.999c0 50 -16.667 89.667 -50 119
s-73.666 44 -120.999 44z" />
    <glyph glyph-name="afii10046" unicode="&#x42c;" horiz-adv-x="650" 
d="M375 -50l-285.002 0.00195312v700h50v-295h235c29.333 0 57.5 -5.33301 84.5 -16s50.833 -25.334 71.5 -44.001c20.667 -18 37.334 -39.667 50.001 -65s19 -52.333 19 -81c0 -31.333 -6.66699 -59.333 -20 -84s-30.666 -45.334 -51.999 -62.001
c-21.333 -17.333 -45.5 -30.5 -72.5 -39.5s-53.833 -13.5 -80.5 -13.5zM374.998 312.002l-235.001 0.000976562v-320h235c23.333 0 45.333 3.66699 66 11s39 18 55 32c15.333 14 27.5 30.667 36.5 50s13.5 40.666 13.5 63.999c0 50 -16.667 89.667 -50 119
s-73.666 44 -120.999 44z" />
    <glyph glyph-name="afii10047" unicode="&#x42d;" horiz-adv-x="675" 
d="M553 278h-356.002v42h356c-2 32.667 -7.83301 66 -17.5 100s-23.5 64.667 -41.5 92c-18.667 27.333 -42 49.833 -70 67.5s-61.333 26.5 -100 26.5c-52 0 -92.833 -12.5 -122.5 -37.5s-56.5 -58.167 -80.5 -99.5h-56c18 54 50.5 98 97.5 132s100.833 51 161.5 51
c44.667 0 84.834 -9.5 120.501 -28.5s65.5 -44.5 89.5 -76.5c24.667 -32 43.5 -69 56.5 -111s19.5 -86.333 19.5 -133c0 -42.667 -5.83301 -85 -17.5 -127s-29.5 -79.333 -53.5 -112c-23.333 -33.333 -53 -60.166 -89 -80.499s-78 -30.5 -126 -30.5
c-31.333 0 -61.166 4.66699 -89.499 14s-53.833 22.666 -76.5 39.999c-23.333 18 -43.333 39.5 -60 64.5s-28.334 53.5 -35.001 85.5h55c6.66699 -22 16.5 -42.667 29.5 -62s28.5 -36 46.5 -50c18 -14.667 38 -26 60 -34s45.333 -12 70 -12c36 0 67.5 7.83301 94.5 23.5
s50.167 36.834 69.5 63.501c18.667 26 33.334 55.667 44.001 89s17.667 67.666 21 102.999z" />
    <glyph glyph-name="afii10048" unicode="&#x42e;" horiz-adv-x="910" 
d="M574 618c-44.667 0 -81.5 -10.165 -110.5 -30.498s-52.167 -46.166 -69.5 -77.499c-17.333 -30.667 -29.5 -64.667 -36.5 -102s-10.5 -73 -10.5 -107c0 -36.667 3.83301 -74 11.5 -112s20.5 -72.333 38.5 -103s41.5 -55.667 70.5 -75s64.5 -29 106.5 -29
c41.333 0 76.333 10.333 105 31s52 47 70 79c18 31.333 31 65.666 39 102.999s12 72.666 12 105.999c0 34.667 -4.33301 70.667 -13 108s-22 71.666 -40 102.999c-18 30.667 -41.333 56 -70 76s-63 30 -103 30zM297 280.002l-157.001 -0.000976562v-330h-48v700h48v-328h157
c2.66699 44 10.667 86.333 24 127s31.333 76.667 54 108c23.333 30.667 51.5 55.5 84.5 74.5s71.167 28.5 114.5 28.5c47.333 0 88.333 -11.167 123 -33.5s63.334 -50.833 86.001 -85.5s39.5 -73.167 50.5 -115.5s16.5 -83.833 16.5 -124.5c0 -46 -6 -90.667 -18 -134
s-29.667 -81.666 -53 -114.999c-23.333 -34 -52.166 -61.167 -86.499 -81.5s-73.833 -30.5 -118.5 -30.5c-46 0 -85.833 10 -119.5 30s-61.834 46.333 -84.501 79s-40 69.167 -52 109.5s-19 80.833 -21 121.5z" />
    <glyph glyph-name="afii10049" unicode="&#x42f;" horiz-adv-x="670" 
d="M48 -50l208 314.997c-26 6 -50.167 15.167 -72.5 27.5s-41.5 26.833 -57.5 43.5c-16.667 16.667 -29.5 35.334 -38.5 56.001s-13.5 42.334 -13.5 65.001c0 30 6.5 57 19.5 81s30.167 44.333 51.5 61s45.333 29.334 72 38.001s53.667 13 81 13h282v-700h-50v315h-212
l-51.5 -78l-53.5 -80l-53 -80.5l-50 -76.5h-62zM298 306.997l232.001 0.00195312v301h-232c-46.667 0 -86 -13.667 -118 -41s-48 -64 -48 -110c0 -24 4.66699 -45.333 14 -64s21.666 -34.334 36.999 -47.001s33 -22.334 53 -29.001s40.667 -10 62 -10z" />
    <glyph glyph-name="afii10065" unicode="&#x430;" horiz-adv-x="510" 
d="M445 302l0.000976562 -273.995c0 -14 0.5 -27.5 1.5 -40.5s2.5 -25.5 4.5 -37.5h-53c-0.666992 0.666992 -0.833984 1.16699 -0.500977 1.5l0.5 0.5c-1.33301 2 -2.33301 4.33301 -3 7s-1.33398 6 -2.00098 10s-1.5 9.5 -2.5 16.5s-1.83301 16.5 -2.5 28.5
c-24 -24 -50.833 -43.833 -80.5 -59.5s-62.167 -23.5 -97.5 -23.5c-19.333 0 -39.166 2.5 -59.499 7.5s-38.833 12.833 -55.5 23.5c-17.333 10.667 -31.666 24 -42.999 40s-17.333 35 -18 57c-2 34 6.83301 65.167 26.5 93.5s46.167 47.5 79.5 57.5
c15.333 5.33301 31.666 9.16602 48.999 11.499s34 4.16602 50 5.49902l30.5 2c10.333 0.666992 20.833 2 31.5 4s20.834 4.33301 30.501 7s19.167 6.66699 28.5 12s16.666 12.5 21.999 21.5s8 18.5 8 28.5c0 36 -13 67.167 -39 93.5s-59 39.5 -99 39.5
c-36 0 -67.667 -12.167 -95 -36.5s-41 -55.5 -41 -93.5h-60c1.33301 27.333 8.16602 51.666 20.499 72.999s27.833 39 46.5 53c18.667 14.667 39.334 25.667 62.001 33s45 11 67 11c24 0 47.5 -4 70.5 -12s43.5 -19.333 61.5 -34s32.667 -32.834 44 -54.501
s17 -45.834 17 -72.501zM390.001 80.0049l0.000976562 140c-12.667 -5.33301 -24.667 -9.66602 -36 -12.999s-22 -6 -32 -8s-19.333 -3.33301 -28 -4s-16.334 -1.33398 -23.001 -2.00098c-13.333 -1.33301 -27.5 -3 -42.5 -5s-29.167 -5 -42.5 -9
c-28 -10 -50.833 -25 -68.5 -45s-25.5 -41.667 -23.5 -65c2 -30 15.167 -53.333 39.5 -70s50.833 -25 79.5 -25c16.667 0 34 2.5 52 7.5s35.333 12.5 52 22.5c16 9.33301 30.5 20.5 43.5 33.5s22.833 27.167 29.5 42.5z" />
    <glyph glyph-name="afii10066" unicode="&#x431;" horiz-adv-x="520" 
d="M260 443c-29.333 0 -54 -7.83301 -74 -23.5s-36.333 -35.5 -49 -59.5c-12.667 -23.333 -21.667 -48.833 -27 -76.5s-8 -53.5 -8 -77.5c0 -26 3 -52.667 9 -80s15.333 -52 28 -74c12.667 -22.667 29 -41 49 -55s44 -21 72 -21s52 7.33301 72 22s36.333 33.334 49 56.001
s22 47.5 28 74.5s9 52.833 9 77.5c0 25.333 -3.16699 51.833 -9.5 79.5s-15.833 53.167 -28.5 76.5s-29 42.666 -49 57.999s-43.667 23 -71 23zM265 620c6 0 11.835 -0.332031 17.502 -0.999023l16.5 -2c6 -0.666992 11.833 -1.16699 17.5 -1.5s11.5 -0.5 17.5 -0.5
c18 0 34 4.16699 48 12.5s25.333 24.166 34 47.499h50c-6 -20 -13.833 -38.667 -23.5 -56s-25.5 -29.333 -47.5 -36c-18 -6 -36 -8.66699 -54 -8s-36 2 -54 4c-20.667 2 -40.834 -1.33301 -60.501 -10s-37.5 -21 -53.5 -37s-29.5 -35 -40.5 -57s-18.167 -45.333 -21.5 -70
c24.667 30 50.834 49.833 78.501 59.5s51.167 14.834 70.5 15.501c34 0.666992 64 -7 90 -23s48 -37 66 -63c17.333 -26.667 30.666 -56.5 39.999 -89.5s14 -65.833 14 -98.5c0 -36 -4.83301 -70.167 -14.5 -102.5s-23.5 -60.5 -41.5 -84.5c-18 -24.667 -40 -44 -66 -58
s-55.333 -21 -88 -21c-35.333 0 -66 7.33301 -92 22s-48 34.667 -66 60c-17.333 24.667 -30.333 53 -39 85s-13 65 -13 99s1.16699 69.167 3.5 105.5s5.83301 70.166 10.5 101.499c4.66699 27.333 13 53.5 25 78.5s26.667 47.167 44 66.5c18 18.667 38.167 33.667 60.5 45
s46.166 17 71.499 17z" />
    <glyph glyph-name="afii10067" unicode="&#x432;" horiz-adv-x="490" 
d="M275 -50h-194.999v520h190c38.667 0 71 -11.5 97 -34.5s40.333 -50.5 43 -82.5c2 -34 -3 -61.333 -15 -82s-30 -37 -54 -49c32 -15.333 56 -32.833 72 -52.5s22.667 -48.167 20 -85.5c-2 -18.667 -7.33301 -36.167 -16 -52.5s-20 -30.5 -34 -42.5
s-30.333 -21.5 -49 -28.5s-38.334 -10.5 -59.001 -10.5zM131.001 430v-190h109c42.667 0 73 10.167 91 30.5s27.333 41.5 28 63.5c2 36 -9.16699 61 -33.5 75s-52.833 21 -85.5 21h-109zM131.001 200v-210h109c16.667 0 33.167 1.83301 49.5 5.5s30.833 9.5 43.5 17.5
s23 18.5 31 31.5s12.333 29.5 13 49.5c0 35.333 -11.167 61.833 -33.5 79.5s-56.833 26.5 -103.5 26.5h-109z" />
    <glyph glyph-name="afii10068" unicode="&#x433;" horiz-adv-x="440" 
d="M90 -55v525h320v-40h-269v-485h-51z" />
    <glyph glyph-name="afii10069" unicode="&#x434;" horiz-adv-x="570" 
d="M50 140h77.999c10.667 30 19.834 62.5 27.501 97.5s13.167 70.833 16.5 107.5c2.66699 38 4.66699 77.833 6 119.5s2 78.5 2 110.5h252v-435h83v-190h-53v150h-360v-150h-52v190zM177.999 140h201.001v395h-148c0 -20 -0.833008 -47 -2.5 -81l-5.5 -109
c-2.66699 -38.667 -7.83398 -75 -15.501 -109s-17.5 -66 -29.5 -96z" />
    <glyph glyph-name="afii10070" unicode="&#x435;" horiz-adv-x="520" 
d="M258 480c33.333 0 63 -8.33105 89 -24.998s48 -38 66 -64c18 -26.667 32 -56.334 42 -89.001s15.667 -65 17 -97h-368c1.33301 -25.333 5.5 -51.333 12.5 -78s16.833 -51 29.5 -73s28.167 -39.833 46.5 -53.5s40.166 -20.5 65.499 -20.5c35.333 0 64 10.833 86 32.5
s38.667 47.5 50 77.5h61c-20.667 -46 -45.667 -82.5 -75 -109.5s-70 -40.5 -122 -40.5c-34 0 -64 8 -90 24s-48 36.667 -66 62c-18 26 -31.5 54.833 -40.5 86.5s-13.5 63.834 -13.5 96.501c0 33.333 4.83301 66.166 14.5 98.499s23.834 61.166 42.501 86.499
c18 26 40 46.833 66 62.5s55 23.5 87 23.5zM106 245.002h309c-8.66699 56.667 -27.5 103.334 -56.5 140.001s-62.5 55 -100.5 55c-36 0 -68.333 -18.333 -97 -55s-47 -83.334 -55 -140.001z" />
    <glyph glyph-name="afii10072" unicode="&#x436;" horiz-adv-x="750" 
d="M400 -50h-50v178l-70 82l-94 -130l-91 -130h-60l210 292l-45 52.5l-48 58.5l-49.5 60l-45.5 57h53l240 -285v285h50v-280l117.5 139.5l117.5 140.5h55l-190 -228l210 -292h-55l-188 260l-67 -81v-179z" />
    <glyph glyph-name="afii10073" unicode="&#x437;" horiz-adv-x="430" 
d="M53 100l52.002 0.000976562c2 -39.333 12.167 -70.166 30.5 -92.499s45.833 -33.5 82.5 -33.5c31.333 0 57.166 9.66699 77.499 29s30.5 47 30.5 83c0 22 -8.33301 44.333 -25 67s-36.334 37 -59.001 43h-53v36h21c26.667 2 49.5 12.833 68.5 32.5s28.833 43.5 29.5 71.5
c0 30 -8.33301 55.667 -25 77s-39 32 -67 32c-28.667 0 -50.667 -10.333 -66 -31s-24 -44.667 -26 -72h-50c4 41.333 20 74.666 48 99.999s60 38 96 38c17.333 0 34.5 -3.83301 51.5 -11.5s32.167 -17.834 45.5 -30.501s24 -27.5 32 -44.5s12 -34.833 12 -53.5
c-0.666992 -26 -8.5 -50.167 -23.5 -72.5s-30.167 -39.5 -45.5 -51.5c28 -17.333 49.5 -37 64.5 -59s22.5 -46 22.5 -72c0 -40.667 -15.333 -75 -46 -103s-69 -42 -115 -42s-83.833 14.667 -113.5 44s-46.167 68 -49.5 116z" />
    <glyph glyph-name="afii10074" unicode="&#x438;" horiz-adv-x="580" 
d="M439 402l-288 -452h-61v520h51v-462l74 115l75 116l75 116l73 115h52v-520h-51v452z" />
    <glyph glyph-name="afii10075" unicode="&#x439;" horiz-adv-x="580" 
d="M387 610l39.998 0.000976562c-12 -32 -30.167 -56.667 -54.5 -74s-51.833 -26 -82.5 -26s-58 9.16699 -82 27.5s-42.333 42.5 -55 72.5h44c8 -18 21 -33 39 -45s36 -18 54 -18c20.667 0 39.334 5.66699 56.001 17s30.334 26.666 41.001 45.999zM438.998 402.001
l-288 -452h-61v520h51v-462l74 115l75 116l75 116l73 115h52v-520h-51v452z" />
    <glyph glyph-name="afii10076" unicode="&#x43a;" horiz-adv-x="530" 
d="M240 205l-98 -107v-148h-52v520h52v-310l138.5 155.5l139.5 154.5h55l-205 -233l60 -71l59 -72l59 -73.5l58 -70.5h-53z" />
    <glyph glyph-name="afii10077" unicode="&#x43b;" horiz-adv-x="520" 
d="M146 432l-0.000976562 -355c0 -45.333 -8.5 -78 -25.5 -98s-45.5 -31 -85.5 -33v39c20.667 4 35.834 13 45.501 27s14.5 30.333 14.5 49v409h330v-520h-50v482h-229z" />
    <glyph glyph-name="afii10078" unicode="&#x43c;" horiz-adv-x="640" 
d="M320 16l190 454h50v-520h-51v420l-174 -420h-30l-175 420v-420h-50v520h50z" />
    <glyph glyph-name="afii10079" unicode="&#x43d;" horiz-adv-x="550" 
d="M420 -55v260h-289v-260h-51v525h51v-228h289v228h50v-525h-50z" />
    <glyph glyph-name="afii10080" unicode="&#x43e;" horiz-adv-x="520" 
d="M260 480c36 0 67.167 -8.66797 93.5 -26.001s48.166 -39.333 65.499 -66c16.667 -27.333 29.334 -57 38.001 -89s13 -63 13 -93c0 -34 -4.66699 -66.833 -14 -98.5s-23 -60.167 -41 -85.5c-18 -24.667 -40 -44.5 -66 -59.5s-55.667 -22.5 -89 -22.5
c-36 0 -67.333 8 -94 24s-48.334 37 -65.001 63c-17.333 25.333 -30.166 53.833 -38.499 85.5s-12.5 62.834 -12.5 93.501c0 33.333 4.5 66.333 13.5 99s22.167 62 39.5 88c18 26 40 47 66 63s56.333 24 91 24zM260 439.999c-30.667 0 -56.166 -8.33203 -76.499 -24.999
s-36.5 -37 -48.5 -61s-20.5 -49.5 -25.5 -76.5s-7.5 -50.833 -7.5 -71.5c0 -23.333 2.83301 -48.166 8.5 -74.499s14.5 -50.833 26.5 -73.5c12.667 -22.667 29 -41.334 49 -56.001s44.667 -22 74 -22s54.166 7.66699 74.499 23s36.5 34.333 48.5 57
c12.667 23.333 21.667 48 27 74s8 50 8 72c0 22.667 -2.83301 47.667 -8.5 75s-14.5 52.666 -26.5 75.999c-12.667 24 -29 43.833 -49 59.5s-44.667 23.5 -74 23.5z" />
    <glyph glyph-name="afii10081" unicode="&#x43f;" horiz-adv-x="550" 
d="M420 431h-289v-486h-51v525h390v-525h-50v486z" />
    <glyph glyph-name="afii10082" unicode="&#x440;" horiz-adv-x="580" 
d="M140 70l-0.000976562 -259.998h-50v660h50v-90c20.667 41.333 48.167 70 82.5 86s67.5 24 99.5 24c32.667 0 61.834 -8 87.501 -24s47.167 -36.667 64.5 -62c17.333 -24.667 30.5 -52.834 39.5 -84.501s13.5 -62.834 13.5 -93.501c0 -34 -4.83301 -66.833 -14.5 -98.5
s-23.167 -60.167 -40.5 -85.5c-18 -24.667 -39.667 -44.5 -65 -59.5s-53.666 -22.5 -84.999 -22.5c-15.333 0 -31.5 1.5 -48.5 4.5s-33.5 8.5 -49.5 16.5c-16.667 8 -32.334 19.167 -47.001 33.5s-27 32.833 -37 55.5zM304.999 448.002
c-28.667 0 -53.332 -7.16797 -73.999 -21.501s-37.667 -32.166 -51 -53.499c-13.333 -22 -23 -46 -29 -72s-9 -50.667 -9 -74c0 -26 3.16699 -52.333 9.5 -79s16.166 -50.667 29.499 -72s30.333 -38.666 51 -51.999s45 -20 73 -20c28.667 0 53.334 7 74.001 21s38 32 52 54
c13.333 21.333 23.166 45.166 29.499 71.499s9.5 51.833 9.5 76.5c0 25.333 -3.5 51 -10.5 77s-17.5 49.667 -31.5 71c-13.333 21.333 -30.333 38.833 -51 52.5s-44.667 20.5 -72 20.5z" />
    <glyph glyph-name="afii10083" unicode="&#x441;" horiz-adv-x="510" 
d="M400 101l58 -0.00195312c-14 -50.667 -39.667 -90.167 -77 -118.5s-78 -42.5 -122 -42.5c-34 0 -64 7.5 -90 22.5s-47.667 35.167 -65 60.5c-18 24.667 -31.5 52.834 -40.5 84.501s-13.5 64.167 -13.5 97.5c0 34.667 4.66699 68.5 14 101.5s23 62.5 41 88.5
c18 25.333 40 45.833 66 61.5s55.333 23.5 88 23.5c48 0 90.333 -15.5 127 -46.5s60 -72.833 70 -125.5h-54c-8.66699 38 -25.667 69.5 -51 94.5s-56 37.5 -92 37.5c-28 0 -51.833 -8.16699 -71.5 -24.5s-35.834 -36.5 -48.501 -60.5
c-12.667 -23.333 -21.667 -48.666 -27 -75.999s-8 -52 -8 -74c0 -24 3 -49.333 9 -76s15.333 -51 28 -73s28.834 -40.167 48.501 -54.5s42.834 -21.5 69.501 -21.5c37.333 0 68.166 11 92.499 33s40.5 51.333 48.5 88z" />
    <glyph glyph-name="afii10084" unicode="&#x442;" horiz-adv-x="470" 
d="M209 -55v485h-179v40h410v-40h-179v-485h-52z" />
    <glyph glyph-name="afii10085" unicode="&#x443;" horiz-adv-x="540" 
d="M90 470l177 -425l42.5 101.5l45.5 109.5l44.5 109.5l42.5 104.5h53l-235 -556c-8 -18 -15 -33.167 -21 -45.5s-12.667 -21.833 -20 -28.5c-6.66699 -7.33301 -15 -12.5 -25 -15.5s-23 -4.5 -39 -4.5h-29v40h21c18 0 31 3.16699 39 9.5s14.667 15.5 20 27.5l-1 -1l40 96
l-76 179.5l-54 127.5l-38.5 92.5l-31.5 78.5h45z" />
    <glyph glyph-name="afii10086" unicode="&#x444;" horiz-adv-x="800" 
d="M370 382v237.999h56l-1 -244c19.333 32 42.666 54 69.999 66s52.333 18 75 18c30 0 56.833 -7.66699 80.5 -23s43.5 -35 59.5 -59s28.333 -50.833 37 -80.5s13 -58.834 13 -87.501c0 -31.333 -4.33301 -61.833 -13 -91.5s-21 -56.5 -37 -80.5
c-16.667 -23.333 -36.667 -42.166 -60 -56.499s-50 -21.5 -80 -21.5c-10 0 -21.667 1.33301 -35 4s-26.666 7 -39.999 13c-13.333 6.66699 -26.166 15 -38.499 25s-22.5 22.667 -30.5 38v-240h-56v234c-20.667 -28 -45 -47.333 -73 -58s-52 -16 -72 -16
c-30 0 -56.667 7.66699 -80 23s-42.666 35.333 -57.999 60c-15.333 24 -27 50.833 -35 80.5s-12 58.5 -12 86.5c0 28.667 4.16699 57.834 12.5 87.501s20.5 56.5 36.5 80.5s35.333 43.667 58 59s48.667 23 78 23c10 0 21.5 -1.5 34.5 -4.5s26.167 -7.5 39.5 -13.5
s26.166 -14 38.499 -24s23.166 -22 32.499 -36zM565 419.999c-27.333 0 -50.0049 -7.16992 -68.0049 -21.5029s-32 -31.833 -42 -52.5c-10.667 -21.333 -18.167 -44.166 -22.5 -68.499s-6.5 -46.833 -6.5 -67.5c0 -22.667 2.16699 -46.334 6.5 -71.001
s12.166 -47.334 23.499 -68.001c10.667 -20.667 24.834 -37.667 42.501 -51s39.834 -20 66.501 -20s48.834 7 66.501 21s31.834 31.667 42.501 53c10.667 20.667 18.167 43.334 22.5 68.001s6.5 47.334 6.5 68.001c0 22 -2.5 45.333 -7.5 70s-12.833 47.334 -23.5 68.001
c-11.333 20.667 -25.666 37.834 -42.999 51.501s-38.666 20.5 -63.999 20.5zM231.995 419.996c-26.667 0 -48.6709 -7.33594 -66.0039 -22.0029s-31 -32.667 -41 -54s-17 -44.166 -21 -68.499s-6 -46.166 -6 -65.499c0 -21.333 2.16699 -44.333 6.5 -69
s11.5 -47.334 21.5 -68.001c10.667 -21.333 24.5 -38.833 41.5 -52.5s38.5 -20.5 64.5 -20.5c26.667 0 48.834 7 66.501 21s31.834 31.667 42.501 53c10.667 20.667 18.167 43.334 22.5 68.001s6.5 47.334 6.5 68.001c0 22 -2.5 45.167 -7.5 69.5
s-12.833 47.166 -23.5 68.499c-11.333 20.667 -25.666 37.834 -42.999 51.501s-38.666 20.5 -63.999 20.5z" />
    <glyph glyph-name="afii10087" unicode="&#x445;" horiz-adv-x="540" 
d="M425 -50l-168 230l-85 -114.5l-82 -115.5h-50l193 265l-93.5 126l-89.5 129h70l150 -213l35 52l37 54l36.5 54l36.5 53h50l-170 -245l200 -275h-70z" />
    <glyph glyph-name="afii10088" unicode="&#x446;" horiz-adv-x="570" 
d="M143 470v-480h257v480h53v-480h82v-125h-51v85h-394v520h53z" />
    <glyph glyph-name="afii10089" unicode="&#x447;" horiz-adv-x="550" 
d="M460 470l-0.00390625 -519.002h-52v234c-21.333 -31.333 -48.166 -54.666 -80.499 -69.999s-65.5 -22 -99.5 -20c-23.333 0.666992 -45.666 4.83398 -66.999 12.501s-40.333 18.5 -57 32.5c-16 14 -29 31 -39 51s-15 43 -15 69v210h54v-190c2 -52 16.333 -88.333 43 -109
s63.334 -31 110.001 -31c14.667 0 30.834 3.33301 48.501 10s34.167 16 49.5 28c14.667 12 27.167 25.833 37.5 41.5s15.5 32.5 15.5 50.5v200h52z" />
    <glyph glyph-name="afii10090" unicode="&#x448;" horiz-adv-x="650" 
d="M352 -12h154v482h54v-520h-470v520h53v-482h152v482h57v-482z" />
    <glyph glyph-name="afii10091" unicode="&#x449;" horiz-adv-x="670" 
d="M352 -10h154v480h54v-480h80v-125h-51v85h-499v520h53v-480h152v480h57v-480z" />
    <glyph glyph-name="afii10092" unicode="&#x44a;" horiz-adv-x="580" 
d="M220 238l-0.000976562 -248h110c44.667 0 80.834 10 108.501 30s41.5 51 41.5 93c0 42.667 -14.5 74.167 -43.5 94.5s-64.5 30.5 -106.5 30.5h-110zM364.999 -50l-197.003 -0.000976562v480h-143v40h195v-192h140c24.667 0 47.834 -4.66699 69.501 -14
s40.5 -21.666 56.5 -36.999c15.333 -16 27.333 -34.667 36 -56s12.334 -44.333 11.001 -69c-2 -23.333 -7.83301 -44.333 -17.5 -63s-22.5 -34.667 -38.5 -48c-15.333 -13.333 -32.666 -23.5 -51.999 -30.5s-39.333 -10.5 -60 -10.5z" />
    <glyph glyph-name="afii10093" unicode="&#x44b;" horiz-adv-x="670" 
d="M528 -50v520h52v-520h-52zM142 238l-0.000976562 -248h108c44.667 0 80.834 10 108.501 30s41.5 51 41.5 93c0 42.667 -14.5 74.167 -43.5 94.5s-64.5 30.5 -106.5 30.5h-108zM284.999 -50l-195.003 -0.000976562v520h52v-192h138c24.667 0 47.834 -4.66699 69.501 -14
s40.5 -21.666 56.5 -36.999c15.333 -16 27.333 -34.667 36 -56s12.334 -44.333 11.001 -69c-2 -23.333 -7.83301 -44.333 -17.5 -63s-22.5 -34.667 -38.5 -48c-15.333 -13.333 -32.666 -23.5 -51.999 -30.5s-39.333 -10.5 -60 -10.5z" />
    <glyph glyph-name="afii10094" unicode="&#x44c;" horiz-adv-x="500" 
d="M142 238l-0.000976562 -248h108c44.667 0 80.834 10 108.501 30s41.5 51 41.5 93c0 42.667 -14.5 74.167 -43.5 94.5s-64.5 30.5 -106.5 30.5h-108zM284.999 -50l-195.003 -0.000976562v520h52v-192h138c24.667 0 47.834 -4.66699 69.501 -14s40.5 -21.666 56.5 -36.999
c15.333 -16 27.333 -34.667 36 -56s12.334 -44.333 11.001 -69c-2 -23.333 -7.83301 -44.333 -17.5 -63s-22.5 -34.667 -38.5 -48c-15.333 -13.333 -32.666 -23.5 -51.999 -30.5s-39.333 -10.5 -60 -10.5z" />
    <glyph glyph-name="afii10095" unicode="&#x44d;" horiz-adv-x="500" 
d="M402 190l-172.001 -0.00292969v40h173c-1.33301 24 -5 48.667 -11 74s-15.333 48 -28 68c-12.667 20.667 -28.667 37.5 -48 50.5s-42.666 19.5 -69.999 19.5c-34.667 0 -64 -12.5 -88 -37.5s-42.667 -56.5 -56 -94.5h-58c15.333 48 40.833 88.333 76.5 121
s77.5 49 125.5 49c36 0 67.333 -8.5 94 -25.5s48.667 -38.5 66 -64.5s30.333 -55 39 -87s13 -63.333 13 -94c0 -33.333 -4.5 -66.166 -13.5 -98.499s-22.5 -61.166 -40.5 -86.499c-17.333 -25.333 -39.333 -45.666 -66 -60.999s-57.334 -23 -92.001 -23
c-48 0 -89.167 15.667 -123.5 47s-59.5 71 -75.5 119h60c12 -42 29.667 -73.167 53 -93.5s52 -30.5 86 -30.5c44 0 79.333 18.667 106 56s43.334 88 50.001 152z" />
    <glyph glyph-name="afii10096" unicode="&#x44e;" horiz-adv-x="702" 
d="M143 470l0.000976562 -234.999h93c2 30.667 8.16699 60.667 18.5 90s24.166 55.666 41.499 78.999c17.333 22.667 38.5 41 63.5 55s53.5 21 85.5 21c36 0 67.167 -8.66699 93.5 -26s48.166 -39.333 65.499 -66c16.667 -27.333 29.334 -57 38.001 -89s13 -63 13 -93
c0 -34 -4.66699 -66.833 -14 -98.5s-23 -60.167 -41 -85.5c-18 -24.667 -40 -44.5 -66 -59.5s-55.667 -22.5 -89 -22.5c-35.333 0 -66 7.5 -92 22.5s-47.333 34.833 -64 59.5c-17.333 24.667 -30.5 52.167 -39.5 82.5s-13.833 60.5 -14.5 90.5h-92v-245h-53v520h53z
M445.001 440.001c-30.667 0 -56.166 -8.33203 -76.499 -24.999s-36.5 -37 -48.5 -61s-20.5 -49.5 -25.5 -76.5s-7.5 -50.833 -7.5 -71.5c0 -23.333 2.83301 -48.166 8.5 -74.499s14.5 -50.833 26.5 -73.5c12.667 -22.667 29 -41.334 49 -56.001s44.667 -22 74 -22
s54.166 7.66699 74.499 23s36.5 34.333 48.5 57c12.667 23.333 21.667 48 27 74s8 50 8 72c0 22.667 -2.83301 47.667 -8.5 75s-14.5 52.666 -26.5 75.999c-12.667 24 -29 43.833 -49 59.5s-44.667 23.5 -74 23.5z" />
    <glyph glyph-name="afii10097" unicode="&#x44f;" horiz-adv-x="500" 
d="M45 -50l137.001 221c-32 14 -57.833 33.667 -77.5 59s-29.5 55 -29.5 89c0 42.667 14.167 78.5 42.5 107.5s64.166 43.5 107.499 43.5h185v-520h-52v215h-119l-57 -88.5l-37 -59.5l-24.5 -39.5l-16.5 -27.5h-59zM269.001 205h89v225h-89c-44.667 0 -79 -9.33301 -103 -28
s-36 -48 -36 -88c0 -20.667 4 -38 12 -52s18.333 -25.333 31 -34c13.333 -8 28.333 -13.833 45 -17.5s33.667 -5.5 51 -5.5z" />
    <glyph glyph-name="afii10071" unicode="&#x451;" horiz-adv-x="510" 
d="M124 586c0 10.667 4.16699 20.334 12.5 29.001s18.166 13 29.499 13s21.333 -4.33301 30 -13s13 -18.334 13 -29.001c0 -12 -4.33301 -22 -13 -30s-18.667 -12 -30 -12s-21.166 4 -29.499 12s-12.5 18 -12.5 30zM295 586c0 10.667 4.16699 20.334 12.5 29.001
s18.166 13 29.499 13s21.333 -4.33301 30 -13s13 -18.334 13 -29.001c0 -12 -4.33301 -22 -13 -30s-18.667 -12 -30 -12s-21.166 4 -29.499 12s-12.5 18 -12.5 30zM255 480c33.333 0 63.0029 -8.33105 89.0029 -24.998s48 -38 66 -64c18.667 -26.667 33 -56.334 43 -89.001
s15.667 -65 17 -97h-369c1.33301 -25.333 5.5 -51.333 12.5 -78s16.833 -51 29.5 -73s28.167 -39.833 46.5 -53.5s40.166 -20.5 65.499 -20.5c35.333 0 64.166 10.833 86.499 32.5s39.166 47.5 50.499 77.5h61c-20.667 -46 -45.834 -82.5 -75.501 -109.5
s-70.5 -40.5 -122.5 -40.5c-34 0 -64 8 -90 24s-48 36.667 -66 62c-18 26 -31.5 54.833 -40.5 86.5s-13.5 63.834 -13.5 96.501c0 33.333 4.83301 66.166 14.5 98.499s23.834 61.166 42.501 86.499c18 26 40 46.833 66 62.5s55 23.5 87 23.5zM103.003 245.002h310
c-8.66699 56.667 -27.667 103.334 -57 140.001s-63 55 -101 55c-36 0 -68.333 -18.333 -97 -55s-47 -83.334 -55 -140.001z" />
    <glyph glyph-name="afii00208" unicode="&#x2015;" horiz-adv-x="900" 
d="M60 325h780v-40h-780v40z" />
    <glyph glyph-name="quoteleft" unicode="&#x2018;" horiz-adv-x="400" 
d="M315 490h-8c-8 28 -14.5 59.833 -19.5 95.5s-7.5 67.167 -7.5 94.5c0 14.667 2.16699 28.167 6.5 40.5s15.833 18.833 34.5 19.5c12 -2 19.833 -9 23.5 -21s5.5 -25 5.5 -39c0 -30 -3.33301 -62.667 -10 -98s-15 -66 -25 -92z" />
    <glyph glyph-name="quoteright" unicode="&#x2019;" horiz-adv-x="400" 
d="M85 490h-8c-8 28 -14.5 59.833 -19.5 95.5s-7.5 67.167 -7.5 94.5c0 14.667 2.16699 28.167 6.5 40.5s15.833 18.833 34.5 19.5c12 -2 19.833 -9 23.5 -21s5.5 -25 5.5 -39c0 -30 -3.33301 -62.667 -10 -98s-15 -66 -25 -92z" />
    <glyph glyph-name="quotedblleft" unicode="&#x201c;" horiz-adv-x="400" 
d="M325 490h-8c-8 28 -14.5 59.833 -19.5 95.5s-7.5 67.167 -7.5 94.5c0 14.667 2.16699 28.167 6.5 40.5s15.833 18.833 34.5 19.5c12 -2 19.833 -9 23.5 -21s5.5 -25 5.5 -39c0 -30 -3.33301 -62.667 -10 -98s-15 -66 -25 -92zM205 490h-8c-8 28 -14.5 59.833 -19.5 95.5
s-7.5 67.167 -7.5 94.5c0 14.667 2.16699 28.167 6.5 40.5s15.833 18.833 34.5 19.5c12 -2 19.833 -9 23.5 -21s5.5 -25 5.5 -39c0 -30 -3.33301 -62.667 -10 -98s-15 -66 -25 -92z" />
    <glyph glyph-name="quotedblright" unicode="&#x201d;" horiz-adv-x="400" 
d="M195 490h-8c-8 28 -14.5 59.833 -19.5 95.5s-7.5 67.167 -7.5 94.5c0 14.667 2.16699 28.167 6.5 40.5s15.833 18.833 34.5 19.5c12 -2 19.833 -9 23.5 -21s5.5 -25 5.5 -39c0 -30 -3.33301 -62.667 -10 -98s-15 -66 -25 -92zM75 490h-8c-8 28 -14.5 59.833 -19.5 95.5
s-7.5 67.167 -7.5 94.5c0 14.667 2.16699 28.167 6.5 40.5s15.833 18.833 34.5 19.5c12 -2 19.833 -9 23.5 -21s5.5 -25 5.5 -39c0 -30 -3.33301 -62.667 -10 -98s-15 -66 -25 -92z" />
    <glyph glyph-name="dagger" unicode="&#x2020;" horiz-adv-x="800" 
d="M415 533c11.333 2 23.3291 4.49902 35.9961 7.49902s25.334 5.83301 38.001 8.5c12.667 2 25.334 3.66699 38.001 5s25 1.33301 37 0c10 -2 19.333 -5.66699 28 -11s13 -12.333 13 -21c0 -10 -4.16699 -18 -12.5 -24s-17.833 -10 -28.5 -12
c-13.333 -0.666992 -26.166 -0.333984 -38.499 0.999023s-24.5 3.33301 -36.5 6s-23.833 5.16699 -35.5 7.5s-23.5 4.5 -35.5 6.5c0 -18 1.5 -35.5 4.5 -52.5s7.83301 -29.5 14.5 -37.5c8.66699 -13.333 13.334 -23 14.001 -29s0 -10.667 -2 -14c-8 -10 -14.333 -24 -19 -42
s-8 -37 -10 -57c-2.66699 -20 -4.16699 -39.5 -4.5 -58.5s-0.5 -34.5 -0.5 -46.5v-30c0 -10 0.333008 -19.667 1 -29c0 -10 0.166992 -20 0.5 -30s0.5 -19.667 0.5 -29c0 -12 -0.333008 -24 -1 -36l-2 -36l-2 -35.5l-2 -33.5c-1.33301 -14 -2.83301 -24.333 -4.5 -31
s-3.5 -10 -5.5 -10c-2.66699 0 -4.66699 3.66699 -6 11s-2.66602 18 -3.99902 32c-1.33301 9.33301 -2.5 18.666 -3.5 27.999s-1.83301 18.333 -2.5 27c-0.666992 9.33301 -1.16699 18.333 -1.5 27s-0.5 17.667 -0.5 27v36.5c0 12.333 0.333008 24.833 1 37.5
c0.666992 12 1.16699 24.167 1.5 36.5s0.5 24.833 0.5 37.5c0 36.667 -1.5 72.5 -4.5 107.5s-11.833 67.5 -26.5 97.5c-4 4.66699 -6 9.66699 -6 15s5.66699 15 17 29c4.66699 8 9.16699 20.167 13.5 36.5s6.83301 33.833 7.5 52.5
c-13.333 -2.66699 -26.833 -5.66699 -40.5 -9s-27.167 -6 -40.5 -8c-13.333 -2.66699 -26.666 -4.66699 -39.999 -6s-26.333 -1 -39 1h1c-10.667 2 -18.667 5.83301 -24 11.5s-8 13.834 -8 24.501c0 8 2.66699 15 8 21s13 9.66699 23 11c10 0.666992 22.167 0.5 36.5 -0.5
s29.166 -2.83301 44.499 -5.5s30.166 -5.66699 44.499 -9s26.833 -6.66602 37.5 -9.99902c-1.33301 4 -2.5 8.83301 -3.5 14.5s-2.16699 11.5 -3.5 17.5c-0.666992 6 -1.66699 12 -3 18s-2.33301 11 -3 15c-2 6 -3.66699 12.5 -5 19.5l-4 20.5
c-1.33301 6.66699 -2.33301 13.334 -3 20.001s-1 13 -1 19c0 16 2.16699 31.667 6.5 47s14.5 23 30.5 23c9.33301 0 16.666 -3.16699 21.999 -9.5s9 -15.833 11 -28.5c0.666992 -7.33301 0.666992 -14.666 0 -21.999l-2 -23l-4 -22l-4 -22l-4 -20
c-1.33301 -6.66699 -2.33301 -13.334 -3 -20.001s-1.16699 -13.5 -1.5 -20.5s-0.166016 -14.5 0.500977 -22.5z" />
    </font>
</defs>
</svg>
